<?xml version="1.0" encoding="utf-8" standalone="no"?>
<!DOCTYPE svg PUBLIC "-//W3C//DTD SVG 1.1//EN"
  "http://www.w3.org/Graphics/SVG/1.1/DTD/svg11.dtd">
<!-- Created with matplotlib (http://matplotlib.org/) -->
<svg height="576pt" version="1.1" viewBox="0 0 792 576" width="792pt" xmlns="http://www.w3.org/2000/svg" xmlns:xlink="http://www.w3.org/1999/xlink">
 <defs>
  <style type="text/css">
*{stroke-linecap:butt;stroke-linejoin:round;}
  </style>
 </defs>
 <g id="figure_1">
  <g id="patch_1">
   <path d="M 0 576 
L 792 576 
L 792 0 
L 0 0 
z
" style="fill:#f0f0f0;"/>
  </g>
  <g id="axes_1">
   <g id="patch_2">
    <path d="M 63.36 255.744 
L 376.56 255.744 
L 376.56 69.12 
L 63.36 69.12 
z
" style="fill:#ffffff;"/>
   </g>
   <g id="matplotlib.axis_1">
    <g id="xtick_1">
     <g id="line2d_1">
      <path clip-path="url(#pac4d99d0a7)" d="M 70.791935 255.744 
L 70.791935 69.12 
" style="fill:none;stroke:#ffffff;stroke-width:1.4;"/>
     </g>
     <g id="line2d_2"/>
    </g>
    <g id="xtick_2">
     <g id="line2d_3">
      <path clip-path="url(#pac4d99d0a7)" d="M 115.994379 255.744 
L 115.994379 69.12 
" style="fill:none;stroke:#ffffff;stroke-width:1.4;"/>
     </g>
     <g id="line2d_4"/>
    </g>
    <g id="xtick_3">
     <g id="line2d_5">
      <path clip-path="url(#pac4d99d0a7)" d="M 161.196823 255.744 
L 161.196823 69.12 
" style="fill:none;stroke:#ffffff;stroke-width:1.4;"/>
     </g>
     <g id="line2d_6"/>
    </g>
    <g id="xtick_4">
     <g id="line2d_7">
      <path clip-path="url(#pac4d99d0a7)" d="M 206.399267 255.744 
L 206.399267 69.12 
" style="fill:none;stroke:#ffffff;stroke-width:1.4;"/>
     </g>
     <g id="line2d_8"/>
    </g>
    <g id="xtick_5">
     <g id="line2d_9">
      <path clip-path="url(#pac4d99d0a7)" d="M 251.601711 255.744 
L 251.601711 69.12 
" style="fill:none;stroke:#ffffff;stroke-width:1.4;"/>
     </g>
     <g id="line2d_10"/>
    </g>
    <g id="xtick_6">
     <g id="line2d_11">
      <path clip-path="url(#pac4d99d0a7)" d="M 296.804155 255.744 
L 296.804155 69.12 
" style="fill:none;stroke:#ffffff;stroke-width:1.4;"/>
     </g>
     <g id="line2d_12"/>
    </g>
    <g id="xtick_7">
     <g id="line2d_13">
      <path clip-path="url(#pac4d99d0a7)" d="M 342.006599 255.744 
L 342.006599 69.12 
" style="fill:none;stroke:#ffffff;stroke-width:1.4;"/>
     </g>
     <g id="line2d_14"/>
    </g>
   </g>
   <g id="matplotlib.axis_2">
    <g id="ytick_1">
     <g id="line2d_15">
      <path clip-path="url(#pac4d99d0a7)" d="M 63.36 245.028307 
L 376.56 245.028307 
" style="fill:none;stroke:#ffffff;stroke-width:1.4;"/>
     </g>
     <g id="line2d_16"/>
     <g id="text_1">
      <!-- 0.0 -->
      <defs>
       <path d="M 31.78125 66.40625 
Q 24.171875 66.40625 20.328125 58.90625 
Q 16.5 51.421875 16.5 36.375 
Q 16.5 21.390625 20.328125 13.890625 
Q 24.171875 6.390625 31.78125 6.390625 
Q 39.453125 6.390625 43.28125 13.890625 
Q 47.125 21.390625 47.125 36.375 
Q 47.125 51.421875 43.28125 58.90625 
Q 39.453125 66.40625 31.78125 66.40625 
z
M 31.78125 74.21875 
Q 44.046875 74.21875 50.515625 64.515625 
Q 56.984375 54.828125 56.984375 36.375 
Q 56.984375 17.96875 50.515625 8.265625 
Q 44.046875 -1.421875 31.78125 -1.421875 
Q 19.53125 -1.421875 13.0625 8.265625 
Q 6.59375 17.96875 6.59375 36.375 
Q 6.59375 54.828125 13.0625 64.515625 
Q 19.53125 74.21875 31.78125 74.21875 
z
" id="DejaVuSans-30"/>
       <path d="M 10.6875 12.40625 
L 21 12.40625 
L 21 0 
L 10.6875 0 
z
" id="DejaVuSans-2e"/>
      </defs>
      <g style="fill:#7f7f7f;" transform="translate(38.27625 249.587369)scale(0.12 -0.12)">
       <use xlink:href="#DejaVuSans-30"/>
       <use x="63.623047" xlink:href="#DejaVuSans-2e"/>
       <use x="95.410156" xlink:href="#DejaVuSans-30"/>
      </g>
     </g>
    </g>
    <g id="ytick_2">
     <g id="line2d_17">
      <path clip-path="url(#pac4d99d0a7)" d="M 63.36 211.917479 
L 376.56 211.917479 
" style="fill:none;stroke:#ffffff;stroke-width:1.4;"/>
     </g>
     <g id="line2d_18"/>
     <g id="text_2">
      <!-- 0.2 -->
      <defs>
       <path d="M 19.1875 8.296875 
L 53.609375 8.296875 
L 53.609375 0 
L 7.328125 0 
L 7.328125 8.296875 
Q 12.9375 14.109375 22.625 23.890625 
Q 32.328125 33.6875 34.8125 36.53125 
Q 39.546875 41.84375 41.421875 45.53125 
Q 43.3125 49.21875 43.3125 52.78125 
Q 43.3125 58.59375 39.234375 62.25 
Q 35.15625 65.921875 28.609375 65.921875 
Q 23.96875 65.921875 18.8125 64.3125 
Q 13.671875 62.703125 7.8125 59.421875 
L 7.8125 69.390625 
Q 13.765625 71.78125 18.9375 73 
Q 24.125 74.21875 28.421875 74.21875 
Q 39.75 74.21875 46.484375 68.546875 
Q 53.21875 62.890625 53.21875 53.421875 
Q 53.21875 48.921875 51.53125 44.890625 
Q 49.859375 40.875 45.40625 35.40625 
Q 44.1875 33.984375 37.640625 27.21875 
Q 31.109375 20.453125 19.1875 8.296875 
z
" id="DejaVuSans-32"/>
      </defs>
      <g style="fill:#7f7f7f;" transform="translate(38.27625 216.476542)scale(0.12 -0.12)">
       <use xlink:href="#DejaVuSans-30"/>
       <use x="63.623047" xlink:href="#DejaVuSans-2e"/>
       <use x="95.410156" xlink:href="#DejaVuSans-32"/>
      </g>
     </g>
    </g>
    <g id="ytick_3">
     <g id="line2d_19">
      <path clip-path="url(#pac4d99d0a7)" d="M 63.36 178.806652 
L 376.56 178.806652 
" style="fill:none;stroke:#ffffff;stroke-width:1.4;"/>
     </g>
     <g id="line2d_20"/>
     <g id="text_3">
      <!-- 0.4 -->
      <defs>
       <path d="M 37.796875 64.3125 
L 12.890625 25.390625 
L 37.796875 25.390625 
z
M 35.203125 72.90625 
L 47.609375 72.90625 
L 47.609375 25.390625 
L 58.015625 25.390625 
L 58.015625 17.1875 
L 47.609375 17.1875 
L 47.609375 0 
L 37.796875 0 
L 37.796875 17.1875 
L 4.890625 17.1875 
L 4.890625 26.703125 
z
" id="DejaVuSans-34"/>
      </defs>
      <g style="fill:#7f7f7f;" transform="translate(38.27625 183.365714)scale(0.12 -0.12)">
       <use xlink:href="#DejaVuSans-30"/>
       <use x="63.623047" xlink:href="#DejaVuSans-2e"/>
       <use x="95.410156" xlink:href="#DejaVuSans-34"/>
      </g>
     </g>
    </g>
    <g id="ytick_4">
     <g id="line2d_21">
      <path clip-path="url(#pac4d99d0a7)" d="M 63.36 145.695824 
L 376.56 145.695824 
" style="fill:none;stroke:#ffffff;stroke-width:1.4;"/>
     </g>
     <g id="line2d_22"/>
     <g id="text_4">
      <!-- 0.6 -->
      <defs>
       <path d="M 33.015625 40.375 
Q 26.375 40.375 22.484375 35.828125 
Q 18.609375 31.296875 18.609375 23.390625 
Q 18.609375 15.53125 22.484375 10.953125 
Q 26.375 6.390625 33.015625 6.390625 
Q 39.65625 6.390625 43.53125 10.953125 
Q 47.40625 15.53125 47.40625 23.390625 
Q 47.40625 31.296875 43.53125 35.828125 
Q 39.65625 40.375 33.015625 40.375 
z
M 52.59375 71.296875 
L 52.59375 62.3125 
Q 48.875 64.0625 45.09375 64.984375 
Q 41.3125 65.921875 37.59375 65.921875 
Q 27.828125 65.921875 22.671875 59.328125 
Q 17.53125 52.734375 16.796875 39.40625 
Q 19.671875 43.65625 24.015625 45.921875 
Q 28.375 48.1875 33.59375 48.1875 
Q 44.578125 48.1875 50.953125 41.515625 
Q 57.328125 34.859375 57.328125 23.390625 
Q 57.328125 12.15625 50.6875 5.359375 
Q 44.046875 -1.421875 33.015625 -1.421875 
Q 20.359375 -1.421875 13.671875 8.265625 
Q 6.984375 17.96875 6.984375 36.375 
Q 6.984375 53.65625 15.1875 63.9375 
Q 23.390625 74.21875 37.203125 74.21875 
Q 40.921875 74.21875 44.703125 73.484375 
Q 48.484375 72.75 52.59375 71.296875 
z
" id="DejaVuSans-36"/>
      </defs>
      <g style="fill:#7f7f7f;" transform="translate(38.27625 150.254887)scale(0.12 -0.12)">
       <use xlink:href="#DejaVuSans-30"/>
       <use x="63.623047" xlink:href="#DejaVuSans-2e"/>
       <use x="95.410156" xlink:href="#DejaVuSans-36"/>
      </g>
     </g>
    </g>
    <g id="ytick_5">
     <g id="line2d_23">
      <path clip-path="url(#pac4d99d0a7)" d="M 63.36 112.584997 
L 376.56 112.584997 
" style="fill:none;stroke:#ffffff;stroke-width:1.4;"/>
     </g>
     <g id="line2d_24"/>
     <g id="text_5">
      <!-- 0.8 -->
      <defs>
       <path d="M 31.78125 34.625 
Q 24.75 34.625 20.71875 30.859375 
Q 16.703125 27.09375 16.703125 20.515625 
Q 16.703125 13.921875 20.71875 10.15625 
Q 24.75 6.390625 31.78125 6.390625 
Q 38.8125 6.390625 42.859375 10.171875 
Q 46.921875 13.96875 46.921875 20.515625 
Q 46.921875 27.09375 42.890625 30.859375 
Q 38.875 34.625 31.78125 34.625 
z
M 21.921875 38.8125 
Q 15.578125 40.375 12.03125 44.71875 
Q 8.5 49.078125 8.5 55.328125 
Q 8.5 64.0625 14.71875 69.140625 
Q 20.953125 74.21875 31.78125 74.21875 
Q 42.671875 74.21875 48.875 69.140625 
Q 55.078125 64.0625 55.078125 55.328125 
Q 55.078125 49.078125 51.53125 44.71875 
Q 48 40.375 41.703125 38.8125 
Q 48.828125 37.15625 52.796875 32.3125 
Q 56.78125 27.484375 56.78125 20.515625 
Q 56.78125 9.90625 50.3125 4.234375 
Q 43.84375 -1.421875 31.78125 -1.421875 
Q 19.734375 -1.421875 13.25 4.234375 
Q 6.78125 9.90625 6.78125 20.515625 
Q 6.78125 27.484375 10.78125 32.3125 
Q 14.796875 37.15625 21.921875 38.8125 
z
M 18.3125 54.390625 
Q 18.3125 48.734375 21.84375 45.5625 
Q 25.390625 42.390625 31.78125 42.390625 
Q 38.140625 42.390625 41.71875 45.5625 
Q 45.3125 48.734375 45.3125 54.390625 
Q 45.3125 60.0625 41.71875 63.234375 
Q 38.140625 66.40625 31.78125 66.40625 
Q 25.390625 66.40625 21.84375 63.234375 
Q 18.3125 60.0625 18.3125 54.390625 
z
" id="DejaVuSans-38"/>
      </defs>
      <g style="fill:#7f7f7f;" transform="translate(38.27625 117.144059)scale(0.12 -0.12)">
       <use xlink:href="#DejaVuSans-30"/>
       <use x="63.623047" xlink:href="#DejaVuSans-2e"/>
       <use x="95.410156" xlink:href="#DejaVuSans-38"/>
      </g>
     </g>
    </g>
    <g id="ytick_6">
     <g id="line2d_25">
      <path clip-path="url(#pac4d99d0a7)" d="M 63.36 79.474169 
L 376.56 79.474169 
" style="fill:none;stroke:#ffffff;stroke-width:1.4;"/>
     </g>
     <g id="line2d_26"/>
     <g id="text_6">
      <!-- 1.0 -->
      <defs>
       <path d="M 12.40625 8.296875 
L 28.515625 8.296875 
L 28.515625 63.921875 
L 10.984375 60.40625 
L 10.984375 69.390625 
L 28.421875 72.90625 
L 38.28125 72.90625 
L 38.28125 8.296875 
L 54.390625 8.296875 
L 54.390625 0 
L 12.40625 0 
z
" id="DejaVuSans-31"/>
      </defs>
      <g style="fill:#7f7f7f;" transform="translate(38.27625 84.033232)scale(0.12 -0.12)">
       <use xlink:href="#DejaVuSans-31"/>
       <use x="63.623047" xlink:href="#DejaVuSans-2e"/>
       <use x="95.410156" xlink:href="#DejaVuSans-30"/>
      </g>
     </g>
    </g>
   </g>
   <g id="PathCollection_1">
    <defs>
     <path d="M 0 2.236068 
C 0.593012 2.236068 1.161816 2.000462 1.581139 1.581139 
C 2.000462 1.161816 2.236068 0.593012 2.236068 0 
C 2.236068 -0.593012 2.000462 -1.161816 1.581139 -1.581139 
C 1.161816 -2.000462 0.593012 -2.236068 0 -2.236068 
C -0.593012 -2.236068 -1.161816 -2.000462 -1.581139 -1.581139 
C -2.000462 -1.161816 -2.236068 -0.593012 -2.236068 0 
C -2.236068 0.593012 -2.000462 1.161816 -1.581139 1.581139 
C -1.161816 2.000462 -0.593012 2.236068 0 2.236068 
z
" id="C0_0_ea2d5a3f9f"/>
    </defs>
    <g clip-path="url(#pac4d99d0a7)">
     <use style="fill:#d55e00;" x="79.832423" xlink:href="#C0_0_ea2d5a3f9f" y="191.537765"/>
    </g>
    <g clip-path="url(#pac4d99d0a7)">
     <use style="fill:#d55e00;" x="88.872912" xlink:href="#C0_0_ea2d5a3f9f" y="245.028307"/>
    </g>
    <g clip-path="url(#pac4d99d0a7)">
     <use style="fill:#d55e00;" x="97.913401" xlink:href="#C0_0_ea2d5a3f9f" y="213.788241"/>
    </g>
    <g clip-path="url(#pac4d99d0a7)">
     <use style="fill:#d55e00;" x="106.95389" xlink:href="#C0_0_ea2d5a3f9f" y="221.999726"/>
    </g>
    <g clip-path="url(#pac4d99d0a7)">
     <use style="fill:#d55e00;" x="115.994379" xlink:href="#C0_0_ea2d5a3f9f" y="245.028307"/>
    </g>
    <g clip-path="url(#pac4d99d0a7)">
     <use style="fill:#d55e00;" x="125.034867" xlink:href="#C0_0_ea2d5a3f9f" y="171.687824"/>
    </g>
    <g clip-path="url(#pac4d99d0a7)">
     <use style="fill:#d55e00;" x="134.075356" xlink:href="#C0_0_ea2d5a3f9f" y="245.028307"/>
    </g>
    <g clip-path="url(#pac4d99d0a7)">
     <use style="fill:#d55e00;" x="143.115845" xlink:href="#C0_0_ea2d5a3f9f" y="245.028307"/>
    </g>
    <g clip-path="url(#pac4d99d0a7)">
     <use style="fill:#d55e00;" x="152.156334" xlink:href="#C0_0_ea2d5a3f9f" y="245.028307"/>
    </g>
    <g clip-path="url(#pac4d99d0a7)">
     <use style="fill:#d55e00;" x="161.196823" xlink:href="#C0_0_ea2d5a3f9f" y="245.028307"/>
    </g>
    <g clip-path="url(#pac4d99d0a7)">
     <use style="fill:#d55e00;" x="170.237312" xlink:href="#C0_0_ea2d5a3f9f" y="245.028307"/>
    </g>
    <g clip-path="url(#pac4d99d0a7)">
     <use style="fill:#d55e00;" x="179.2778" xlink:href="#C0_0_ea2d5a3f9f" y="182.465398"/>
    </g>
    <g clip-path="url(#pac4d99d0a7)">
     <use style="fill:#d55e00;" x="188.318289" xlink:href="#C0_0_ea2d5a3f9f" y="201.504124"/>
    </g>
    <g clip-path="url(#pac4d99d0a7)">
     <use style="fill:#d55e00;" x="197.358778" xlink:href="#C0_0_ea2d5a3f9f" y="245.028307"/>
    </g>
    <g clip-path="url(#pac4d99d0a7)">
     <use style="fill:#d55e00;" x="206.399267" xlink:href="#C0_0_ea2d5a3f9f" y="245.028307"/>
    </g>
    <g clip-path="url(#pac4d99d0a7)">
     <use style="fill:#d55e00;" x="215.439756" xlink:href="#C0_0_ea2d5a3f9f" y="245.028307"/>
    </g>
    <g clip-path="url(#pac4d99d0a7)">
     <use style="fill:#d55e00;" x="224.480244" xlink:href="#C0_0_ea2d5a3f9f" y="151.059778"/>
    </g>
    <g clip-path="url(#pac4d99d0a7)">
     <use style="fill:#d55e00;" x="233.520733" xlink:href="#C0_0_ea2d5a3f9f" y="182.614397"/>
    </g>
    <g clip-path="url(#pac4d99d0a7)">
     <use style="fill:#d55e00;" x="242.561222" xlink:href="#C0_0_ea2d5a3f9f" y="245.028307"/>
    </g>
    <g clip-path="url(#pac4d99d0a7)">
     <use style="fill:#d55e00;" x="251.601711" xlink:href="#C0_0_ea2d5a3f9f" y="245.028307"/>
    </g>
    <g clip-path="url(#pac4d99d0a7)">
     <use style="fill:#d55e00;" x="260.6422" xlink:href="#C0_0_ea2d5a3f9f" y="166.439758"/>
    </g>
    <g clip-path="url(#pac4d99d0a7)">
     <use style="fill:#d55e00;" x="269.682688" xlink:href="#C0_0_ea2d5a3f9f" y="245.028307"/>
    </g>
    <g clip-path="url(#pac4d99d0a7)">
     <use style="fill:#d55e00;" x="278.723177" xlink:href="#C0_0_ea2d5a3f9f" y="210.857933"/>
    </g>
    <g clip-path="url(#pac4d99d0a7)">
     <use style="fill:#d55e00;" x="287.763666" xlink:href="#C0_0_ea2d5a3f9f" y="185.263263"/>
    </g>
    <g clip-path="url(#pac4d99d0a7)">
     <use style="fill:#d55e00;" x="296.804155" xlink:href="#C0_0_ea2d5a3f9f" y="205.576756"/>
    </g>
    <g clip-path="url(#pac4d99d0a7)">
     <use style="fill:#d55e00;" x="305.844644" xlink:href="#C0_0_ea2d5a3f9f" y="195.179956"/>
    </g>
    <g clip-path="url(#pac4d99d0a7)">
     <use style="fill:#d55e00;" x="314.885133" xlink:href="#C0_0_ea2d5a3f9f" y="245.028307"/>
    </g>
    <g clip-path="url(#pac4d99d0a7)">
     <use style="fill:#d55e00;" x="323.925621" xlink:href="#C0_0_ea2d5a3f9f" y="245.028307"/>
    </g>
    <g clip-path="url(#pac4d99d0a7)">
     <use style="fill:#d55e00;" x="332.96611" xlink:href="#C0_0_ea2d5a3f9f" y="245.028307"/>
    </g>
    <g clip-path="url(#pac4d99d0a7)">
     <use style="fill:#d55e00;" x="342.006599" xlink:href="#C0_0_ea2d5a3f9f" y="199.070478"/>
    </g>
    <g clip-path="url(#pac4d99d0a7)">
     <use style="fill:#d55e00;" x="351.047088" xlink:href="#C0_0_ea2d5a3f9f" y="245.028307"/>
    </g>
    <g clip-path="url(#pac4d99d0a7)">
     <use style="fill:#d55e00;" x="360.087577" xlink:href="#C0_0_ea2d5a3f9f" y="245.028307"/>
    </g>
   </g>
   <g id="patch_3">
    <path d="M 63.36 255.744 
L 63.36 69.12 
" style="fill:none;stroke:#bcbcbc;stroke-linecap:square;stroke-linejoin:miter;"/>
   </g>
   <g id="patch_4">
    <path d="M 376.56 255.744 
L 376.56 69.12 
" style="fill:none;stroke:#bcbcbc;stroke-linecap:square;stroke-linejoin:miter;"/>
   </g>
   <g id="patch_5">
    <path d="M 63.36 255.744 
L 376.56 255.744 
" style="fill:none;stroke:#bcbcbc;stroke-linecap:square;stroke-linejoin:miter;"/>
   </g>
   <g id="patch_6">
    <path d="M 63.36 69.12 
L 376.56 69.12 
" style="fill:none;stroke:#bcbcbc;stroke-linecap:square;stroke-linejoin:miter;"/>
   </g>
   <g id="text_7">
    <!-- Allies of World War II -->
    <defs>
     <path d="M 34.1875 63.1875 
L 20.796875 26.90625 
L 47.609375 26.90625 
z
M 28.609375 72.90625 
L 39.796875 72.90625 
L 67.578125 0 
L 57.328125 0 
L 50.6875 18.703125 
L 17.828125 18.703125 
L 11.1875 0 
L 0.78125 0 
z
" id="DejaVuSans-41"/>
     <path d="M 9.421875 75.984375 
L 18.40625 75.984375 
L 18.40625 0 
L 9.421875 0 
z
" id="DejaVuSans-6c"/>
     <path d="M 9.421875 54.6875 
L 18.40625 54.6875 
L 18.40625 0 
L 9.421875 0 
z
M 9.421875 75.984375 
L 18.40625 75.984375 
L 18.40625 64.59375 
L 9.421875 64.59375 
z
" id="DejaVuSans-69"/>
     <path d="M 56.203125 29.59375 
L 56.203125 25.203125 
L 14.890625 25.203125 
Q 15.484375 15.921875 20.484375 11.0625 
Q 25.484375 6.203125 34.421875 6.203125 
Q 39.59375 6.203125 44.453125 7.46875 
Q 49.3125 8.734375 54.109375 11.28125 
L 54.109375 2.78125 
Q 49.265625 0.734375 44.1875 -0.34375 
Q 39.109375 -1.421875 33.890625 -1.421875 
Q 20.796875 -1.421875 13.15625 6.1875 
Q 5.515625 13.8125 5.515625 26.8125 
Q 5.515625 40.234375 12.765625 48.109375 
Q 20.015625 56 32.328125 56 
Q 43.359375 56 49.78125 48.890625 
Q 56.203125 41.796875 56.203125 29.59375 
z
M 47.21875 32.234375 
Q 47.125 39.59375 43.09375 43.984375 
Q 39.0625 48.390625 32.421875 48.390625 
Q 24.90625 48.390625 20.390625 44.140625 
Q 15.875 39.890625 15.1875 32.171875 
z
" id="DejaVuSans-65"/>
     <path d="M 44.28125 53.078125 
L 44.28125 44.578125 
Q 40.484375 46.53125 36.375 47.5 
Q 32.28125 48.484375 27.875 48.484375 
Q 21.1875 48.484375 17.84375 46.4375 
Q 14.5 44.390625 14.5 40.28125 
Q 14.5 37.15625 16.890625 35.375 
Q 19.28125 33.59375 26.515625 31.984375 
L 29.59375 31.296875 
Q 39.15625 29.25 43.1875 25.515625 
Q 47.21875 21.78125 47.21875 15.09375 
Q 47.21875 7.46875 41.1875 3.015625 
Q 35.15625 -1.421875 24.609375 -1.421875 
Q 20.21875 -1.421875 15.453125 -0.5625 
Q 10.6875 0.296875 5.421875 2 
L 5.421875 11.28125 
Q 10.40625 8.6875 15.234375 7.390625 
Q 20.0625 6.109375 24.8125 6.109375 
Q 31.15625 6.109375 34.5625 8.28125 
Q 37.984375 10.453125 37.984375 14.40625 
Q 37.984375 18.0625 35.515625 20.015625 
Q 33.0625 21.96875 24.703125 23.78125 
L 21.578125 24.515625 
Q 13.234375 26.265625 9.515625 29.90625 
Q 5.8125 33.546875 5.8125 39.890625 
Q 5.8125 47.609375 11.28125 51.796875 
Q 16.75 56 26.8125 56 
Q 31.78125 56 36.171875 55.265625 
Q 40.578125 54.546875 44.28125 53.078125 
z
" id="DejaVuSans-73"/>
     <path id="DejaVuSans-20"/>
     <path d="M 30.609375 48.390625 
Q 23.390625 48.390625 19.1875 42.75 
Q 14.984375 37.109375 14.984375 27.296875 
Q 14.984375 17.484375 19.15625 11.84375 
Q 23.34375 6.203125 30.609375 6.203125 
Q 37.796875 6.203125 41.984375 11.859375 
Q 46.1875 17.53125 46.1875 27.296875 
Q 46.1875 37.015625 41.984375 42.703125 
Q 37.796875 48.390625 30.609375 48.390625 
z
M 30.609375 56 
Q 42.328125 56 49.015625 48.375 
Q 55.71875 40.765625 55.71875 27.296875 
Q 55.71875 13.875 49.015625 6.21875 
Q 42.328125 -1.421875 30.609375 -1.421875 
Q 18.84375 -1.421875 12.171875 6.21875 
Q 5.515625 13.875 5.515625 27.296875 
Q 5.515625 40.765625 12.171875 48.375 
Q 18.84375 56 30.609375 56 
z
" id="DejaVuSans-6f"/>
     <path d="M 37.109375 75.984375 
L 37.109375 68.5 
L 28.515625 68.5 
Q 23.6875 68.5 21.796875 66.546875 
Q 19.921875 64.59375 19.921875 59.515625 
L 19.921875 54.6875 
L 34.71875 54.6875 
L 34.71875 47.703125 
L 19.921875 47.703125 
L 19.921875 0 
L 10.890625 0 
L 10.890625 47.703125 
L 2.296875 47.703125 
L 2.296875 54.6875 
L 10.890625 54.6875 
L 10.890625 58.5 
Q 10.890625 67.625 15.140625 71.796875 
Q 19.390625 75.984375 28.609375 75.984375 
z
" id="DejaVuSans-66"/>
     <path d="M 3.328125 72.90625 
L 13.28125 72.90625 
L 28.609375 11.28125 
L 43.890625 72.90625 
L 54.984375 72.90625 
L 70.3125 11.28125 
L 85.59375 72.90625 
L 95.609375 72.90625 
L 77.296875 0 
L 64.890625 0 
L 49.515625 63.28125 
L 33.984375 0 
L 21.578125 0 
z
" id="DejaVuSans-57"/>
     <path d="M 41.109375 46.296875 
Q 39.59375 47.171875 37.8125 47.578125 
Q 36.03125 48 33.890625 48 
Q 26.265625 48 22.1875 43.046875 
Q 18.109375 38.09375 18.109375 28.8125 
L 18.109375 0 
L 9.078125 0 
L 9.078125 54.6875 
L 18.109375 54.6875 
L 18.109375 46.1875 
Q 20.953125 51.171875 25.484375 53.578125 
Q 30.03125 56 36.53125 56 
Q 37.453125 56 38.578125 55.875 
Q 39.703125 55.765625 41.0625 55.515625 
z
" id="DejaVuSans-72"/>
     <path d="M 45.40625 46.390625 
L 45.40625 75.984375 
L 54.390625 75.984375 
L 54.390625 0 
L 45.40625 0 
L 45.40625 8.203125 
Q 42.578125 3.328125 38.25 0.953125 
Q 33.9375 -1.421875 27.875 -1.421875 
Q 17.96875 -1.421875 11.734375 6.484375 
Q 5.515625 14.40625 5.515625 27.296875 
Q 5.515625 40.1875 11.734375 48.09375 
Q 17.96875 56 27.875 56 
Q 33.9375 56 38.25 53.625 
Q 42.578125 51.265625 45.40625 46.390625 
z
M 14.796875 27.296875 
Q 14.796875 17.390625 18.875 11.75 
Q 22.953125 6.109375 30.078125 6.109375 
Q 37.203125 6.109375 41.296875 11.75 
Q 45.40625 17.390625 45.40625 27.296875 
Q 45.40625 37.203125 41.296875 42.84375 
Q 37.203125 48.484375 30.078125 48.484375 
Q 22.953125 48.484375 18.875 42.84375 
Q 14.796875 37.203125 14.796875 27.296875 
z
" id="DejaVuSans-64"/>
     <path d="M 34.28125 27.484375 
Q 23.390625 27.484375 19.1875 25 
Q 14.984375 22.515625 14.984375 16.5 
Q 14.984375 11.71875 18.140625 8.90625 
Q 21.296875 6.109375 26.703125 6.109375 
Q 34.1875 6.109375 38.703125 11.40625 
Q 43.21875 16.703125 43.21875 25.484375 
L 43.21875 27.484375 
z
M 52.203125 31.203125 
L 52.203125 0 
L 43.21875 0 
L 43.21875 8.296875 
Q 40.140625 3.328125 35.546875 0.953125 
Q 30.953125 -1.421875 24.3125 -1.421875 
Q 15.921875 -1.421875 10.953125 3.296875 
Q 6 8.015625 6 15.921875 
Q 6 25.140625 12.171875 29.828125 
Q 18.359375 34.515625 30.609375 34.515625 
L 43.21875 34.515625 
L 43.21875 35.40625 
Q 43.21875 41.609375 39.140625 45 
Q 35.0625 48.390625 27.6875 48.390625 
Q 23 48.390625 18.546875 47.265625 
Q 14.109375 46.140625 10.015625 43.890625 
L 10.015625 52.203125 
Q 14.9375 54.109375 19.578125 55.046875 
Q 24.21875 56 28.609375 56 
Q 40.484375 56 46.34375 49.84375 
Q 52.203125 43.703125 52.203125 31.203125 
z
" id="DejaVuSans-61"/>
     <path d="M 9.8125 72.90625 
L 19.671875 72.90625 
L 19.671875 0 
L 9.8125 0 
z
" id="DejaVuSans-49"/>
    </defs>
    <g transform="translate(167.888906 63.12)scale(0.1 -0.1)">
     <use xlink:href="#DejaVuSans-41"/>
     <use x="68.408203" xlink:href="#DejaVuSans-6c"/>
     <use x="96.191406" xlink:href="#DejaVuSans-6c"/>
     <use x="123.974609" xlink:href="#DejaVuSans-69"/>
     <use x="151.757812" xlink:href="#DejaVuSans-65"/>
     <use x="213.28125" xlink:href="#DejaVuSans-73"/>
     <use x="265.380859" xlink:href="#DejaVuSans-20"/>
     <use x="297.167969" xlink:href="#DejaVuSans-6f"/>
     <use x="358.349609" xlink:href="#DejaVuSans-66"/>
     <use x="393.554688" xlink:href="#DejaVuSans-20"/>
     <use x="425.341797" xlink:href="#DejaVuSans-57"/>
     <use x="524.140625" xlink:href="#DejaVuSans-6f"/>
     <use x="585.322266" xlink:href="#DejaVuSans-72"/>
     <use x="626.435547" xlink:href="#DejaVuSans-6c"/>
     <use x="654.21875" xlink:href="#DejaVuSans-64"/>
     <use x="717.695312" xlink:href="#DejaVuSans-20"/>
     <use x="749.482422" xlink:href="#DejaVuSans-57"/>
     <use x="848.265625" xlink:href="#DejaVuSans-61"/>
     <use x="909.544922" xlink:href="#DejaVuSans-72"/>
     <use x="950.658203" xlink:href="#DejaVuSans-20"/>
     <use x="982.445312" xlink:href="#DejaVuSans-49"/>
     <use x="1011.9375" xlink:href="#DejaVuSans-49"/>
    </g>
   </g>
  </g>
  <g id="axes_2">
   <g id="patch_7">
    <path d="M 439.2 255.744 
L 752.4 255.744 
L 752.4 69.12 
L 439.2 69.12 
z
" style="fill:#ffffff;"/>
   </g>
   <g id="matplotlib.axis_3">
    <g id="xtick_8">
     <g id="line2d_27">
      <path clip-path="url(#p5ac726feb0)" d="M 446.631935 255.744 
L 446.631935 69.12 
" style="fill:none;stroke:#ffffff;stroke-width:1.4;"/>
     </g>
     <g id="line2d_28"/>
    </g>
    <g id="xtick_9">
     <g id="line2d_29">
      <path clip-path="url(#p5ac726feb0)" d="M 491.834379 255.744 
L 491.834379 69.12 
" style="fill:none;stroke:#ffffff;stroke-width:1.4;"/>
     </g>
     <g id="line2d_30"/>
    </g>
    <g id="xtick_10">
     <g id="line2d_31">
      <path clip-path="url(#p5ac726feb0)" d="M 537.036823 255.744 
L 537.036823 69.12 
" style="fill:none;stroke:#ffffff;stroke-width:1.4;"/>
     </g>
     <g id="line2d_32"/>
    </g>
    <g id="xtick_11">
     <g id="line2d_33">
      <path clip-path="url(#p5ac726feb0)" d="M 582.239267 255.744 
L 582.239267 69.12 
" style="fill:none;stroke:#ffffff;stroke-width:1.4;"/>
     </g>
     <g id="line2d_34"/>
    </g>
    <g id="xtick_12">
     <g id="line2d_35">
      <path clip-path="url(#p5ac726feb0)" d="M 627.441711 255.744 
L 627.441711 69.12 
" style="fill:none;stroke:#ffffff;stroke-width:1.4;"/>
     </g>
     <g id="line2d_36"/>
    </g>
    <g id="xtick_13">
     <g id="line2d_37">
      <path clip-path="url(#p5ac726feb0)" d="M 672.644155 255.744 
L 672.644155 69.12 
" style="fill:none;stroke:#ffffff;stroke-width:1.4;"/>
     </g>
     <g id="line2d_38"/>
    </g>
    <g id="xtick_14">
     <g id="line2d_39">
      <path clip-path="url(#p5ac726feb0)" d="M 717.846599 255.744 
L 717.846599 69.12 
" style="fill:none;stroke:#ffffff;stroke-width:1.4;"/>
     </g>
     <g id="line2d_40"/>
    </g>
   </g>
   <g id="matplotlib.axis_4">
    <g id="ytick_7">
     <g id="line2d_41">
      <path clip-path="url(#p5ac726feb0)" d="M 439.2 245.028307 
L 752.4 245.028307 
" style="fill:none;stroke:#ffffff;stroke-width:1.4;"/>
     </g>
     <g id="line2d_42"/>
    </g>
    <g id="ytick_8">
     <g id="line2d_43">
      <path clip-path="url(#p5ac726feb0)" d="M 439.2 211.917479 
L 752.4 211.917479 
" style="fill:none;stroke:#ffffff;stroke-width:1.4;"/>
     </g>
     <g id="line2d_44"/>
    </g>
    <g id="ytick_9">
     <g id="line2d_45">
      <path clip-path="url(#p5ac726feb0)" d="M 439.2 178.806652 
L 752.4 178.806652 
" style="fill:none;stroke:#ffffff;stroke-width:1.4;"/>
     </g>
     <g id="line2d_46"/>
    </g>
    <g id="ytick_10">
     <g id="line2d_47">
      <path clip-path="url(#p5ac726feb0)" d="M 439.2 145.695824 
L 752.4 145.695824 
" style="fill:none;stroke:#ffffff;stroke-width:1.4;"/>
     </g>
     <g id="line2d_48"/>
    </g>
    <g id="ytick_11">
     <g id="line2d_49">
      <path clip-path="url(#p5ac726feb0)" d="M 439.2 112.584997 
L 752.4 112.584997 
" style="fill:none;stroke:#ffffff;stroke-width:1.4;"/>
     </g>
     <g id="line2d_50"/>
    </g>
    <g id="ytick_12">
     <g id="line2d_51">
      <path clip-path="url(#p5ac726feb0)" d="M 439.2 79.474169 
L 752.4 79.474169 
" style="fill:none;stroke:#ffffff;stroke-width:1.4;"/>
     </g>
     <g id="line2d_52"/>
    </g>
   </g>
   <g id="PathCollection_2">
    <defs>
     <path d="M 0 2.236068 
C 0.593012 2.236068 1.161816 2.000462 1.581139 1.581139 
C 2.000462 1.161816 2.236068 0.593012 2.236068 0 
C 2.236068 -0.593012 2.000462 -1.161816 1.581139 -1.581139 
C 1.161816 -2.000462 0.593012 -2.236068 0 -2.236068 
C -0.593012 -2.236068 -1.161816 -2.000462 -1.581139 -1.581139 
C -2.000462 -1.161816 -2.236068 -0.593012 -2.236068 0 
C -2.236068 0.593012 -2.000462 1.161816 -1.581139 1.581139 
C -1.161816 2.000462 -0.593012 2.236068 0 2.236068 
z
" id="C1_0_e0006460f3"/>
    </defs>
    <g clip-path="url(#p5ac726feb0)">
     <use style="fill:#d55e00;" x="455.672423" xlink:href="#C1_0_e0006460f3" y="132.375811"/>
    </g>
    <g clip-path="url(#p5ac726feb0)">
     <use style="fill:#d55e00;" x="464.712912" xlink:href="#C1_0_e0006460f3" y="117.826441"/>
    </g>
    <g clip-path="url(#p5ac726feb0)">
     <use style="fill:#d55e00;" x="473.753401" xlink:href="#C1_0_e0006460f3" y="129.433579"/>
    </g>
    <g clip-path="url(#p5ac726feb0)">
     <use style="fill:#d55e00;" x="482.79389" xlink:href="#C1_0_e0006460f3" y="165.315438"/>
    </g>
    <g clip-path="url(#p5ac726feb0)">
     <use style="fill:#d55e00;" x="491.834379" xlink:href="#C1_0_e0006460f3" y="155.063267"/>
    </g>
    <g clip-path="url(#p5ac726feb0)">
     <use style="fill:#d55e00;" x="500.874867" xlink:href="#C1_0_e0006460f3" y="116.719252"/>
    </g>
    <g clip-path="url(#p5ac726feb0)">
     <use style="fill:#d55e00;" x="509.915356" xlink:href="#C1_0_e0006460f3" y="141.204253"/>
    </g>
    <g clip-path="url(#p5ac726feb0)">
     <use style="fill:#d55e00;" x="518.955845" xlink:href="#C1_0_e0006460f3" y="139.341159"/>
    </g>
    <g clip-path="url(#p5ac726feb0)">
     <use style="fill:#d55e00;" x="527.996334" xlink:href="#C1_0_e0006460f3" y="158.221801"/>
    </g>
    <g clip-path="url(#p5ac726feb0)">
     <use style="fill:#d55e00;" x="537.036823" xlink:href="#C1_0_e0006460f3" y="106.949061"/>
    </g>
    <g clip-path="url(#p5ac726feb0)">
     <use style="fill:#d55e00;" x="546.077312" xlink:href="#C1_0_e0006460f3" y="116.558296"/>
    </g>
    <g clip-path="url(#p5ac726feb0)">
     <use style="fill:#d55e00;" x="555.1178" xlink:href="#C1_0_e0006460f3" y="118.78316"/>
    </g>
    <g clip-path="url(#p5ac726feb0)">
     <use style="fill:#d55e00;" x="564.158289" xlink:href="#C1_0_e0006460f3" y="114.611196"/>
    </g>
    <g clip-path="url(#p5ac726feb0)">
     <use style="fill:#d55e00;" x="573.198778" xlink:href="#C1_0_e0006460f3" y="107.501565"/>
    </g>
    <g clip-path="url(#p5ac726feb0)">
     <use style="fill:#d55e00;" x="582.239267" xlink:href="#C1_0_e0006460f3" y="218.576619"/>
    </g>
    <g clip-path="url(#p5ac726feb0)">
     <use style="fill:#d55e00;" x="591.279756" xlink:href="#C1_0_e0006460f3" y="126.906349"/>
    </g>
    <g clip-path="url(#p5ac726feb0)">
     <use style="fill:#d55e00;" x="600.320244" xlink:href="#C1_0_e0006460f3" y="116.855422"/>
    </g>
    <g clip-path="url(#p5ac726feb0)">
     <use style="fill:#d55e00;" x="609.360733" xlink:href="#C1_0_e0006460f3" y="117.105599"/>
    </g>
    <g clip-path="url(#p5ac726feb0)">
     <use style="fill:#d55e00;" x="618.401222" xlink:href="#C1_0_e0006460f3" y="135.403324"/>
    </g>
    <g clip-path="url(#p5ac726feb0)">
     <use style="fill:#d55e00;" x="627.441711" xlink:href="#C1_0_e0006460f3" y="106.323739"/>
    </g>
    <g clip-path="url(#p5ac726feb0)">
     <use style="fill:#d55e00;" x="636.4822" xlink:href="#C1_0_e0006460f3" y="119.372795"/>
    </g>
    <g clip-path="url(#p5ac726feb0)">
     <use style="fill:#d55e00;" x="645.522688" xlink:href="#C1_0_e0006460f3" y="163.330825"/>
    </g>
    <g clip-path="url(#p5ac726feb0)">
     <use style="fill:#d55e00;" x="654.563177" xlink:href="#C1_0_e0006460f3" y="173.080318"/>
    </g>
    <g clip-path="url(#p5ac726feb0)">
     <use style="fill:#d55e00;" x="663.603666" xlink:href="#C1_0_e0006460f3" y="137.500303"/>
    </g>
    <g clip-path="url(#p5ac726feb0)">
     <use style="fill:#d55e00;" x="672.644155" xlink:href="#C1_0_e0006460f3" y="167.009043"/>
    </g>
    <g clip-path="url(#p5ac726feb0)">
     <use style="fill:#d55e00;" x="681.684644" xlink:href="#C1_0_e0006460f3" y="160.979058"/>
    </g>
    <g clip-path="url(#p5ac726feb0)">
     <use style="fill:#d55e00;" x="690.725133" xlink:href="#C1_0_e0006460f3" y="180.301813"/>
    </g>
    <g clip-path="url(#p5ac726feb0)">
     <use style="fill:#d55e00;" x="699.765621" xlink:href="#C1_0_e0006460f3" y="218.931707"/>
    </g>
    <g clip-path="url(#p5ac726feb0)">
     <use style="fill:#d55e00;" x="708.80611" xlink:href="#C1_0_e0006460f3" y="172.672119"/>
    </g>
    <g clip-path="url(#p5ac726feb0)">
     <use style="fill:#d55e00;" x="717.846599" xlink:href="#C1_0_e0006460f3" y="190.070446"/>
    </g>
    <g clip-path="url(#p5ac726feb0)">
     <use style="fill:#d55e00;" x="726.887088" xlink:href="#C1_0_e0006460f3" y="165.340478"/>
    </g>
    <g clip-path="url(#p5ac726feb0)">
     <use style="fill:#d55e00;" x="735.927577" xlink:href="#C1_0_e0006460f3" y="209.680133"/>
    </g>
   </g>
   <g id="patch_8">
    <path d="M 439.2 255.744 
L 439.2 69.12 
" style="fill:none;stroke:#bcbcbc;stroke-linecap:square;stroke-linejoin:miter;"/>
   </g>
   <g id="patch_9">
    <path d="M 752.4 255.744 
L 752.4 69.12 
" style="fill:none;stroke:#bcbcbc;stroke-linecap:square;stroke-linejoin:miter;"/>
   </g>
   <g id="patch_10">
    <path d="M 439.2 255.744 
L 752.4 255.744 
" style="fill:none;stroke:#bcbcbc;stroke-linecap:square;stroke-linejoin:miter;"/>
   </g>
   <g id="patch_11">
    <path d="M 439.2 69.12 
L 752.4 69.12 
" style="fill:none;stroke:#bcbcbc;stroke-linecap:square;stroke-linejoin:miter;"/>
   </g>
   <g id="text_8">
    <!-- Military -->
    <defs>
     <path d="M 9.8125 72.90625 
L 24.515625 72.90625 
L 43.109375 23.296875 
L 61.8125 72.90625 
L 76.515625 72.90625 
L 76.515625 0 
L 66.890625 0 
L 66.890625 64.015625 
L 48.09375 14.015625 
L 38.1875 14.015625 
L 19.390625 64.015625 
L 19.390625 0 
L 9.8125 0 
z
" id="DejaVuSans-4d"/>
     <path d="M 18.3125 70.21875 
L 18.3125 54.6875 
L 36.8125 54.6875 
L 36.8125 47.703125 
L 18.3125 47.703125 
L 18.3125 18.015625 
Q 18.3125 11.328125 20.140625 9.421875 
Q 21.96875 7.515625 27.59375 7.515625 
L 36.8125 7.515625 
L 36.8125 0 
L 27.59375 0 
Q 17.1875 0 13.234375 3.875 
Q 9.28125 7.765625 9.28125 18.015625 
L 9.28125 47.703125 
L 2.6875 47.703125 
L 2.6875 54.6875 
L 9.28125 54.6875 
L 9.28125 70.21875 
z
" id="DejaVuSans-74"/>
     <path d="M 32.171875 -5.078125 
Q 28.375 -14.84375 24.75 -17.8125 
Q 21.140625 -20.796875 15.09375 -20.796875 
L 7.90625 -20.796875 
L 7.90625 -13.28125 
L 13.1875 -13.28125 
Q 16.890625 -13.28125 18.9375 -11.515625 
Q 21 -9.765625 23.484375 -3.21875 
L 25.09375 0.875 
L 2.984375 54.6875 
L 12.5 54.6875 
L 29.59375 11.921875 
L 46.6875 54.6875 
L 56.203125 54.6875 
z
" id="DejaVuSans-79"/>
    </defs>
    <g transform="translate(577.279687 63.12)scale(0.1 -0.1)">
     <use xlink:href="#DejaVuSans-4d"/>
     <use x="86.279297" xlink:href="#DejaVuSans-69"/>
     <use x="114.0625" xlink:href="#DejaVuSans-6c"/>
     <use x="141.845703" xlink:href="#DejaVuSans-69"/>
     <use x="169.628906" xlink:href="#DejaVuSans-74"/>
     <use x="208.837891" xlink:href="#DejaVuSans-61"/>
     <use x="270.117188" xlink:href="#DejaVuSans-72"/>
     <use x="311.230469" xlink:href="#DejaVuSans-79"/>
    </g>
   </g>
   <g id="legend_1"/>
  </g>
  <g id="axes_3">
   <g id="patch_12">
    <path d="M 63.36 535.68 
L 376.56 535.68 
L 376.56 349.056 
L 63.36 349.056 
z
" style="fill:#ffffff;"/>
   </g>
   <g id="matplotlib.axis_5">
    <g id="xtick_15">
     <g id="line2d_53">
      <path clip-path="url(#pf5f3637522)" d="M 70.791935 535.68 
L 70.791935 349.056 
" style="fill:none;stroke:#ffffff;stroke-width:1.4;"/>
     </g>
     <g id="line2d_54"/>
     <g id="text_9">
      <!-- 0 -->
      <g style="fill:#7f7f7f;" transform="translate(66.974435 550.798125)scale(0.12 -0.12)">
       <use xlink:href="#DejaVuSans-30"/>
      </g>
     </g>
    </g>
    <g id="xtick_16">
     <g id="line2d_55">
      <path clip-path="url(#pf5f3637522)" d="M 115.994379 535.68 
L 115.994379 349.056 
" style="fill:none;stroke:#ffffff;stroke-width:1.4;"/>
     </g>
     <g id="line2d_56"/>
     <g id="text_10">
      <!-- 5 -->
      <defs>
       <path d="M 10.796875 72.90625 
L 49.515625 72.90625 
L 49.515625 64.59375 
L 19.828125 64.59375 
L 19.828125 46.734375 
Q 21.96875 47.46875 24.109375 47.828125 
Q 26.265625 48.1875 28.421875 48.1875 
Q 40.625 48.1875 47.75 41.5 
Q 54.890625 34.8125 54.890625 23.390625 
Q 54.890625 11.625 47.5625 5.09375 
Q 40.234375 -1.421875 26.90625 -1.421875 
Q 22.3125 -1.421875 17.546875 -0.640625 
Q 12.796875 0.140625 7.71875 1.703125 
L 7.71875 11.625 
Q 12.109375 9.234375 16.796875 8.0625 
Q 21.484375 6.890625 26.703125 6.890625 
Q 35.15625 6.890625 40.078125 11.328125 
Q 45.015625 15.765625 45.015625 23.390625 
Q 45.015625 31 40.078125 35.4375 
Q 35.15625 39.890625 26.703125 39.890625 
Q 22.75 39.890625 18.8125 39.015625 
Q 14.890625 38.140625 10.796875 36.28125 
z
" id="DejaVuSans-35"/>
      </defs>
      <g style="fill:#7f7f7f;" transform="translate(112.176879 550.798125)scale(0.12 -0.12)">
       <use xlink:href="#DejaVuSans-35"/>
      </g>
     </g>
    </g>
    <g id="xtick_17">
     <g id="line2d_57">
      <path clip-path="url(#pf5f3637522)" d="M 161.196823 535.68 
L 161.196823 349.056 
" style="fill:none;stroke:#ffffff;stroke-width:1.4;"/>
     </g>
     <g id="line2d_58"/>
     <g id="text_11">
      <!-- 10 -->
      <g style="fill:#7f7f7f;" transform="translate(153.561823 550.798125)scale(0.12 -0.12)">
       <use xlink:href="#DejaVuSans-31"/>
       <use x="63.623047" xlink:href="#DejaVuSans-30"/>
      </g>
     </g>
    </g>
    <g id="xtick_18">
     <g id="line2d_59">
      <path clip-path="url(#pf5f3637522)" d="M 206.399267 535.68 
L 206.399267 349.056 
" style="fill:none;stroke:#ffffff;stroke-width:1.4;"/>
     </g>
     <g id="line2d_60"/>
     <g id="text_12">
      <!-- 15 -->
      <g style="fill:#7f7f7f;" transform="translate(198.764267 550.798125)scale(0.12 -0.12)">
       <use xlink:href="#DejaVuSans-31"/>
       <use x="63.623047" xlink:href="#DejaVuSans-35"/>
      </g>
     </g>
    </g>
    <g id="xtick_19">
     <g id="line2d_61">
      <path clip-path="url(#pf5f3637522)" d="M 251.601711 535.68 
L 251.601711 349.056 
" style="fill:none;stroke:#ffffff;stroke-width:1.4;"/>
     </g>
     <g id="line2d_62"/>
     <g id="text_13">
      <!-- 20 -->
      <g style="fill:#7f7f7f;" transform="translate(243.966711 550.798125)scale(0.12 -0.12)">
       <use xlink:href="#DejaVuSans-32"/>
       <use x="63.623047" xlink:href="#DejaVuSans-30"/>
      </g>
     </g>
    </g>
    <g id="xtick_20">
     <g id="line2d_63">
      <path clip-path="url(#pf5f3637522)" d="M 296.804155 535.68 
L 296.804155 349.056 
" style="fill:none;stroke:#ffffff;stroke-width:1.4;"/>
     </g>
     <g id="line2d_64"/>
     <g id="text_14">
      <!-- 25 -->
      <g style="fill:#7f7f7f;" transform="translate(289.169155 550.798125)scale(0.12 -0.12)">
       <use xlink:href="#DejaVuSans-32"/>
       <use x="63.623047" xlink:href="#DejaVuSans-35"/>
      </g>
     </g>
    </g>
    <g id="xtick_21">
     <g id="line2d_65">
      <path clip-path="url(#pf5f3637522)" d="M 342.006599 535.68 
L 342.006599 349.056 
" style="fill:none;stroke:#ffffff;stroke-width:1.4;"/>
     </g>
     <g id="line2d_66"/>
     <g id="text_15">
      <!-- 30 -->
      <defs>
       <path d="M 40.578125 39.3125 
Q 47.65625 37.796875 51.625 33 
Q 55.609375 28.21875 55.609375 21.1875 
Q 55.609375 10.40625 48.1875 4.484375 
Q 40.765625 -1.421875 27.09375 -1.421875 
Q 22.515625 -1.421875 17.65625 -0.515625 
Q 12.796875 0.390625 7.625 2.203125 
L 7.625 11.71875 
Q 11.71875 9.328125 16.59375 8.109375 
Q 21.484375 6.890625 26.8125 6.890625 
Q 36.078125 6.890625 40.9375 10.546875 
Q 45.796875 14.203125 45.796875 21.1875 
Q 45.796875 27.640625 41.28125 31.265625 
Q 36.765625 34.90625 28.71875 34.90625 
L 20.21875 34.90625 
L 20.21875 43.015625 
L 29.109375 43.015625 
Q 36.375 43.015625 40.234375 45.921875 
Q 44.09375 48.828125 44.09375 54.296875 
Q 44.09375 59.90625 40.109375 62.90625 
Q 36.140625 65.921875 28.71875 65.921875 
Q 24.65625 65.921875 20.015625 65.03125 
Q 15.375 64.15625 9.8125 62.3125 
L 9.8125 71.09375 
Q 15.4375 72.65625 20.34375 73.4375 
Q 25.25 74.21875 29.59375 74.21875 
Q 40.828125 74.21875 47.359375 69.109375 
Q 53.90625 64.015625 53.90625 55.328125 
Q 53.90625 49.265625 50.4375 45.09375 
Q 46.96875 40.921875 40.578125 39.3125 
z
" id="DejaVuSans-33"/>
      </defs>
      <g style="fill:#7f7f7f;" transform="translate(334.371599 550.798125)scale(0.12 -0.12)">
       <use xlink:href="#DejaVuSans-33"/>
       <use x="63.623047" xlink:href="#DejaVuSans-30"/>
      </g>
     </g>
    </g>
   </g>
   <g id="matplotlib.axis_6">
    <g id="ytick_13">
     <g id="line2d_67">
      <path clip-path="url(#pf5f3637522)" d="M 63.36 524.964307 
L 376.56 524.964307 
" style="fill:none;stroke:#ffffff;stroke-width:1.4;"/>
     </g>
     <g id="line2d_68"/>
     <g id="text_16">
      <!-- 0.0 -->
      <g style="fill:#7f7f7f;" transform="translate(38.27625 529.523369)scale(0.12 -0.12)">
       <use xlink:href="#DejaVuSans-30"/>
       <use x="63.623047" xlink:href="#DejaVuSans-2e"/>
       <use x="95.410156" xlink:href="#DejaVuSans-30"/>
      </g>
     </g>
    </g>
    <g id="ytick_14">
     <g id="line2d_69">
      <path clip-path="url(#pf5f3637522)" d="M 63.36 491.853479 
L 376.56 491.853479 
" style="fill:none;stroke:#ffffff;stroke-width:1.4;"/>
     </g>
     <g id="line2d_70"/>
     <g id="text_17">
      <!-- 0.2 -->
      <g style="fill:#7f7f7f;" transform="translate(38.27625 496.412542)scale(0.12 -0.12)">
       <use xlink:href="#DejaVuSans-30"/>
       <use x="63.623047" xlink:href="#DejaVuSans-2e"/>
       <use x="95.410156" xlink:href="#DejaVuSans-32"/>
      </g>
     </g>
    </g>
    <g id="ytick_15">
     <g id="line2d_71">
      <path clip-path="url(#pf5f3637522)" d="M 63.36 458.742652 
L 376.56 458.742652 
" style="fill:none;stroke:#ffffff;stroke-width:1.4;"/>
     </g>
     <g id="line2d_72"/>
     <g id="text_18">
      <!-- 0.4 -->
      <g style="fill:#7f7f7f;" transform="translate(38.27625 463.301714)scale(0.12 -0.12)">
       <use xlink:href="#DejaVuSans-30"/>
       <use x="63.623047" xlink:href="#DejaVuSans-2e"/>
       <use x="95.410156" xlink:href="#DejaVuSans-34"/>
      </g>
     </g>
    </g>
    <g id="ytick_16">
     <g id="line2d_73">
      <path clip-path="url(#pf5f3637522)" d="M 63.36 425.631824 
L 376.56 425.631824 
" style="fill:none;stroke:#ffffff;stroke-width:1.4;"/>
     </g>
     <g id="line2d_74"/>
     <g id="text_19">
      <!-- 0.6 -->
      <g style="fill:#7f7f7f;" transform="translate(38.27625 430.190887)scale(0.12 -0.12)">
       <use xlink:href="#DejaVuSans-30"/>
       <use x="63.623047" xlink:href="#DejaVuSans-2e"/>
       <use x="95.410156" xlink:href="#DejaVuSans-36"/>
      </g>
     </g>
    </g>
    <g id="ytick_17">
     <g id="line2d_75">
      <path clip-path="url(#pf5f3637522)" d="M 63.36 392.520997 
L 376.56 392.520997 
" style="fill:none;stroke:#ffffff;stroke-width:1.4;"/>
     </g>
     <g id="line2d_76"/>
     <g id="text_20">
      <!-- 0.8 -->
      <g style="fill:#7f7f7f;" transform="translate(38.27625 397.080059)scale(0.12 -0.12)">
       <use xlink:href="#DejaVuSans-30"/>
       <use x="63.623047" xlink:href="#DejaVuSans-2e"/>
       <use x="95.410156" xlink:href="#DejaVuSans-38"/>
      </g>
     </g>
    </g>
    <g id="ytick_18">
     <g id="line2d_77">
      <path clip-path="url(#pf5f3637522)" d="M 63.36 359.410169 
L 376.56 359.410169 
" style="fill:none;stroke:#ffffff;stroke-width:1.4;"/>
     </g>
     <g id="line2d_78"/>
     <g id="text_21">
      <!-- 1.0 -->
      <g style="fill:#7f7f7f;" transform="translate(38.27625 363.969232)scale(0.12 -0.12)">
       <use xlink:href="#DejaVuSans-31"/>
       <use x="63.623047" xlink:href="#DejaVuSans-2e"/>
       <use x="95.410156" xlink:href="#DejaVuSans-30"/>
      </g>
     </g>
    </g>
   </g>
   <g id="PathCollection_3">
    <defs>
     <path d="M 0 2.236068 
C 0.593012 2.236068 1.161816 2.000462 1.581139 1.581139 
C 2.000462 1.161816 2.236068 0.593012 2.236068 0 
C 2.236068 -0.593012 2.000462 -1.161816 1.581139 -1.581139 
C 1.161816 -2.000462 0.593012 -2.236068 0 -2.236068 
C -0.593012 -2.236068 -1.161816 -2.000462 -1.581139 -1.581139 
C -2.000462 -1.161816 -2.236068 -0.593012 -2.236068 0 
C -2.236068 0.593012 -2.000462 1.161816 -1.581139 1.581139 
C -1.161816 2.000462 -0.593012 2.236068 0 2.236068 
z
" id="C2_0_ae17aacacd"/>
    </defs>
    <g clip-path="url(#pf5f3637522)">
     <use style="fill:#d55e00;" x="79.832423" xlink:href="#C2_0_ae17aacacd" y="524.964307"/>
    </g>
    <g clip-path="url(#pf5f3637522)">
     <use style="fill:#d55e00;" x="88.872912" xlink:href="#C2_0_ae17aacacd" y="524.964307"/>
    </g>
    <g clip-path="url(#pf5f3637522)">
     <use style="fill:#d55e00;" x="97.913401" xlink:href="#C2_0_ae17aacacd" y="366.379999"/>
    </g>
    <g clip-path="url(#pf5f3637522)">
     <use style="fill:#d55e00;" x="106.95389" xlink:href="#C2_0_ae17aacacd" y="359.410169"/>
    </g>
    <g clip-path="url(#pf5f3637522)">
     <use style="fill:#d55e00;" x="115.994379" xlink:href="#C2_0_ae17aacacd" y="359.410169"/>
    </g>
    <g clip-path="url(#pf5f3637522)">
     <use style="fill:#d55e00;" x="125.034867" xlink:href="#C2_0_ae17aacacd" y="524.964307"/>
    </g>
    <g clip-path="url(#pf5f3637522)">
     <use style="fill:#d55e00;" x="134.075356" xlink:href="#C2_0_ae17aacacd" y="524.964307"/>
    </g>
    <g clip-path="url(#pf5f3637522)">
     <use style="fill:#d55e00;" x="143.115845" xlink:href="#C2_0_ae17aacacd" y="524.964307"/>
    </g>
    <g clip-path="url(#pf5f3637522)">
     <use style="fill:#d55e00;" x="152.156334" xlink:href="#C2_0_ae17aacacd" y="524.964307"/>
    </g>
    <g clip-path="url(#pf5f3637522)">
     <use style="fill:#d55e00;" x="161.196823" xlink:href="#C2_0_ae17aacacd" y="524.964307"/>
    </g>
    <g clip-path="url(#pf5f3637522)">
     <use style="fill:#d55e00;" x="170.237312" xlink:href="#C2_0_ae17aacacd" y="524.964307"/>
    </g>
    <g clip-path="url(#pf5f3637522)">
     <use style="fill:#d55e00;" x="179.2778" xlink:href="#C2_0_ae17aacacd" y="524.964307"/>
    </g>
    <g clip-path="url(#pf5f3637522)">
     <use style="fill:#d55e00;" x="188.318289" xlink:href="#C2_0_ae17aacacd" y="524.964307"/>
    </g>
    <g clip-path="url(#pf5f3637522)">
     <use style="fill:#d55e00;" x="197.358778" xlink:href="#C2_0_ae17aacacd" y="524.964307"/>
    </g>
    <g clip-path="url(#pf5f3637522)">
     <use style="fill:#d55e00;" x="206.399267" xlink:href="#C2_0_ae17aacacd" y="524.964307"/>
    </g>
    <g clip-path="url(#pf5f3637522)">
     <use style="fill:#d55e00;" x="215.439756" xlink:href="#C2_0_ae17aacacd" y="524.964307"/>
    </g>
    <g clip-path="url(#pf5f3637522)">
     <use style="fill:#d55e00;" x="224.480244" xlink:href="#C2_0_ae17aacacd" y="524.964307"/>
    </g>
    <g clip-path="url(#pf5f3637522)">
     <use style="fill:#d55e00;" x="233.520733" xlink:href="#C2_0_ae17aacacd" y="524.964307"/>
    </g>
    <g clip-path="url(#pf5f3637522)">
     <use style="fill:#d55e00;" x="242.561222" xlink:href="#C2_0_ae17aacacd" y="524.964307"/>
    </g>
    <g clip-path="url(#pf5f3637522)">
     <use style="fill:#d55e00;" x="251.601711" xlink:href="#C2_0_ae17aacacd" y="524.964307"/>
    </g>
    <g clip-path="url(#pf5f3637522)">
     <use style="fill:#d55e00;" x="260.6422" xlink:href="#C2_0_ae17aacacd" y="524.964307"/>
    </g>
    <g clip-path="url(#pf5f3637522)">
     <use style="fill:#d55e00;" x="269.682688" xlink:href="#C2_0_ae17aacacd" y="364.774123"/>
    </g>
    <g clip-path="url(#pf5f3637522)">
     <use style="fill:#d55e00;" x="278.723177" xlink:href="#C2_0_ae17aacacd" y="524.964307"/>
    </g>
    <g clip-path="url(#pf5f3637522)">
     <use style="fill:#d55e00;" x="287.763666" xlink:href="#C2_0_ae17aacacd" y="524.964307"/>
    </g>
    <g clip-path="url(#pf5f3637522)">
     <use style="fill:#d55e00;" x="296.804155" xlink:href="#C2_0_ae17aacacd" y="359.410169"/>
    </g>
    <g clip-path="url(#pf5f3637522)">
     <use style="fill:#d55e00;" x="305.844644" xlink:href="#C2_0_ae17aacacd" y="524.964307"/>
    </g>
    <g clip-path="url(#pf5f3637522)">
     <use style="fill:#d55e00;" x="314.885133" xlink:href="#C2_0_ae17aacacd" y="524.964307"/>
    </g>
    <g clip-path="url(#pf5f3637522)">
     <use style="fill:#d55e00;" x="323.925621" xlink:href="#C2_0_ae17aacacd" y="444.620884"/>
    </g>
    <g clip-path="url(#pf5f3637522)">
     <use style="fill:#d55e00;" x="332.96611" xlink:href="#C2_0_ae17aacacd" y="524.964307"/>
    </g>
    <g clip-path="url(#pf5f3637522)">
     <use style="fill:#d55e00;" x="342.006599" xlink:href="#C2_0_ae17aacacd" y="524.964307"/>
    </g>
    <g clip-path="url(#pf5f3637522)">
     <use style="fill:#d55e00;" x="351.047088" xlink:href="#C2_0_ae17aacacd" y="524.964307"/>
    </g>
    <g clip-path="url(#pf5f3637522)">
     <use style="fill:#d55e00;" x="360.087577" xlink:href="#C2_0_ae17aacacd" y="524.964307"/>
    </g>
   </g>
   <g id="patch_13">
    <path d="M 63.36 535.68 
L 63.36 349.056 
" style="fill:none;stroke:#bcbcbc;stroke-linecap:square;stroke-linejoin:miter;"/>
   </g>
   <g id="patch_14">
    <path d="M 376.56 535.68 
L 376.56 349.056 
" style="fill:none;stroke:#bcbcbc;stroke-linecap:square;stroke-linejoin:miter;"/>
   </g>
   <g id="patch_15">
    <path d="M 63.36 535.68 
L 376.56 535.68 
" style="fill:none;stroke:#bcbcbc;stroke-linecap:square;stroke-linejoin:miter;"/>
   </g>
   <g id="patch_16">
    <path d="M 63.36 349.056 
L 376.56 349.056 
" style="fill:none;stroke:#bcbcbc;stroke-linecap:square;stroke-linejoin:miter;"/>
   </g>
   <g id="text_22">
    <!-- Roy Brown (RAF officer) -->
    <defs>
     <path d="M 44.390625 34.1875 
Q 47.5625 33.109375 50.5625 29.59375 
Q 53.5625 26.078125 56.59375 19.921875 
L 66.609375 0 
L 56 0 
L 46.6875 18.703125 
Q 43.0625 26.03125 39.671875 28.421875 
Q 36.28125 30.8125 30.421875 30.8125 
L 19.671875 30.8125 
L 19.671875 0 
L 9.8125 0 
L 9.8125 72.90625 
L 32.078125 72.90625 
Q 44.578125 72.90625 50.734375 67.671875 
Q 56.890625 62.453125 56.890625 51.90625 
Q 56.890625 45.015625 53.6875 40.46875 
Q 50.484375 35.9375 44.390625 34.1875 
z
M 19.671875 64.796875 
L 19.671875 38.921875 
L 32.078125 38.921875 
Q 39.203125 38.921875 42.84375 42.21875 
Q 46.484375 45.515625 46.484375 51.90625 
Q 46.484375 58.296875 42.84375 61.546875 
Q 39.203125 64.796875 32.078125 64.796875 
z
" id="DejaVuSans-52"/>
     <path d="M 19.671875 34.8125 
L 19.671875 8.109375 
L 35.5 8.109375 
Q 43.453125 8.109375 47.28125 11.40625 
Q 51.125 14.703125 51.125 21.484375 
Q 51.125 28.328125 47.28125 31.5625 
Q 43.453125 34.8125 35.5 34.8125 
z
M 19.671875 64.796875 
L 19.671875 42.828125 
L 34.28125 42.828125 
Q 41.5 42.828125 45.03125 45.53125 
Q 48.578125 48.25 48.578125 53.8125 
Q 48.578125 59.328125 45.03125 62.0625 
Q 41.5 64.796875 34.28125 64.796875 
z
M 9.8125 72.90625 
L 35.015625 72.90625 
Q 46.296875 72.90625 52.390625 68.21875 
Q 58.5 63.53125 58.5 54.890625 
Q 58.5 48.1875 55.375 44.234375 
Q 52.25 40.28125 46.1875 39.3125 
Q 53.46875 37.75 57.5 32.78125 
Q 61.53125 27.828125 61.53125 20.40625 
Q 61.53125 10.640625 54.890625 5.3125 
Q 48.25 0 35.984375 0 
L 9.8125 0 
z
" id="DejaVuSans-42"/>
     <path d="M 4.203125 54.6875 
L 13.1875 54.6875 
L 24.421875 12.015625 
L 35.59375 54.6875 
L 46.1875 54.6875 
L 57.421875 12.015625 
L 68.609375 54.6875 
L 77.59375 54.6875 
L 63.28125 0 
L 52.6875 0 
L 40.921875 44.828125 
L 29.109375 0 
L 18.5 0 
z
" id="DejaVuSans-77"/>
     <path d="M 54.890625 33.015625 
L 54.890625 0 
L 45.90625 0 
L 45.90625 32.71875 
Q 45.90625 40.484375 42.875 44.328125 
Q 39.84375 48.1875 33.796875 48.1875 
Q 26.515625 48.1875 22.3125 43.546875 
Q 18.109375 38.921875 18.109375 30.90625 
L 18.109375 0 
L 9.078125 0 
L 9.078125 54.6875 
L 18.109375 54.6875 
L 18.109375 46.1875 
Q 21.34375 51.125 25.703125 53.5625 
Q 30.078125 56 35.796875 56 
Q 45.21875 56 50.046875 50.171875 
Q 54.890625 44.34375 54.890625 33.015625 
z
" id="DejaVuSans-6e"/>
     <path d="M 31 75.875 
Q 24.46875 64.65625 21.28125 53.65625 
Q 18.109375 42.671875 18.109375 31.390625 
Q 18.109375 20.125 21.3125 9.0625 
Q 24.515625 -2 31 -13.1875 
L 23.1875 -13.1875 
Q 15.875 -1.703125 12.234375 9.375 
Q 8.59375 20.453125 8.59375 31.390625 
Q 8.59375 42.28125 12.203125 53.3125 
Q 15.828125 64.359375 23.1875 75.875 
z
" id="DejaVuSans-28"/>
     <path d="M 9.8125 72.90625 
L 51.703125 72.90625 
L 51.703125 64.59375 
L 19.671875 64.59375 
L 19.671875 43.109375 
L 48.578125 43.109375 
L 48.578125 34.8125 
L 19.671875 34.8125 
L 19.671875 0 
L 9.8125 0 
z
" id="DejaVuSans-46"/>
     <path d="M 48.78125 52.59375 
L 48.78125 44.1875 
Q 44.96875 46.296875 41.140625 47.34375 
Q 37.3125 48.390625 33.40625 48.390625 
Q 24.65625 48.390625 19.8125 42.84375 
Q 14.984375 37.3125 14.984375 27.296875 
Q 14.984375 17.28125 19.8125 11.734375 
Q 24.65625 6.203125 33.40625 6.203125 
Q 37.3125 6.203125 41.140625 7.25 
Q 44.96875 8.296875 48.78125 10.40625 
L 48.78125 2.09375 
Q 45.015625 0.34375 40.984375 -0.53125 
Q 36.96875 -1.421875 32.421875 -1.421875 
Q 20.0625 -1.421875 12.78125 6.34375 
Q 5.515625 14.109375 5.515625 27.296875 
Q 5.515625 40.671875 12.859375 48.328125 
Q 20.21875 56 33.015625 56 
Q 37.15625 56 41.109375 55.140625 
Q 45.0625 54.296875 48.78125 52.59375 
z
" id="DejaVuSans-63"/>
     <path d="M 8.015625 75.875 
L 15.828125 75.875 
Q 23.140625 64.359375 26.78125 53.3125 
Q 30.421875 42.28125 30.421875 31.390625 
Q 30.421875 20.453125 26.78125 9.375 
Q 23.140625 -1.703125 15.828125 -13.1875 
L 8.015625 -13.1875 
Q 14.5 -2 17.703125 9.0625 
Q 20.90625 20.125 20.90625 31.390625 
Q 20.90625 42.671875 17.703125 53.65625 
Q 14.5 64.65625 8.015625 75.875 
z
" id="DejaVuSans-29"/>
    </defs>
    <g transform="translate(160.382656 343.056)scale(0.1 -0.1)">
     <use xlink:href="#DejaVuSans-52"/>
     <use x="69.419922" xlink:href="#DejaVuSans-6f"/>
     <use x="130.601562" xlink:href="#DejaVuSans-79"/>
     <use x="189.78125" xlink:href="#DejaVuSans-20"/>
     <use x="221.568359" xlink:href="#DejaVuSans-42"/>
     <use x="290.171875" xlink:href="#DejaVuSans-72"/>
     <use x="331.253906" xlink:href="#DejaVuSans-6f"/>
     <use x="392.435547" xlink:href="#DejaVuSans-77"/>
     <use x="474.222656" xlink:href="#DejaVuSans-6e"/>
     <use x="537.601562" xlink:href="#DejaVuSans-20"/>
     <use x="569.388672" xlink:href="#DejaVuSans-28"/>
     <use x="608.402344" xlink:href="#DejaVuSans-52"/>
     <use x="677.822266" xlink:href="#DejaVuSans-41"/>
     <use x="746.230469" xlink:href="#DejaVuSans-46"/>
     <use x="803.75" xlink:href="#DejaVuSans-20"/>
     <use x="835.537109" xlink:href="#DejaVuSans-6f"/>
     <use x="896.71875" xlink:href="#DejaVuSans-66"/>
     <use x="931.923828" xlink:href="#DejaVuSans-66"/>
     <use x="967.128906" xlink:href="#DejaVuSans-69"/>
     <use x="994.912109" xlink:href="#DejaVuSans-63"/>
     <use x="1049.892578" xlink:href="#DejaVuSans-65"/>
     <use x="1111.416016" xlink:href="#DejaVuSans-72"/>
     <use x="1152.529297" xlink:href="#DejaVuSans-29"/>
    </g>
   </g>
  </g>
  <g id="axes_4">
   <g id="patch_17">
    <path d="M 439.2 535.68 
L 752.4 535.68 
L 752.4 349.056 
L 439.2 349.056 
z
" style="fill:#ffffff;"/>
   </g>
   <g id="matplotlib.axis_7">
    <g id="xtick_22">
     <g id="line2d_79">
      <path clip-path="url(#p0952ab2c80)" d="M 446.631935 535.68 
L 446.631935 349.056 
" style="fill:none;stroke:#ffffff;stroke-width:1.4;"/>
     </g>
     <g id="line2d_80"/>
     <g id="text_23">
      <!-- 0 -->
      <g style="fill:#7f7f7f;" transform="translate(442.814435 550.798125)scale(0.12 -0.12)">
       <use xlink:href="#DejaVuSans-30"/>
      </g>
     </g>
    </g>
    <g id="xtick_23">
     <g id="line2d_81">
      <path clip-path="url(#p0952ab2c80)" d="M 491.834379 535.68 
L 491.834379 349.056 
" style="fill:none;stroke:#ffffff;stroke-width:1.4;"/>
     </g>
     <g id="line2d_82"/>
     <g id="text_24">
      <!-- 5 -->
      <g style="fill:#7f7f7f;" transform="translate(488.016879 550.798125)scale(0.12 -0.12)">
       <use xlink:href="#DejaVuSans-35"/>
      </g>
     </g>
    </g>
    <g id="xtick_24">
     <g id="line2d_83">
      <path clip-path="url(#p0952ab2c80)" d="M 537.036823 535.68 
L 537.036823 349.056 
" style="fill:none;stroke:#ffffff;stroke-width:1.4;"/>
     </g>
     <g id="line2d_84"/>
     <g id="text_25">
      <!-- 10 -->
      <g style="fill:#7f7f7f;" transform="translate(529.401823 550.798125)scale(0.12 -0.12)">
       <use xlink:href="#DejaVuSans-31"/>
       <use x="63.623047" xlink:href="#DejaVuSans-30"/>
      </g>
     </g>
    </g>
    <g id="xtick_25">
     <g id="line2d_85">
      <path clip-path="url(#p0952ab2c80)" d="M 582.239267 535.68 
L 582.239267 349.056 
" style="fill:none;stroke:#ffffff;stroke-width:1.4;"/>
     </g>
     <g id="line2d_86"/>
     <g id="text_26">
      <!-- 15 -->
      <g style="fill:#7f7f7f;" transform="translate(574.604267 550.798125)scale(0.12 -0.12)">
       <use xlink:href="#DejaVuSans-31"/>
       <use x="63.623047" xlink:href="#DejaVuSans-35"/>
      </g>
     </g>
    </g>
    <g id="xtick_26">
     <g id="line2d_87">
      <path clip-path="url(#p0952ab2c80)" d="M 627.441711 535.68 
L 627.441711 349.056 
" style="fill:none;stroke:#ffffff;stroke-width:1.4;"/>
     </g>
     <g id="line2d_88"/>
     <g id="text_27">
      <!-- 20 -->
      <g style="fill:#7f7f7f;" transform="translate(619.806711 550.798125)scale(0.12 -0.12)">
       <use xlink:href="#DejaVuSans-32"/>
       <use x="63.623047" xlink:href="#DejaVuSans-30"/>
      </g>
     </g>
    </g>
    <g id="xtick_27">
     <g id="line2d_89">
      <path clip-path="url(#p0952ab2c80)" d="M 672.644155 535.68 
L 672.644155 349.056 
" style="fill:none;stroke:#ffffff;stroke-width:1.4;"/>
     </g>
     <g id="line2d_90"/>
     <g id="text_28">
      <!-- 25 -->
      <g style="fill:#7f7f7f;" transform="translate(665.009155 550.798125)scale(0.12 -0.12)">
       <use xlink:href="#DejaVuSans-32"/>
       <use x="63.623047" xlink:href="#DejaVuSans-35"/>
      </g>
     </g>
    </g>
    <g id="xtick_28">
     <g id="line2d_91">
      <path clip-path="url(#p0952ab2c80)" d="M 717.846599 535.68 
L 717.846599 349.056 
" style="fill:none;stroke:#ffffff;stroke-width:1.4;"/>
     </g>
     <g id="line2d_92"/>
     <g id="text_29">
      <!-- 30 -->
      <g style="fill:#7f7f7f;" transform="translate(710.211599 550.798125)scale(0.12 -0.12)">
       <use xlink:href="#DejaVuSans-33"/>
       <use x="63.623047" xlink:href="#DejaVuSans-30"/>
      </g>
     </g>
    </g>
   </g>
   <g id="matplotlib.axis_8">
    <g id="ytick_19">
     <g id="line2d_93">
      <path clip-path="url(#p0952ab2c80)" d="M 439.2 524.964307 
L 752.4 524.964307 
" style="fill:none;stroke:#ffffff;stroke-width:1.4;"/>
     </g>
     <g id="line2d_94"/>
    </g>
    <g id="ytick_20">
     <g id="line2d_95">
      <path clip-path="url(#p0952ab2c80)" d="M 439.2 491.853479 
L 752.4 491.853479 
" style="fill:none;stroke:#ffffff;stroke-width:1.4;"/>
     </g>
     <g id="line2d_96"/>
    </g>
    <g id="ytick_21">
     <g id="line2d_97">
      <path clip-path="url(#p0952ab2c80)" d="M 439.2 458.742652 
L 752.4 458.742652 
" style="fill:none;stroke:#ffffff;stroke-width:1.4;"/>
     </g>
     <g id="line2d_98"/>
    </g>
    <g id="ytick_22">
     <g id="line2d_99">
      <path clip-path="url(#p0952ab2c80)" d="M 439.2 425.631824 
L 752.4 425.631824 
" style="fill:none;stroke:#ffffff;stroke-width:1.4;"/>
     </g>
     <g id="line2d_100"/>
    </g>
    <g id="ytick_23">
     <g id="line2d_101">
      <path clip-path="url(#p0952ab2c80)" d="M 439.2 392.520997 
L 752.4 392.520997 
" style="fill:none;stroke:#ffffff;stroke-width:1.4;"/>
     </g>
     <g id="line2d_102"/>
    </g>
    <g id="ytick_24">
     <g id="line2d_103">
      <path clip-path="url(#p0952ab2c80)" d="M 439.2 359.410169 
L 752.4 359.410169 
" style="fill:none;stroke:#ffffff;stroke-width:1.4;"/>
     </g>
     <g id="line2d_104"/>
    </g>
   </g>
   <g id="PathCollection_4">
    <defs>
     <path d="M 0 2.236068 
C 0.593012 2.236068 1.161816 2.000462 1.581139 1.581139 
C 2.000462 1.161816 2.236068 0.593012 2.236068 0 
C 2.236068 -0.593012 2.000462 -1.161816 1.581139 -1.581139 
C 1.161816 -2.000462 0.593012 -2.236068 0 -2.236068 
C -0.593012 -2.236068 -1.161816 -2.000462 -1.581139 -1.581139 
C -2.000462 -1.161816 -2.236068 -0.593012 -2.236068 0 
C -2.236068 0.593012 -2.000462 1.161816 -1.581139 1.581139 
C -1.161816 2.000462 -0.593012 2.236068 0 2.236068 
z
" id="C3_0_e6c236143f"/>
    </defs>
    <g clip-path="url(#p0952ab2c80)">
     <use style="fill:#d55e00;" x="455.672423" xlink:href="#C3_0_e6c236143f" y="524.964307"/>
    </g>
    <g clip-path="url(#p0952ab2c80)">
     <use style="fill:#d55e00;" x="464.712912" xlink:href="#C3_0_e6c236143f" y="524.964307"/>
    </g>
    <g clip-path="url(#p0952ab2c80)">
     <use style="fill:#d55e00;" x="473.753401" xlink:href="#C3_0_e6c236143f" y="524.964307"/>
    </g>
    <g clip-path="url(#p0952ab2c80)">
     <use style="fill:#d55e00;" x="482.79389" xlink:href="#C3_0_e6c236143f" y="524.964307"/>
    </g>
    <g clip-path="url(#p0952ab2c80)">
     <use style="fill:#d55e00;" x="491.834379" xlink:href="#C3_0_e6c236143f" y="524.964307"/>
    </g>
    <g clip-path="url(#p0952ab2c80)">
     <use style="fill:#d55e00;" x="500.874867" xlink:href="#C3_0_e6c236143f" y="524.964307"/>
    </g>
    <g clip-path="url(#p0952ab2c80)">
     <use style="fill:#d55e00;" x="509.915356" xlink:href="#C3_0_e6c236143f" y="524.964307"/>
    </g>
    <g clip-path="url(#p0952ab2c80)">
     <use style="fill:#d55e00;" x="518.955845" xlink:href="#C3_0_e6c236143f" y="524.964307"/>
    </g>
    <g clip-path="url(#p0952ab2c80)">
     <use style="fill:#d55e00;" x="527.996334" xlink:href="#C3_0_e6c236143f" y="524.964307"/>
    </g>
    <g clip-path="url(#p0952ab2c80)">
     <use style="fill:#d55e00;" x="537.036823" xlink:href="#C3_0_e6c236143f" y="524.964307"/>
    </g>
    <g clip-path="url(#p0952ab2c80)">
     <use style="fill:#d55e00;" x="546.077312" xlink:href="#C3_0_e6c236143f" y="524.964307"/>
    </g>
    <g clip-path="url(#p0952ab2c80)">
     <use style="fill:#d55e00;" x="555.1178" xlink:href="#C3_0_e6c236143f" y="524.964307"/>
    </g>
    <g clip-path="url(#p0952ab2c80)">
     <use style="fill:#d55e00;" x="564.158289" xlink:href="#C3_0_e6c236143f" y="524.964307"/>
    </g>
    <g clip-path="url(#p0952ab2c80)">
     <use style="fill:#d55e00;" x="573.198778" xlink:href="#C3_0_e6c236143f" y="524.964307"/>
    </g>
    <g clip-path="url(#p0952ab2c80)">
     <use style="fill:#d55e00;" x="582.239267" xlink:href="#C3_0_e6c236143f" y="524.964307"/>
    </g>
    <g clip-path="url(#p0952ab2c80)">
     <use style="fill:#d55e00;" x="591.279756" xlink:href="#C3_0_e6c236143f" y="524.964307"/>
    </g>
    <g clip-path="url(#p0952ab2c80)">
     <use style="fill:#d55e00;" x="600.320244" xlink:href="#C3_0_e6c236143f" y="524.964307"/>
    </g>
    <g clip-path="url(#p0952ab2c80)">
     <use style="fill:#d55e00;" x="609.360733" xlink:href="#C3_0_e6c236143f" y="387.157043"/>
    </g>
    <g clip-path="url(#p0952ab2c80)">
     <use style="fill:#d55e00;" x="618.401222" xlink:href="#C3_0_e6c236143f" y="524.964307"/>
    </g>
    <g clip-path="url(#p0952ab2c80)">
     <use style="fill:#d55e00;" x="627.441711" xlink:href="#C3_0_e6c236143f" y="524.964307"/>
    </g>
    <g clip-path="url(#p0952ab2c80)">
     <use style="fill:#d55e00;" x="636.4822" xlink:href="#C3_0_e6c236143f" y="524.964307"/>
    </g>
    <g clip-path="url(#p0952ab2c80)">
     <use style="fill:#d55e00;" x="645.522688" xlink:href="#C3_0_e6c236143f" y="524.964307"/>
    </g>
    <g clip-path="url(#p0952ab2c80)">
     <use style="fill:#d55e00;" x="654.563177" xlink:href="#C3_0_e6c236143f" y="524.964307"/>
    </g>
    <g clip-path="url(#p0952ab2c80)">
     <use style="fill:#d55e00;" x="663.603666" xlink:href="#C3_0_e6c236143f" y="524.964307"/>
    </g>
    <g clip-path="url(#p0952ab2c80)">
     <use style="fill:#d55e00;" x="672.644155" xlink:href="#C3_0_e6c236143f" y="524.964307"/>
    </g>
    <g clip-path="url(#p0952ab2c80)">
     <use style="fill:#d55e00;" x="681.684644" xlink:href="#C3_0_e6c236143f" y="524.964307"/>
    </g>
    <g clip-path="url(#p0952ab2c80)">
     <use style="fill:#d55e00;" x="690.725133" xlink:href="#C3_0_e6c236143f" y="524.964307"/>
    </g>
    <g clip-path="url(#p0952ab2c80)">
     <use style="fill:#d55e00;" x="699.765621" xlink:href="#C3_0_e6c236143f" y="524.964307"/>
    </g>
    <g clip-path="url(#p0952ab2c80)">
     <use style="fill:#d55e00;" x="708.80611" xlink:href="#C3_0_e6c236143f" y="524.964307"/>
    </g>
    <g clip-path="url(#p0952ab2c80)">
     <use style="fill:#d55e00;" x="717.846599" xlink:href="#C3_0_e6c236143f" y="524.964307"/>
    </g>
    <g clip-path="url(#p0952ab2c80)">
     <use style="fill:#d55e00;" x="726.887088" xlink:href="#C3_0_e6c236143f" y="524.964307"/>
    </g>
    <g clip-path="url(#p0952ab2c80)">
     <use style="fill:#d55e00;" x="735.927577" xlink:href="#C3_0_e6c236143f" y="524.964307"/>
    </g>
   </g>
   <g id="patch_18">
    <path d="M 439.2 535.68 
L 439.2 349.056 
" style="fill:none;stroke:#bcbcbc;stroke-linecap:square;stroke-linejoin:miter;"/>
   </g>
   <g id="patch_19">
    <path d="M 752.4 535.68 
L 752.4 349.056 
" style="fill:none;stroke:#bcbcbc;stroke-linecap:square;stroke-linejoin:miter;"/>
   </g>
   <g id="patch_20">
    <path d="M 439.2 535.68 
L 752.4 535.68 
" style="fill:none;stroke:#bcbcbc;stroke-linecap:square;stroke-linejoin:miter;"/>
   </g>
   <g id="patch_21">
    <path d="M 439.2 349.056 
L 752.4 349.056 
" style="fill:none;stroke:#bcbcbc;stroke-linecap:square;stroke-linejoin:miter;"/>
   </g>
   <g id="text_30">
    <!-- Royal Aircraft Factory S.E.5 -->
    <defs>
     <path d="M 53.515625 70.515625 
L 53.515625 60.890625 
Q 47.90625 63.578125 42.921875 64.890625 
Q 37.9375 66.21875 33.296875 66.21875 
Q 25.25 66.21875 20.875 63.09375 
Q 16.5 59.96875 16.5 54.203125 
Q 16.5 49.359375 19.40625 46.890625 
Q 22.3125 44.4375 30.421875 42.921875 
L 36.375 41.703125 
Q 47.40625 39.59375 52.65625 34.296875 
Q 57.90625 29 57.90625 20.125 
Q 57.90625 9.515625 50.796875 4.046875 
Q 43.703125 -1.421875 29.984375 -1.421875 
Q 24.8125 -1.421875 18.96875 -0.25 
Q 13.140625 0.921875 6.890625 3.21875 
L 6.890625 13.375 
Q 12.890625 10.015625 18.65625 8.296875 
Q 24.421875 6.59375 29.984375 6.59375 
Q 38.421875 6.59375 43.015625 9.90625 
Q 47.609375 13.234375 47.609375 19.390625 
Q 47.609375 24.75 44.3125 27.78125 
Q 41.015625 30.8125 33.5 32.328125 
L 27.484375 33.5 
Q 16.453125 35.6875 11.515625 40.375 
Q 6.59375 45.0625 6.59375 53.421875 
Q 6.59375 63.09375 13.40625 68.65625 
Q 20.21875 74.21875 32.171875 74.21875 
Q 37.3125 74.21875 42.625 73.28125 
Q 47.953125 72.359375 53.515625 70.515625 
z
" id="DejaVuSans-53"/>
     <path d="M 9.8125 72.90625 
L 55.90625 72.90625 
L 55.90625 64.59375 
L 19.671875 64.59375 
L 19.671875 43.015625 
L 54.390625 43.015625 
L 54.390625 34.71875 
L 19.671875 34.71875 
L 19.671875 8.296875 
L 56.78125 8.296875 
L 56.78125 0 
L 9.8125 0 
z
" id="DejaVuSans-45"/>
    </defs>
    <g transform="translate(527.228906 343.056)scale(0.1 -0.1)">
     <use xlink:href="#DejaVuSans-52"/>
     <use x="69.419922" xlink:href="#DejaVuSans-6f"/>
     <use x="130.601562" xlink:href="#DejaVuSans-79"/>
     <use x="189.78125" xlink:href="#DejaVuSans-61"/>
     <use x="251.060547" xlink:href="#DejaVuSans-6c"/>
     <use x="278.84375" xlink:href="#DejaVuSans-20"/>
     <use x="310.630859" xlink:href="#DejaVuSans-41"/>
     <use x="379.039062" xlink:href="#DejaVuSans-69"/>
     <use x="406.822266" xlink:href="#DejaVuSans-72"/>
     <use x="447.904297" xlink:href="#DejaVuSans-63"/>
     <use x="502.884766" xlink:href="#DejaVuSans-72"/>
     <use x="543.998047" xlink:href="#DejaVuSans-61"/>
     <use x="605.277344" xlink:href="#DejaVuSans-66"/>
     <use x="640.466797" xlink:href="#DejaVuSans-74"/>
     <use x="679.675781" xlink:href="#DejaVuSans-20"/>
     <use x="711.462891" xlink:href="#DejaVuSans-46"/>
     <use x="768.841797" xlink:href="#DejaVuSans-61"/>
     <use x="830.121094" xlink:href="#DejaVuSans-63"/>
     <use x="885.101562" xlink:href="#DejaVuSans-74"/>
     <use x="924.310547" xlink:href="#DejaVuSans-6f"/>
     <use x="985.492188" xlink:href="#DejaVuSans-72"/>
     <use x="1026.605469" xlink:href="#DejaVuSans-79"/>
     <use x="1085.785156" xlink:href="#DejaVuSans-20"/>
     <use x="1117.572266" xlink:href="#DejaVuSans-53"/>
     <use x="1181.048828" xlink:href="#DejaVuSans-2e"/>
     <use x="1212.835938" xlink:href="#DejaVuSans-45"/>
     <use x="1276.019531" xlink:href="#DejaVuSans-2e"/>
     <use x="1307.806641" xlink:href="#DejaVuSans-35"/>
    </g>
   </g>
  </g>
  <g id="text_31">
   <!-- Distribution of Topics across Time  (Window size = 10) -->
   <defs>
    <path d="M 19.671875 64.796875 
L 19.671875 8.109375 
L 31.59375 8.109375 
Q 46.6875 8.109375 53.6875 14.9375 
Q 60.6875 21.78125 60.6875 36.53125 
Q 60.6875 51.171875 53.6875 57.984375 
Q 46.6875 64.796875 31.59375 64.796875 
z
M 9.8125 72.90625 
L 30.078125 72.90625 
Q 51.265625 72.90625 61.171875 64.09375 
Q 71.09375 55.28125 71.09375 36.53125 
Q 71.09375 17.671875 61.125 8.828125 
Q 51.171875 0 30.078125 0 
L 9.8125 0 
z
" id="DejaVuSans-44"/>
    <path d="M 48.6875 27.296875 
Q 48.6875 37.203125 44.609375 42.84375 
Q 40.53125 48.484375 33.40625 48.484375 
Q 26.265625 48.484375 22.1875 42.84375 
Q 18.109375 37.203125 18.109375 27.296875 
Q 18.109375 17.390625 22.1875 11.75 
Q 26.265625 6.109375 33.40625 6.109375 
Q 40.53125 6.109375 44.609375 11.75 
Q 48.6875 17.390625 48.6875 27.296875 
z
M 18.109375 46.390625 
Q 20.953125 51.265625 25.265625 53.625 
Q 29.59375 56 35.59375 56 
Q 45.5625 56 51.78125 48.09375 
Q 58.015625 40.1875 58.015625 27.296875 
Q 58.015625 14.40625 51.78125 6.484375 
Q 45.5625 -1.421875 35.59375 -1.421875 
Q 29.59375 -1.421875 25.265625 0.953125 
Q 20.953125 3.328125 18.109375 8.203125 
L 18.109375 0 
L 9.078125 0 
L 9.078125 75.984375 
L 18.109375 75.984375 
z
" id="DejaVuSans-62"/>
    <path d="M 8.5 21.578125 
L 8.5 54.6875 
L 17.484375 54.6875 
L 17.484375 21.921875 
Q 17.484375 14.15625 20.5 10.265625 
Q 23.53125 6.390625 29.59375 6.390625 
Q 36.859375 6.390625 41.078125 11.03125 
Q 45.3125 15.671875 45.3125 23.6875 
L 45.3125 54.6875 
L 54.296875 54.6875 
L 54.296875 0 
L 45.3125 0 
L 45.3125 8.40625 
Q 42.046875 3.421875 37.71875 1 
Q 33.40625 -1.421875 27.6875 -1.421875 
Q 18.265625 -1.421875 13.375 4.4375 
Q 8.5 10.296875 8.5 21.578125 
z
M 31.109375 56 
z
" id="DejaVuSans-75"/>
    <path d="M -0.296875 72.90625 
L 61.375 72.90625 
L 61.375 64.59375 
L 35.5 64.59375 
L 35.5 0 
L 25.59375 0 
L 25.59375 64.59375 
L -0.296875 64.59375 
z
" id="DejaVuSans-54"/>
    <path d="M 18.109375 8.203125 
L 18.109375 -20.796875 
L 9.078125 -20.796875 
L 9.078125 54.6875 
L 18.109375 54.6875 
L 18.109375 46.390625 
Q 20.953125 51.265625 25.265625 53.625 
Q 29.59375 56 35.59375 56 
Q 45.5625 56 51.78125 48.09375 
Q 58.015625 40.1875 58.015625 27.296875 
Q 58.015625 14.40625 51.78125 6.484375 
Q 45.5625 -1.421875 35.59375 -1.421875 
Q 29.59375 -1.421875 25.265625 0.953125 
Q 20.953125 3.328125 18.109375 8.203125 
z
M 48.6875 27.296875 
Q 48.6875 37.203125 44.609375 42.84375 
Q 40.53125 48.484375 33.40625 48.484375 
Q 26.265625 48.484375 22.1875 42.84375 
Q 18.109375 37.203125 18.109375 27.296875 
Q 18.109375 17.390625 22.1875 11.75 
Q 26.265625 6.109375 33.40625 6.109375 
Q 40.53125 6.109375 44.609375 11.75 
Q 48.6875 17.390625 48.6875 27.296875 
z
" id="DejaVuSans-70"/>
    <path d="M 52 44.1875 
Q 55.375 50.25 60.0625 53.125 
Q 64.75 56 71.09375 56 
Q 79.640625 56 84.28125 50.015625 
Q 88.921875 44.046875 88.921875 33.015625 
L 88.921875 0 
L 79.890625 0 
L 79.890625 32.71875 
Q 79.890625 40.578125 77.09375 44.375 
Q 74.3125 48.1875 68.609375 48.1875 
Q 61.625 48.1875 57.5625 43.546875 
Q 53.515625 38.921875 53.515625 30.90625 
L 53.515625 0 
L 44.484375 0 
L 44.484375 32.71875 
Q 44.484375 40.625 41.703125 44.40625 
Q 38.921875 48.1875 33.109375 48.1875 
Q 26.21875 48.1875 22.15625 43.53125 
Q 18.109375 38.875 18.109375 30.90625 
L 18.109375 0 
L 9.078125 0 
L 9.078125 54.6875 
L 18.109375 54.6875 
L 18.109375 46.1875 
Q 21.1875 51.21875 25.484375 53.609375 
Q 29.78125 56 35.6875 56 
Q 41.65625 56 45.828125 52.96875 
Q 50 49.953125 52 44.1875 
z
" id="DejaVuSans-6d"/>
    <path d="M 5.515625 54.6875 
L 48.1875 54.6875 
L 48.1875 46.484375 
L 14.40625 7.171875 
L 48.1875 7.171875 
L 48.1875 0 
L 4.296875 0 
L 4.296875 8.203125 
L 38.09375 47.515625 
L 5.515625 47.515625 
z
" id="DejaVuSans-7a"/>
    <path d="M 10.59375 45.40625 
L 73.1875 45.40625 
L 73.1875 37.203125 
L 10.59375 37.203125 
z
M 10.59375 25.484375 
L 73.1875 25.484375 
L 73.1875 17.1875 
L 10.59375 17.1875 
z
" id="DejaVuSans-3d"/>
   </defs>
   <g transform="translate(231.838125 28.8)scale(0.12 -0.12)">
    <use xlink:href="#DejaVuSans-44"/>
    <use x="77.001953" xlink:href="#DejaVuSans-69"/>
    <use x="104.785156" xlink:href="#DejaVuSans-73"/>
    <use x="156.884766" xlink:href="#DejaVuSans-74"/>
    <use x="196.09375" xlink:href="#DejaVuSans-72"/>
    <use x="237.207031" xlink:href="#DejaVuSans-69"/>
    <use x="264.990234" xlink:href="#DejaVuSans-62"/>
    <use x="328.466797" xlink:href="#DejaVuSans-75"/>
    <use x="391.845703" xlink:href="#DejaVuSans-74"/>
    <use x="431.054688" xlink:href="#DejaVuSans-69"/>
    <use x="458.837891" xlink:href="#DejaVuSans-6f"/>
    <use x="520.019531" xlink:href="#DejaVuSans-6e"/>
    <use x="583.398438" xlink:href="#DejaVuSans-20"/>
    <use x="615.185547" xlink:href="#DejaVuSans-6f"/>
    <use x="676.367188" xlink:href="#DejaVuSans-66"/>
    <use x="711.572266" xlink:href="#DejaVuSans-20"/>
    <use x="743.359375" xlink:href="#DejaVuSans-54"/>
    <use x="804.177734" xlink:href="#DejaVuSans-6f"/>
    <use x="865.359375" xlink:href="#DejaVuSans-70"/>
    <use x="928.835938" xlink:href="#DejaVuSans-69"/>
    <use x="956.619141" xlink:href="#DejaVuSans-63"/>
    <use x="1011.599609" xlink:href="#DejaVuSans-73"/>
    <use x="1063.699219" xlink:href="#DejaVuSans-20"/>
    <use x="1095.486328" xlink:href="#DejaVuSans-61"/>
    <use x="1156.765625" xlink:href="#DejaVuSans-63"/>
    <use x="1211.746094" xlink:href="#DejaVuSans-72"/>
    <use x="1252.828125" xlink:href="#DejaVuSans-6f"/>
    <use x="1314.009766" xlink:href="#DejaVuSans-73"/>
    <use x="1366.109375" xlink:href="#DejaVuSans-73"/>
    <use x="1418.208984" xlink:href="#DejaVuSans-20"/>
    <use x="1449.996094" xlink:href="#DejaVuSans-54"/>
    <use x="1511.033203" xlink:href="#DejaVuSans-69"/>
    <use x="1538.816406" xlink:href="#DejaVuSans-6d"/>
    <use x="1636.228516" xlink:href="#DejaVuSans-65"/>
    <use x="1697.751953" xlink:href="#DejaVuSans-20"/>
    <use x="1729.539062" xlink:href="#DejaVuSans-20"/>
    <use x="1761.326172" xlink:href="#DejaVuSans-28"/>
    <use x="1800.339844" xlink:href="#DejaVuSans-57"/>
    <use x="1899.185547" xlink:href="#DejaVuSans-69"/>
    <use x="1926.96875" xlink:href="#DejaVuSans-6e"/>
    <use x="1990.347656" xlink:href="#DejaVuSans-64"/>
    <use x="2053.824219" xlink:href="#DejaVuSans-6f"/>
    <use x="2115.005859" xlink:href="#DejaVuSans-77"/>
    <use x="2196.792969" xlink:href="#DejaVuSans-20"/>
    <use x="2228.580078" xlink:href="#DejaVuSans-73"/>
    <use x="2280.679688" xlink:href="#DejaVuSans-69"/>
    <use x="2308.462891" xlink:href="#DejaVuSans-7a"/>
    <use x="2360.953125" xlink:href="#DejaVuSans-65"/>
    <use x="2422.476562" xlink:href="#DejaVuSans-20"/>
    <use x="2454.263672" xlink:href="#DejaVuSans-3d"/>
    <use x="2538.052734" xlink:href="#DejaVuSans-20"/>
    <use x="2569.839844" xlink:href="#DejaVuSans-31"/>
    <use x="2633.462891" xlink:href="#DejaVuSans-30"/>
    <use x="2697.085938" xlink:href="#DejaVuSans-29"/>
   </g>
  </g>
  <g id="text_32">
   <!-- Time -->
   <g transform="translate(381.135 558.72)scale(0.12 -0.12)">
    <use xlink:href="#DejaVuSans-54"/>
    <use x="61.037109" xlink:href="#DejaVuSans-69"/>
    <use x="88.820312" xlink:href="#DejaVuSans-6d"/>
    <use x="186.232422" xlink:href="#DejaVuSans-65"/>
   </g>
  </g>
  <g id="text_33">
   <!-- Average Score -->
   <defs>
    <path d="M 2.984375 54.6875 
L 12.5 54.6875 
L 29.59375 8.796875 
L 46.6875 54.6875 
L 56.203125 54.6875 
L 35.6875 0 
L 23.484375 0 
z
" id="DejaVuSans-76"/>
    <path d="M 45.40625 27.984375 
Q 45.40625 37.75 41.375 43.109375 
Q 37.359375 48.484375 30.078125 48.484375 
Q 22.859375 48.484375 18.828125 43.109375 
Q 14.796875 37.75 14.796875 27.984375 
Q 14.796875 18.265625 18.828125 12.890625 
Q 22.859375 7.515625 30.078125 7.515625 
Q 37.359375 7.515625 41.375 12.890625 
Q 45.40625 18.265625 45.40625 27.984375 
z
M 54.390625 6.78125 
Q 54.390625 -7.171875 48.1875 -13.984375 
Q 42 -20.796875 29.203125 -20.796875 
Q 24.46875 -20.796875 20.265625 -20.09375 
Q 16.0625 -19.390625 12.109375 -17.921875 
L 12.109375 -9.1875 
Q 16.0625 -11.328125 19.921875 -12.34375 
Q 23.78125 -13.375 27.78125 -13.375 
Q 36.625 -13.375 41.015625 -8.765625 
Q 45.40625 -4.15625 45.40625 5.171875 
L 45.40625 9.625 
Q 42.625 4.78125 38.28125 2.390625 
Q 33.9375 0 27.875 0 
Q 17.828125 0 11.671875 7.65625 
Q 5.515625 15.328125 5.515625 27.984375 
Q 5.515625 40.671875 11.671875 48.328125 
Q 17.828125 56 27.875 56 
Q 33.9375 56 38.28125 53.609375 
Q 42.625 51.21875 45.40625 46.390625 
L 45.40625 54.6875 
L 54.390625 54.6875 
z
" id="DejaVuSans-67"/>
   </defs>
   <g transform="translate(27.07125 366.541875)rotate(-90)scale(0.12 -0.12)">
    <use xlink:href="#DejaVuSans-41"/>
    <use x="68.330078" xlink:href="#DejaVuSans-76"/>
    <use x="127.509766" xlink:href="#DejaVuSans-65"/>
    <use x="189.033203" xlink:href="#DejaVuSans-72"/>
    <use x="230.146484" xlink:href="#DejaVuSans-61"/>
    <use x="291.425781" xlink:href="#DejaVuSans-67"/>
    <use x="354.902344" xlink:href="#DejaVuSans-65"/>
    <use x="416.425781" xlink:href="#DejaVuSans-20"/>
    <use x="448.212891" xlink:href="#DejaVuSans-53"/>
    <use x="511.689453" xlink:href="#DejaVuSans-63"/>
    <use x="566.669922" xlink:href="#DejaVuSans-6f"/>
    <use x="627.851562" xlink:href="#DejaVuSans-72"/>
    <use x="668.933594" xlink:href="#DejaVuSans-65"/>
   </g>
  </g>
 </g>
 <defs>
  <clipPath id="pac4d99d0a7">
   <rect height="186.624" width="313.2" x="63.36" y="69.12"/>
  </clipPath>
  <clipPath id="p5ac726feb0">
   <rect height="186.624" width="313.2" x="439.2" y="69.12"/>
  </clipPath>
  <clipPath id="pf5f3637522">
   <rect height="186.624" width="313.2" x="63.36" y="349.056"/>
  </clipPath>
  <clipPath id="p0952ab2c80">
   <rect height="186.624" width="313.2" x="439.2" y="349.056"/>
  </clipPath>
 </defs>
</svg>
