<?xml version="1.0" encoding="utf-8" standalone="no"?>
<!DOCTYPE svg PUBLIC "-//W3C//DTD SVG 1.1//EN"
  "http://www.w3.org/Graphics/SVG/1.1/DTD/svg11.dtd">
<!-- Created with matplotlib (http://matplotlib.org/) -->
<svg height="576pt" version="1.1" viewBox="0 0 792 576" width="792pt" xmlns="http://www.w3.org/2000/svg" xmlns:xlink="http://www.w3.org/1999/xlink">
 <defs>
  <style type="text/css">
*{stroke-linecap:butt;stroke-linejoin:round;}
  </style>
 </defs>
 <g id="figure_1">
  <g id="patch_1">
   <path d="M 0 576 
L 792 576 
L 792 0 
L 0 0 
z
" style="fill:#f0f0f0;"/>
  </g>
  <g id="axes_1">
   <g id="patch_2">
    <path d="M 63.36 255.744 
L 376.56 255.744 
L 376.56 69.12 
L 63.36 69.12 
z
" style="fill:#ffffff;"/>
   </g>
   <g id="matplotlib.axis_1">
    <g id="xtick_1">
     <g id="line2d_1">
      <path clip-path="url(#pba9491c925)" d="M 75.312179 255.744 
L 75.312179 69.12 
" style="fill:none;stroke:#ffffff;stroke-width:1.4;"/>
     </g>
     <g id="line2d_2"/>
    </g>
    <g id="xtick_2">
     <g id="line2d_3">
      <path clip-path="url(#pba9491c925)" d="M 165.717067 255.744 
L 165.717067 69.12 
" style="fill:none;stroke:#ffffff;stroke-width:1.4;"/>
     </g>
     <g id="line2d_4"/>
    </g>
    <g id="xtick_3">
     <g id="line2d_5">
      <path clip-path="url(#pba9491c925)" d="M 256.121955 255.744 
L 256.121955 69.12 
" style="fill:none;stroke:#ffffff;stroke-width:1.4;"/>
     </g>
     <g id="line2d_6"/>
    </g>
    <g id="xtick_4">
     <g id="line2d_7">
      <path clip-path="url(#pba9491c925)" d="M 346.526844 255.744 
L 346.526844 69.12 
" style="fill:none;stroke:#ffffff;stroke-width:1.4;"/>
     </g>
     <g id="line2d_8"/>
    </g>
   </g>
   <g id="matplotlib.axis_2">
    <g id="ytick_1">
     <g id="line2d_9">
      <path clip-path="url(#pba9491c925)" d="M 63.36 245.027862 
L 376.56 245.027862 
" style="fill:none;stroke:#ffffff;stroke-width:1.4;"/>
     </g>
     <g id="line2d_10"/>
     <g id="text_1">
      <!-- 0.0 -->
      <defs>
       <path d="M 4.15625 35.296875 
Q 4.15625 48 6.765625 55.734375 
Q 9.375 63.484375 14.515625 67.671875 
Q 19.671875 71.875 27.484375 71.875 
Q 33.25 71.875 37.59375 69.546875 
Q 41.9375 67.234375 44.765625 62.859375 
Q 47.609375 58.5 49.21875 52.21875 
Q 50.828125 45.953125 50.828125 35.296875 
Q 50.828125 22.703125 48.234375 14.96875 
Q 45.65625 7.234375 40.5 3 
Q 35.359375 -1.21875 27.484375 -1.21875 
Q 17.140625 -1.21875 11.234375 6.203125 
Q 4.15625 15.140625 4.15625 35.296875 
z
M 13.1875 35.296875 
Q 13.1875 17.671875 17.3125 11.828125 
Q 21.4375 6 27.484375 6 
Q 33.546875 6 37.671875 11.859375 
Q 41.796875 17.71875 41.796875 35.296875 
Q 41.796875 52.984375 37.671875 58.78125 
Q 33.546875 64.59375 27.390625 64.59375 
Q 21.34375 64.59375 17.71875 59.46875 
Q 13.1875 52.9375 13.1875 35.296875 
z
" id="ArialMT-30"/>
       <path d="M 9.078125 0 
L 9.078125 10.015625 
L 19.09375 10.015625 
L 19.09375 0 
z
" id="ArialMT-2e"/>
      </defs>
      <g style="fill:#7f7f7f;" transform="translate(29.56 252.185674)scale(0.2 -0.2)">
       <use xlink:href="#ArialMT-30"/>
       <use x="55.615234" xlink:href="#ArialMT-2e"/>
       <use x="83.398438" xlink:href="#ArialMT-30"/>
      </g>
     </g>
    </g>
    <g id="ytick_2">
     <g id="line2d_11">
      <path clip-path="url(#pba9491c925)" d="M 63.36 162.324298 
L 376.56 162.324298 
" style="fill:none;stroke:#ffffff;stroke-width:1.4;"/>
     </g>
     <g id="line2d_12"/>
     <g id="text_2">
      <!-- 0.5 -->
      <defs>
       <path d="M 4.15625 18.75 
L 13.375 19.53125 
Q 14.40625 12.796875 18.140625 9.390625 
Q 21.875 6 27.15625 6 
Q 33.5 6 37.890625 10.78125 
Q 42.28125 15.578125 42.28125 23.484375 
Q 42.28125 31 38.0625 35.34375 
Q 33.84375 39.703125 27 39.703125 
Q 22.75 39.703125 19.328125 37.765625 
Q 15.921875 35.84375 13.96875 32.765625 
L 5.71875 33.84375 
L 12.640625 70.609375 
L 48.25 70.609375 
L 48.25 62.203125 
L 19.671875 62.203125 
L 15.828125 42.96875 
Q 22.265625 47.46875 29.34375 47.46875 
Q 38.71875 47.46875 45.15625 40.96875 
Q 51.609375 34.46875 51.609375 24.265625 
Q 51.609375 14.546875 45.953125 7.46875 
Q 39.0625 -1.21875 27.15625 -1.21875 
Q 17.390625 -1.21875 11.203125 4.25 
Q 5.03125 9.71875 4.15625 18.75 
z
" id="ArialMT-35"/>
      </defs>
      <g style="fill:#7f7f7f;" transform="translate(29.56 169.48211)scale(0.2 -0.2)">
       <use xlink:href="#ArialMT-30"/>
       <use x="55.615234" xlink:href="#ArialMT-2e"/>
       <use x="83.398438" xlink:href="#ArialMT-35"/>
      </g>
     </g>
    </g>
    <g id="ytick_3">
     <g id="line2d_13">
      <path clip-path="url(#pba9491c925)" d="M 63.36 79.620734 
L 376.56 79.620734 
" style="fill:none;stroke:#ffffff;stroke-width:1.4;"/>
     </g>
     <g id="line2d_14"/>
     <g id="text_3">
      <!-- 1.0 -->
      <defs>
       <path d="M 37.25 0 
L 28.46875 0 
L 28.46875 56 
Q 25.296875 52.984375 20.140625 49.953125 
Q 14.984375 46.921875 10.890625 45.40625 
L 10.890625 53.90625 
Q 18.265625 57.375 23.78125 62.296875 
Q 29.296875 67.234375 31.59375 71.875 
L 37.25 71.875 
z
" id="ArialMT-31"/>
      </defs>
      <g style="fill:#7f7f7f;" transform="translate(29.56 86.778546)scale(0.2 -0.2)">
       <use xlink:href="#ArialMT-31"/>
       <use x="55.615234" xlink:href="#ArialMT-2e"/>
       <use x="83.398438" xlink:href="#ArialMT-30"/>
      </g>
     </g>
    </g>
   </g>
   <g id="PathCollection_1">
    <defs>
     <path d="M 0 2.236068 
C 0.593012 2.236068 1.161816 2.000462 1.581139 1.581139 
C 2.000462 1.161816 2.236068 0.593012 2.236068 0 
C 2.236068 -0.593012 2.000462 -1.161816 1.581139 -1.581139 
C 1.161816 -2.000462 0.593012 -2.236068 0 -2.236068 
C -0.593012 -2.236068 -1.161816 -2.000462 -1.581139 -1.581139 
C -2.000462 -1.161816 -2.236068 -0.593012 -2.236068 0 
C -2.236068 0.593012 -2.000462 1.161816 -1.581139 1.581139 
C -1.161816 2.000462 -0.593012 2.236068 0 2.236068 
z
" id="C0_0_3c60558a5a"/>
    </defs>
    <g clip-path="url(#pba9491c925)">
     <use style="fill:#d55e00;" x="79.832423" xlink:href="#C0_0_3c60558a5a" y="212.790013"/>
    </g>
    <g clip-path="url(#pba9491c925)">
     <use style="fill:#d55e00;" x="84.352668" xlink:href="#C0_0_3c60558a5a" y="245.027862"/>
    </g>
    <g clip-path="url(#pba9491c925)">
     <use style="fill:#d55e00;" x="88.872912" xlink:href="#C0_0_3c60558a5a" y="245.027862"/>
    </g>
    <g clip-path="url(#pba9491c925)">
     <use style="fill:#d55e00;" x="93.393156" xlink:href="#C0_0_3c60558a5a" y="245.027862"/>
    </g>
    <g clip-path="url(#pba9491c925)">
     <use style="fill:#d55e00;" x="97.913401" xlink:href="#C0_0_3c60558a5a" y="206.554164"/>
    </g>
    <g clip-path="url(#pba9491c925)">
     <use style="fill:#d55e00;" x="102.433645" xlink:href="#C0_0_3c60558a5a" y="245.027862"/>
    </g>
    <g clip-path="url(#pba9491c925)">
     <use style="fill:#d55e00;" x="106.95389" xlink:href="#C0_0_3c60558a5a" y="225.708309"/>
    </g>
    <g clip-path="url(#pba9491c925)">
     <use style="fill:#d55e00;" x="111.474134" xlink:href="#C0_0_3c60558a5a" y="245.027862"/>
    </g>
    <g clip-path="url(#pba9491c925)">
     <use style="fill:#d55e00;" x="115.994379" xlink:href="#C0_0_3c60558a5a" y="245.027862"/>
    </g>
    <g clip-path="url(#pba9491c925)">
     <use style="fill:#d55e00;" x="120.514623" xlink:href="#C0_0_3c60558a5a" y="245.027862"/>
    </g>
    <g clip-path="url(#pba9491c925)">
     <use style="fill:#d55e00;" x="125.034867" xlink:href="#C0_0_3c60558a5a" y="223.210662"/>
    </g>
    <g clip-path="url(#pba9491c925)">
     <use style="fill:#d55e00;" x="129.555112" xlink:href="#C0_0_3c60558a5a" y="245.027862"/>
    </g>
    <g clip-path="url(#pba9491c925)">
     <use style="fill:#d55e00;" x="134.075356" xlink:href="#C0_0_3c60558a5a" y="245.027862"/>
    </g>
    <g clip-path="url(#pba9491c925)">
     <use style="fill:#d55e00;" x="138.595601" xlink:href="#C0_0_3c60558a5a" y="245.027862"/>
    </g>
    <g clip-path="url(#pba9491c925)">
     <use style="fill:#d55e00;" x="143.115845" xlink:href="#C0_0_3c60558a5a" y="245.027862"/>
    </g>
    <g clip-path="url(#pba9491c925)">
     <use style="fill:#d55e00;" x="147.636089" xlink:href="#C0_0_3c60558a5a" y="245.027862"/>
    </g>
    <g clip-path="url(#pba9491c925)">
     <use style="fill:#d55e00;" x="152.156334" xlink:href="#C0_0_3c60558a5a" y="245.027862"/>
    </g>
    <g clip-path="url(#pba9491c925)">
     <use style="fill:#d55e00;" x="156.676578" xlink:href="#C0_0_3c60558a5a" y="245.027862"/>
    </g>
    <g clip-path="url(#pba9491c925)">
     <use style="fill:#d55e00;" x="161.196823" xlink:href="#C0_0_3c60558a5a" y="245.027862"/>
    </g>
    <g clip-path="url(#pba9491c925)">
     <use style="fill:#d55e00;" x="165.717067" xlink:href="#C0_0_3c60558a5a" y="245.027862"/>
    </g>
    <g clip-path="url(#pba9491c925)">
     <use style="fill:#d55e00;" x="170.237311" xlink:href="#C0_0_3c60558a5a" y="245.027862"/>
    </g>
    <g clip-path="url(#pba9491c925)">
     <use style="fill:#d55e00;" x="174.757556" xlink:href="#C0_0_3c60558a5a" y="245.027862"/>
    </g>
    <g clip-path="url(#pba9491c925)">
     <use style="fill:#d55e00;" x="179.2778" xlink:href="#C0_0_3c60558a5a" y="195.736538"/>
    </g>
    <g clip-path="url(#pba9491c925)">
     <use style="fill:#d55e00;" x="183.798045" xlink:href="#C0_0_3c60558a5a" y="196.01773"/>
    </g>
    <g clip-path="url(#pba9491c925)">
     <use style="fill:#d55e00;" x="188.318289" xlink:href="#C0_0_3c60558a5a" y="245.027862"/>
    </g>
    <g clip-path="url(#pba9491c925)">
     <use style="fill:#d55e00;" x="192.838534" xlink:href="#C0_0_3c60558a5a" y="210.722424"/>
    </g>
    <g clip-path="url(#pba9491c925)">
     <use style="fill:#d55e00;" x="197.358778" xlink:href="#C0_0_3c60558a5a" y="245.027862"/>
    </g>
    <g clip-path="url(#pba9491c925)">
     <use style="fill:#d55e00;" x="201.879022" xlink:href="#C0_0_3c60558a5a" y="245.027862"/>
    </g>
    <g clip-path="url(#pba9491c925)">
     <use style="fill:#d55e00;" x="206.399267" xlink:href="#C0_0_3c60558a5a" y="245.027862"/>
    </g>
    <g clip-path="url(#pba9491c925)">
     <use style="fill:#d55e00;" x="210.919511" xlink:href="#C0_0_3c60558a5a" y="245.027862"/>
    </g>
    <g clip-path="url(#pba9491c925)">
     <use style="fill:#d55e00;" x="215.439756" xlink:href="#C0_0_3c60558a5a" y="245.027862"/>
    </g>
    <g clip-path="url(#pba9491c925)">
     <use style="fill:#d55e00;" x="219.96" xlink:href="#C0_0_3c60558a5a" y="245.027862"/>
    </g>
    <g clip-path="url(#pba9491c925)">
     <use style="fill:#d55e00;" x="224.480244" xlink:href="#C0_0_3c60558a5a" y="171.554016"/>
    </g>
    <g clip-path="url(#pba9491c925)">
     <use style="fill:#d55e00;" x="229.000489" xlink:href="#C0_0_3c60558a5a" y="212.194547"/>
    </g>
    <g clip-path="url(#pba9491c925)">
     <use style="fill:#d55e00;" x="233.520733" xlink:href="#C0_0_3c60558a5a" y="245.027862"/>
    </g>
    <g clip-path="url(#pba9491c925)">
     <use style="fill:#d55e00;" x="238.040978" xlink:href="#C0_0_3c60558a5a" y="175.986927"/>
    </g>
    <g clip-path="url(#pba9491c925)">
     <use style="fill:#d55e00;" x="242.561222" xlink:href="#C0_0_3c60558a5a" y="245.027862"/>
    </g>
    <g clip-path="url(#pba9491c925)">
     <use style="fill:#d55e00;" x="247.081466" xlink:href="#C0_0_3c60558a5a" y="245.027862"/>
    </g>
    <g clip-path="url(#pba9491c925)">
     <use style="fill:#d55e00;" x="251.601711" xlink:href="#C0_0_3c60558a5a" y="245.027862"/>
    </g>
    <g clip-path="url(#pba9491c925)">
     <use style="fill:#d55e00;" x="256.121955" xlink:href="#C0_0_3c60558a5a" y="245.027862"/>
    </g>
    <g clip-path="url(#pba9491c925)">
     <use style="fill:#d55e00;" x="260.6422" xlink:href="#C0_0_3c60558a5a" y="156.634293"/>
    </g>
    <g clip-path="url(#pba9491c925)">
     <use style="fill:#d55e00;" x="265.162444" xlink:href="#C0_0_3c60558a5a" y="245.027862"/>
    </g>
    <g clip-path="url(#pba9491c925)">
     <use style="fill:#d55e00;" x="269.682689" xlink:href="#C0_0_3c60558a5a" y="245.027862"/>
    </g>
    <g clip-path="url(#pba9491c925)">
     <use style="fill:#d55e00;" x="274.202933" xlink:href="#C0_0_3c60558a5a" y="245.027862"/>
    </g>
    <g clip-path="url(#pba9491c925)">
     <use style="fill:#d55e00;" x="278.723177" xlink:href="#C0_0_3c60558a5a" y="213.583967"/>
    </g>
    <g clip-path="url(#pba9491c925)">
     <use style="fill:#d55e00;" x="283.243422" xlink:href="#C0_0_3c60558a5a" y="245.027862"/>
    </g>
    <g clip-path="url(#pba9491c925)">
     <use style="fill:#d55e00;" x="287.763666" xlink:href="#C0_0_3c60558a5a" y="192.742669"/>
    </g>
    <g clip-path="url(#pba9491c925)">
     <use style="fill:#d55e00;" x="292.283911" xlink:href="#C0_0_3c60558a5a" y="245.027862"/>
    </g>
    <g clip-path="url(#pba9491c925)">
     <use style="fill:#d55e00;" x="296.804155" xlink:href="#C0_0_3c60558a5a" y="245.027862"/>
    </g>
    <g clip-path="url(#pba9491c925)">
     <use style="fill:#d55e00;" x="301.324399" xlink:href="#C0_0_3c60558a5a" y="220.183711"/>
    </g>
    <g clip-path="url(#pba9491c925)">
     <use style="fill:#d55e00;" x="305.844644" xlink:href="#C0_0_3c60558a5a" y="245.027862"/>
    </g>
    <g clip-path="url(#pba9491c925)">
     <use style="fill:#d55e00;" x="310.364888" xlink:href="#C0_0_3c60558a5a" y="202.137794"/>
    </g>
    <g clip-path="url(#pba9491c925)">
     <use style="fill:#d55e00;" x="314.885133" xlink:href="#C0_0_3c60558a5a" y="245.027862"/>
    </g>
    <g clip-path="url(#pba9491c925)">
     <use style="fill:#d55e00;" x="319.405377" xlink:href="#C0_0_3c60558a5a" y="245.027862"/>
    </g>
    <g clip-path="url(#pba9491c925)">
     <use style="fill:#d55e00;" x="323.925621" xlink:href="#C0_0_3c60558a5a" y="245.027862"/>
    </g>
    <g clip-path="url(#pba9491c925)">
     <use style="fill:#d55e00;" x="328.445866" xlink:href="#C0_0_3c60558a5a" y="245.027862"/>
    </g>
    <g clip-path="url(#pba9491c925)">
     <use style="fill:#d55e00;" x="332.96611" xlink:href="#C0_0_3c60558a5a" y="245.027862"/>
    </g>
    <g clip-path="url(#pba9491c925)">
     <use style="fill:#d55e00;" x="337.486355" xlink:href="#C0_0_3c60558a5a" y="245.027862"/>
    </g>
    <g clip-path="url(#pba9491c925)">
     <use style="fill:#d55e00;" x="342.006599" xlink:href="#C0_0_3c60558a5a" y="245.027862"/>
    </g>
    <g clip-path="url(#pba9491c925)">
     <use style="fill:#d55e00;" x="346.526844" xlink:href="#C0_0_3c60558a5a" y="199.50782"/>
    </g>
    <g clip-path="url(#pba9491c925)">
     <use style="fill:#d55e00;" x="351.047088" xlink:href="#C0_0_3c60558a5a" y="245.027862"/>
    </g>
    <g clip-path="url(#pba9491c925)">
     <use style="fill:#d55e00;" x="355.567332" xlink:href="#C0_0_3c60558a5a" y="245.027862"/>
    </g>
    <g clip-path="url(#pba9491c925)">
     <use style="fill:#d55e00;" x="360.087577" xlink:href="#C0_0_3c60558a5a" y="245.027862"/>
    </g>
   </g>
   <g id="patch_3">
    <path d="M 63.36 255.744 
L 63.36 69.12 
" style="fill:none;stroke:#bcbcbc;stroke-linecap:square;stroke-linejoin:miter;"/>
   </g>
   <g id="patch_4">
    <path d="M 376.56 255.744 
L 376.56 69.12 
" style="fill:none;stroke:#bcbcbc;stroke-linecap:square;stroke-linejoin:miter;"/>
   </g>
   <g id="patch_5">
    <path d="M 63.36 255.744 
L 376.56 255.744 
" style="fill:none;stroke:#bcbcbc;stroke-linecap:square;stroke-linejoin:miter;"/>
   </g>
   <g id="patch_6">
    <path d="M 63.36 69.12 
L 376.56 69.12 
" style="fill:none;stroke:#bcbcbc;stroke-linecap:square;stroke-linejoin:miter;"/>
   </g>
   <g id="text_4">
    <!-- Allies of World War II -->
    <defs>
     <path d="M -0.140625 0 
L 27.34375 71.578125 
L 37.546875 71.578125 
L 66.84375 0 
L 56.0625 0 
L 47.703125 21.6875 
L 17.78125 21.6875 
L 9.90625 0 
z
M 20.515625 29.390625 
L 44.78125 29.390625 
L 37.3125 49.21875 
Q 33.890625 58.25 32.234375 64.0625 
Q 30.859375 57.171875 28.375 50.390625 
z
" id="ArialMT-41"/>
     <path d="M 6.390625 0 
L 6.390625 71.578125 
L 15.1875 71.578125 
L 15.1875 0 
z
" id="ArialMT-6c"/>
     <path d="M 6.640625 61.46875 
L 6.640625 71.578125 
L 15.4375 71.578125 
L 15.4375 61.46875 
z
M 6.640625 0 
L 6.640625 51.859375 
L 15.4375 51.859375 
L 15.4375 0 
z
" id="ArialMT-69"/>
     <path d="M 42.09375 16.703125 
L 51.171875 15.578125 
Q 49.03125 7.625 43.21875 3.21875 
Q 37.40625 -1.171875 28.375 -1.171875 
Q 17 -1.171875 10.328125 5.828125 
Q 3.65625 12.84375 3.65625 25.484375 
Q 3.65625 38.578125 10.390625 45.796875 
Q 17.140625 53.03125 27.875 53.03125 
Q 38.28125 53.03125 44.875 45.953125 
Q 51.46875 38.875 51.46875 26.03125 
Q 51.46875 25.25 51.421875 23.6875 
L 12.75 23.6875 
Q 13.234375 15.140625 17.578125 10.59375 
Q 21.921875 6.0625 28.421875 6.0625 
Q 33.25 6.0625 36.671875 8.59375 
Q 40.09375 11.140625 42.09375 16.703125 
z
M 13.234375 30.90625 
L 42.1875 30.90625 
Q 41.609375 37.453125 38.875 40.71875 
Q 34.671875 45.796875 27.984375 45.796875 
Q 21.921875 45.796875 17.796875 41.75 
Q 13.671875 37.703125 13.234375 30.90625 
z
" id="ArialMT-65"/>
     <path d="M 3.078125 15.484375 
L 11.765625 16.84375 
Q 12.5 11.625 15.84375 8.84375 
Q 19.1875 6.0625 25.203125 6.0625 
Q 31.25 6.0625 34.171875 8.515625 
Q 37.109375 10.984375 37.109375 14.3125 
Q 37.109375 17.28125 34.515625 19 
Q 32.71875 20.171875 25.53125 21.96875 
Q 15.875 24.421875 12.140625 26.203125 
Q 8.40625 27.984375 6.46875 31.125 
Q 4.546875 34.28125 4.546875 38.09375 
Q 4.546875 41.546875 6.125 44.5 
Q 7.71875 47.46875 10.453125 49.421875 
Q 12.5 50.921875 16.03125 51.96875 
Q 19.578125 53.03125 23.640625 53.03125 
Q 29.734375 53.03125 34.34375 51.265625 
Q 38.96875 49.515625 41.15625 46.5 
Q 43.359375 43.5 44.1875 38.484375 
L 35.59375 37.3125 
Q 35.015625 41.3125 32.203125 43.546875 
Q 29.390625 45.796875 24.265625 45.796875 
Q 18.21875 45.796875 15.625 43.796875 
Q 13.03125 41.796875 13.03125 39.109375 
Q 13.03125 37.40625 14.109375 36.03125 
Q 15.1875 34.625 17.484375 33.6875 
Q 18.796875 33.203125 25.25 31.453125 
Q 34.578125 28.953125 38.25 27.359375 
Q 41.9375 25.78125 44.03125 22.75 
Q 46.140625 19.734375 46.140625 15.234375 
Q 46.140625 10.84375 43.578125 6.953125 
Q 41.015625 3.078125 36.171875 0.953125 
Q 31.34375 -1.171875 25.25 -1.171875 
Q 15.140625 -1.171875 9.84375 3.03125 
Q 4.546875 7.234375 3.078125 15.484375 
z
" id="ArialMT-73"/>
     <path id="ArialMT-20"/>
     <path d="M 3.328125 25.921875 
Q 3.328125 40.328125 11.328125 47.265625 
Q 18.015625 53.03125 27.640625 53.03125 
Q 38.328125 53.03125 45.109375 46.015625 
Q 51.90625 39.015625 51.90625 26.65625 
Q 51.90625 16.65625 48.90625 10.90625 
Q 45.90625 5.171875 40.15625 2 
Q 34.421875 -1.171875 27.640625 -1.171875 
Q 16.75 -1.171875 10.03125 5.8125 
Q 3.328125 12.796875 3.328125 25.921875 
z
M 12.359375 25.921875 
Q 12.359375 15.96875 16.703125 11.015625 
Q 21.046875 6.0625 27.640625 6.0625 
Q 34.1875 6.0625 38.53125 11.03125 
Q 42.875 16.015625 42.875 26.21875 
Q 42.875 35.84375 38.5 40.796875 
Q 34.125 45.75 27.640625 45.75 
Q 21.046875 45.75 16.703125 40.8125 
Q 12.359375 35.890625 12.359375 25.921875 
z
" id="ArialMT-6f"/>
     <path d="M 8.6875 0 
L 8.6875 45.015625 
L 0.921875 45.015625 
L 0.921875 51.859375 
L 8.6875 51.859375 
L 8.6875 57.375 
Q 8.6875 62.59375 9.625 65.140625 
Q 10.890625 68.5625 14.078125 70.671875 
Q 17.28125 72.796875 23.046875 72.796875 
Q 26.765625 72.796875 31.25 71.921875 
L 29.9375 64.265625 
Q 27.203125 64.75 24.75 64.75 
Q 20.75 64.75 19.09375 63.03125 
Q 17.4375 61.328125 17.4375 56.640625 
L 17.4375 51.859375 
L 27.546875 51.859375 
L 27.546875 45.015625 
L 17.4375 45.015625 
L 17.4375 0 
z
" id="ArialMT-66"/>
     <path d="M 20.21875 0 
L 1.21875 71.578125 
L 10.9375 71.578125 
L 21.828125 24.65625 
Q 23.578125 17.28125 24.859375 10.015625 
Q 27.59375 21.484375 28.078125 23.25 
L 41.703125 71.578125 
L 53.125 71.578125 
L 63.375 35.359375 
Q 67.234375 21.875 68.953125 10.015625 
Q 70.3125 16.796875 72.515625 25.59375 
L 83.734375 71.578125 
L 93.265625 71.578125 
L 73.640625 0 
L 64.5 0 
L 49.421875 54.546875 
Q 47.515625 61.375 47.171875 62.9375 
Q 46.046875 58.015625 45.0625 54.546875 
L 29.890625 0 
z
" id="ArialMT-57"/>
     <path d="M 6.5 0 
L 6.5 51.859375 
L 14.40625 51.859375 
L 14.40625 44 
Q 17.4375 49.515625 20 51.265625 
Q 22.5625 53.03125 25.640625 53.03125 
Q 30.078125 53.03125 34.671875 50.203125 
L 31.640625 42.046875 
Q 28.421875 43.953125 25.203125 43.953125 
Q 22.3125 43.953125 20.015625 42.21875 
Q 17.71875 40.484375 16.75 37.40625 
Q 15.28125 32.71875 15.28125 27.15625 
L 15.28125 0 
z
" id="ArialMT-72"/>
     <path d="M 40.234375 0 
L 40.234375 6.546875 
Q 35.296875 -1.171875 25.734375 -1.171875 
Q 19.53125 -1.171875 14.328125 2.25 
Q 9.125 5.671875 6.265625 11.796875 
Q 3.421875 17.921875 3.421875 25.875 
Q 3.421875 33.640625 6 39.96875 
Q 8.59375 46.296875 13.765625 49.65625 
Q 18.953125 53.03125 25.34375 53.03125 
Q 30.03125 53.03125 33.6875 51.046875 
Q 37.359375 49.078125 39.65625 45.90625 
L 39.65625 71.578125 
L 48.390625 71.578125 
L 48.390625 0 
z
M 12.453125 25.875 
Q 12.453125 15.921875 16.640625 10.984375 
Q 20.84375 6.0625 26.5625 6.0625 
Q 32.328125 6.0625 36.34375 10.765625 
Q 40.375 15.484375 40.375 25.140625 
Q 40.375 35.796875 36.265625 40.765625 
Q 32.171875 45.75 26.171875 45.75 
Q 20.3125 45.75 16.375 40.96875 
Q 12.453125 36.1875 12.453125 25.875 
z
" id="ArialMT-64"/>
     <path d="M 40.4375 6.390625 
Q 35.546875 2.25 31.03125 0.53125 
Q 26.515625 -1.171875 21.34375 -1.171875 
Q 12.796875 -1.171875 8.203125 3 
Q 3.609375 7.171875 3.609375 13.671875 
Q 3.609375 17.484375 5.34375 20.625 
Q 7.078125 23.78125 9.890625 25.6875 
Q 12.703125 27.59375 16.21875 28.5625 
Q 18.796875 29.25 24.03125 29.890625 
Q 34.671875 31.15625 39.703125 32.90625 
Q 39.75 34.71875 39.75 35.203125 
Q 39.75 40.578125 37.25 42.78125 
Q 33.890625 45.75 27.25 45.75 
Q 21.046875 45.75 18.09375 43.578125 
Q 15.140625 41.40625 13.71875 35.890625 
L 5.125 37.0625 
Q 6.296875 42.578125 8.984375 45.96875 
Q 11.671875 49.359375 16.75 51.1875 
Q 21.828125 53.03125 28.515625 53.03125 
Q 35.15625 53.03125 39.296875 51.46875 
Q 43.453125 49.90625 45.40625 47.53125 
Q 47.359375 45.171875 48.140625 41.546875 
Q 48.578125 39.3125 48.578125 33.453125 
L 48.578125 21.734375 
Q 48.578125 9.46875 49.140625 6.21875 
Q 49.703125 2.984375 51.375 0 
L 42.1875 0 
Q 40.828125 2.734375 40.4375 6.390625 
z
M 39.703125 26.03125 
Q 34.90625 24.078125 25.34375 22.703125 
Q 19.921875 21.921875 17.671875 20.9375 
Q 15.4375 19.96875 14.203125 18.09375 
Q 12.984375 16.21875 12.984375 13.921875 
Q 12.984375 10.40625 15.640625 8.0625 
Q 18.3125 5.71875 23.4375 5.71875 
Q 28.515625 5.71875 32.46875 7.9375 
Q 36.421875 10.15625 38.28125 14.015625 
Q 39.703125 17 39.703125 22.796875 
z
" id="ArialMT-61"/>
     <path d="M 9.328125 0 
L 9.328125 71.578125 
L 18.796875 71.578125 
L 18.796875 0 
z
" id="ArialMT-49"/>
    </defs>
    <g style="fill:#262626;" transform="translate(173.289687 63.12)scale(0.1 -0.1)">
     <use xlink:href="#ArialMT-41"/>
     <use x="66.699219" xlink:href="#ArialMT-6c"/>
     <use x="88.916016" xlink:href="#ArialMT-6c"/>
     <use x="111.132812" xlink:href="#ArialMT-69"/>
     <use x="133.349609" xlink:href="#ArialMT-65"/>
     <use x="188.964844" xlink:href="#ArialMT-73"/>
     <use x="238.964844" xlink:href="#ArialMT-20"/>
     <use x="266.748047" xlink:href="#ArialMT-6f"/>
     <use x="322.363281" xlink:href="#ArialMT-66"/>
     <use x="350.146484" xlink:href="#ArialMT-20"/>
     <use x="377.929688" xlink:href="#ArialMT-57"/>
     <use x="472.298828" xlink:href="#ArialMT-6f"/>
     <use x="527.914062" xlink:href="#ArialMT-72"/>
     <use x="561.214844" xlink:href="#ArialMT-6c"/>
     <use x="583.431641" xlink:href="#ArialMT-64"/>
     <use x="639.046875" xlink:href="#ArialMT-20"/>
     <use x="666.830078" xlink:href="#ArialMT-57"/>
     <use x="761.167969" xlink:href="#ArialMT-61"/>
     <use x="816.783203" xlink:href="#ArialMT-72"/>
     <use x="850.083984" xlink:href="#ArialMT-20"/>
     <use x="877.867188" xlink:href="#ArialMT-49"/>
     <use x="905.650391" xlink:href="#ArialMT-49"/>
    </g>
   </g>
  </g>
  <g id="axes_2">
   <g id="patch_7">
    <path d="M 439.2 255.744 
L 752.4 255.744 
L 752.4 69.12 
L 439.2 69.12 
z
" style="fill:#ffffff;"/>
   </g>
   <g id="matplotlib.axis_3">
    <g id="xtick_5">
     <g id="line2d_15">
      <path clip-path="url(#p85ffe88986)" d="M 451.152179 255.744 
L 451.152179 69.12 
" style="fill:none;stroke:#ffffff;stroke-width:1.4;"/>
     </g>
     <g id="line2d_16"/>
    </g>
    <g id="xtick_6">
     <g id="line2d_17">
      <path clip-path="url(#p85ffe88986)" d="M 541.557067 255.744 
L 541.557067 69.12 
" style="fill:none;stroke:#ffffff;stroke-width:1.4;"/>
     </g>
     <g id="line2d_18"/>
    </g>
    <g id="xtick_7">
     <g id="line2d_19">
      <path clip-path="url(#p85ffe88986)" d="M 631.961955 255.744 
L 631.961955 69.12 
" style="fill:none;stroke:#ffffff;stroke-width:1.4;"/>
     </g>
     <g id="line2d_20"/>
    </g>
    <g id="xtick_8">
     <g id="line2d_21">
      <path clip-path="url(#p85ffe88986)" d="M 722.366844 255.744 
L 722.366844 69.12 
" style="fill:none;stroke:#ffffff;stroke-width:1.4;"/>
     </g>
     <g id="line2d_22"/>
    </g>
   </g>
   <g id="matplotlib.axis_4">
    <g id="ytick_4">
     <g id="line2d_23">
      <path clip-path="url(#p85ffe88986)" d="M 439.2 245.027862 
L 752.4 245.027862 
" style="fill:none;stroke:#ffffff;stroke-width:1.4;"/>
     </g>
     <g id="line2d_24"/>
    </g>
    <g id="ytick_5">
     <g id="line2d_25">
      <path clip-path="url(#p85ffe88986)" d="M 439.2 162.324298 
L 752.4 162.324298 
" style="fill:none;stroke:#ffffff;stroke-width:1.4;"/>
     </g>
     <g id="line2d_26"/>
    </g>
    <g id="ytick_6">
     <g id="line2d_27">
      <path clip-path="url(#p85ffe88986)" d="M 439.2 79.620734 
L 752.4 79.620734 
" style="fill:none;stroke:#ffffff;stroke-width:1.4;"/>
     </g>
     <g id="line2d_28"/>
    </g>
   </g>
   <g id="PathCollection_2">
    <defs>
     <path d="M 0 2.236068 
C 0.593012 2.236068 1.161816 2.000462 1.581139 1.581139 
C 2.000462 1.161816 2.236068 0.593012 2.236068 0 
C 2.236068 -0.593012 2.000462 -1.161816 1.581139 -1.581139 
C 1.161816 -2.000462 0.593012 -2.236068 0 -2.236068 
C -0.593012 -2.236068 -1.161816 -2.000462 -1.581139 -1.581139 
C -2.000462 -1.161816 -2.236068 -0.593012 -2.236068 0 
C -2.236068 0.593012 -2.000462 1.161816 -1.581139 1.581139 
C -1.161816 2.000462 -0.593012 2.236068 0 2.236068 
z
" id="C1_0_be31ca09ba"/>
    </defs>
    <g clip-path="url(#p85ffe88986)">
     <use style="fill:#d55e00;" x="455.672423" xlink:href="#C1_0_be31ca09ba" y="128.720042"/>
    </g>
    <g clip-path="url(#p85ffe88986)">
     <use style="fill:#d55e00;" x="460.192668" xlink:href="#C1_0_be31ca09ba" y="117.793391"/>
    </g>
    <g clip-path="url(#p85ffe88986)">
     <use style="fill:#d55e00;" x="464.712912" xlink:href="#C1_0_be31ca09ba" y="118.998333"/>
    </g>
    <g clip-path="url(#p85ffe88986)">
     <use style="fill:#d55e00;" x="469.233156" xlink:href="#C1_0_be31ca09ba" y="136.871008"/>
    </g>
    <g clip-path="url(#p85ffe88986)">
     <use style="fill:#d55e00;" x="473.753401" xlink:href="#C1_0_be31ca09ba" y="123.715517"/>
    </g>
    <g clip-path="url(#p85ffe88986)">
     <use style="fill:#d55e00;" x="478.273645" xlink:href="#C1_0_be31ca09ba" y="187.924469"/>
    </g>
    <g clip-path="url(#p85ffe88986)">
     <use style="fill:#d55e00;" x="482.79389" xlink:href="#C1_0_be31ca09ba" y="190.666682"/>
    </g>
    <g clip-path="url(#p85ffe88986)">
     <use style="fill:#d55e00;" x="487.314134" xlink:href="#C1_0_be31ca09ba" y="137.339551"/>
    </g>
    <g clip-path="url(#p85ffe88986)">
     <use style="fill:#d55e00;" x="491.834379" xlink:href="#C1_0_be31ca09ba" y="152.748198"/>
    </g>
    <g clip-path="url(#p85ffe88986)">
     <use style="fill:#d55e00;" x="496.354623" xlink:href="#C1_0_be31ca09ba" y="164.744425"/>
    </g>
    <g clip-path="url(#p85ffe88986)">
     <use style="fill:#d55e00;" x="500.874867" xlink:href="#C1_0_be31ca09ba" y="188.684287"/>
    </g>
    <g clip-path="url(#p85ffe88986)">
     <use style="fill:#d55e00;" x="505.395112" xlink:href="#C1_0_be31ca09ba" y="116.999826"/>
    </g>
    <g clip-path="url(#p85ffe88986)">
     <use style="fill:#d55e00;" x="509.915356" xlink:href="#C1_0_be31ca09ba" y="136.359055"/>
    </g>
    <g clip-path="url(#p85ffe88986)">
     <use style="fill:#d55e00;" x="514.435601" xlink:href="#C1_0_be31ca09ba" y="179.24781"/>
    </g>
    <g clip-path="url(#p85ffe88986)">
     <use style="fill:#d55e00;" x="518.955845" xlink:href="#C1_0_be31ca09ba" y="150.316959"/>
    </g>
    <g clip-path="url(#p85ffe88986)">
     <use style="fill:#d55e00;" x="523.476089" xlink:href="#C1_0_be31ca09ba" y="146.960043"/>
    </g>
    <g clip-path="url(#p85ffe88986)">
     <use style="fill:#d55e00;" x="527.996334" xlink:href="#C1_0_be31ca09ba" y="138.932579"/>
    </g>
    <g clip-path="url(#p85ffe88986)">
     <use style="fill:#d55e00;" x="532.516578" xlink:href="#C1_0_be31ca09ba" y="156.875787"/>
    </g>
    <g clip-path="url(#p85ffe88986)">
     <use style="fill:#d55e00;" x="537.036823" xlink:href="#C1_0_be31ca09ba" y="109.713514"/>
    </g>
    <g clip-path="url(#p85ffe88986)">
     <use style="fill:#d55e00;" x="541.557067" xlink:href="#C1_0_be31ca09ba" y="134.646172"/>
    </g>
    <g clip-path="url(#p85ffe88986)">
     <use style="fill:#d55e00;" x="546.077311" xlink:href="#C1_0_be31ca09ba" y="115.691618"/>
    </g>
    <g clip-path="url(#p85ffe88986)">
     <use style="fill:#d55e00;" x="550.597556" xlink:href="#C1_0_be31ca09ba" y="150.184517"/>
    </g>
    <g clip-path="url(#p85ffe88986)">
     <use style="fill:#d55e00;" x="555.1178" xlink:href="#C1_0_be31ca09ba" y="95.127652"/>
    </g>
    <g clip-path="url(#p85ffe88986)">
     <use style="fill:#d55e00;" x="559.638045" xlink:href="#C1_0_be31ca09ba" y="123.95417"/>
    </g>
    <g clip-path="url(#p85ffe88986)">
     <use style="fill:#d55e00;" x="564.158289" xlink:href="#C1_0_be31ca09ba" y="126.205219"/>
    </g>
    <g clip-path="url(#p85ffe88986)">
     <use style="fill:#d55e00;" x="568.678534" xlink:href="#C1_0_be31ca09ba" y="114.514401"/>
    </g>
    <g clip-path="url(#p85ffe88986)">
     <use style="fill:#d55e00;" x="573.198778" xlink:href="#C1_0_be31ca09ba" y="117.078637"/>
    </g>
    <g clip-path="url(#p85ffe88986)">
     <use style="fill:#d55e00;" x="577.719022" xlink:href="#C1_0_be31ca09ba" y="109.14601"/>
    </g>
    <g clip-path="url(#p85ffe88986)">
     <use style="fill:#d55e00;" x="582.239267" xlink:href="#C1_0_be31ca09ba" y="211.552106"/>
    </g>
    <g clip-path="url(#p85ffe88986)">
     <use style="fill:#d55e00;" x="586.759511" xlink:href="#C1_0_be31ca09ba" y="245.027862"/>
    </g>
    <g clip-path="url(#p85ffe88986)">
     <use style="fill:#d55e00;" x="591.279756" xlink:href="#C1_0_be31ca09ba" y="127.584206"/>
    </g>
    <g clip-path="url(#p85ffe88986)">
     <use style="fill:#d55e00;" x="595.8" xlink:href="#C1_0_be31ca09ba" y="227.007228"/>
    </g>
    <g clip-path="url(#p85ffe88986)">
     <use style="fill:#d55e00;" x="600.320244" xlink:href="#C1_0_be31ca09ba" y="118.563666"/>
    </g>
    <g clip-path="url(#p85ffe88986)">
     <use style="fill:#d55e00;" x="604.840489" xlink:href="#C1_0_be31ca09ba" y="140.013771"/>
    </g>
    <g clip-path="url(#p85ffe88986)">
     <use style="fill:#d55e00;" x="609.360733" xlink:href="#C1_0_be31ca09ba" y="130.152611"/>
    </g>
    <g clip-path="url(#p85ffe88986)">
     <use style="fill:#d55e00;" x="613.880978" xlink:href="#C1_0_be31ca09ba" y="116.384901"/>
    </g>
    <g clip-path="url(#p85ffe88986)">
     <use style="fill:#d55e00;" x="618.401222" xlink:href="#C1_0_be31ca09ba" y="162.230652"/>
    </g>
    <g clip-path="url(#p85ffe88986)">
     <use style="fill:#d55e00;" x="622.921466" xlink:href="#C1_0_be31ca09ba" y="140.303038"/>
    </g>
    <g clip-path="url(#p85ffe88986)">
     <use style="fill:#d55e00;" x="627.441711" xlink:href="#C1_0_be31ca09ba" y="124.736988"/>
    </g>
    <g clip-path="url(#p85ffe88986)">
     <use style="fill:#d55e00;" x="631.961955" xlink:href="#C1_0_be31ca09ba" y="119.539568"/>
    </g>
    <g clip-path="url(#p85ffe88986)">
     <use style="fill:#d55e00;" x="636.4822" xlink:href="#C1_0_be31ca09ba" y="126.306409"/>
    </g>
    <g clip-path="url(#p85ffe88986)">
     <use style="fill:#d55e00;" x="641.002444" xlink:href="#C1_0_be31ca09ba" y="119.775926"/>
    </g>
    <g clip-path="url(#p85ffe88986)">
     <use style="fill:#d55e00;" x="645.522689" xlink:href="#C1_0_be31ca09ba" y="140.433151"/>
    </g>
    <g clip-path="url(#p85ffe88986)">
     <use style="fill:#d55e00;" x="650.042933" xlink:href="#C1_0_be31ca09ba" y="182.046984"/>
    </g>
    <g clip-path="url(#p85ffe88986)">
     <use style="fill:#d55e00;" x="654.563177" xlink:href="#C1_0_be31ca09ba" y="206.998357"/>
    </g>
    <g clip-path="url(#p85ffe88986)">
     <use style="fill:#d55e00;" x="659.083422" xlink:href="#C1_0_be31ca09ba" y="166.715416"/>
    </g>
    <g clip-path="url(#p85ffe88986)">
     <use style="fill:#d55e00;" x="663.603666" xlink:href="#C1_0_be31ca09ba" y="126.590362"/>
    </g>
    <g clip-path="url(#p85ffe88986)">
     <use style="fill:#d55e00;" x="668.123911" xlink:href="#C1_0_be31ca09ba" y="182.845809"/>
    </g>
    <g clip-path="url(#p85ffe88986)">
     <use style="fill:#d55e00;" x="672.644155" xlink:href="#C1_0_be31ca09ba" y="164.940649"/>
    </g>
    <g clip-path="url(#p85ffe88986)">
     <use style="fill:#d55e00;" x="677.164399" xlink:href="#C1_0_be31ca09ba" y="188.602401"/>
    </g>
    <g clip-path="url(#p85ffe88986)">
     <use style="fill:#d55e00;" x="681.684644" xlink:href="#C1_0_be31ca09ba" y="212.246926"/>
    </g>
    <g clip-path="url(#p85ffe88986)">
     <use style="fill:#d55e00;" x="686.204888" xlink:href="#C1_0_be31ca09ba" y="144.067862"/>
    </g>
    <g clip-path="url(#p85ffe88986)">
     <use style="fill:#d55e00;" x="690.725133" xlink:href="#C1_0_be31ca09ba" y="208.100248"/>
    </g>
    <g clip-path="url(#p85ffe88986)">
     <use style="fill:#d55e00;" x="695.245377" xlink:href="#C1_0_be31ca09ba" y="210.965445"/>
    </g>
    <g clip-path="url(#p85ffe88986)">
     <use style="fill:#d55e00;" x="699.765621" xlink:href="#C1_0_be31ca09ba" y="227.491123"/>
    </g>
    <g clip-path="url(#p85ffe88986)">
     <use style="fill:#d55e00;" x="704.285866" xlink:href="#C1_0_be31ca09ba" y="191.108446"/>
    </g>
    <g clip-path="url(#p85ffe88986)">
     <use style="fill:#d55e00;" x="708.80611" xlink:href="#C1_0_be31ca09ba" y="189.248609"/>
    </g>
    <g clip-path="url(#p85ffe88986)">
     <use style="fill:#d55e00;" x="713.326355" xlink:href="#C1_0_be31ca09ba" y="225.994795"/>
    </g>
    <g clip-path="url(#p85ffe88986)">
     <use style="fill:#d55e00;" x="717.846599" xlink:href="#C1_0_be31ca09ba" y="188.93417"/>
    </g>
    <g clip-path="url(#p85ffe88986)">
     <use style="fill:#d55e00;" x="722.366844" xlink:href="#C1_0_be31ca09ba" y="209.379869"/>
    </g>
    <g clip-path="url(#p85ffe88986)">
     <use style="fill:#d55e00;" x="726.887088" xlink:href="#C1_0_be31ca09ba" y="136.650906"/>
    </g>
    <g clip-path="url(#p85ffe88986)">
     <use style="fill:#d55e00;" x="731.407332" xlink:href="#C1_0_be31ca09ba" y="196.198496"/>
    </g>
    <g clip-path="url(#p85ffe88986)">
     <use style="fill:#d55e00;" x="735.927577" xlink:href="#C1_0_be31ca09ba" y="209.711077"/>
    </g>
   </g>
   <g id="patch_8">
    <path d="M 439.2 255.744 
L 439.2 69.12 
" style="fill:none;stroke:#bcbcbc;stroke-linecap:square;stroke-linejoin:miter;"/>
   </g>
   <g id="patch_9">
    <path d="M 752.4 255.744 
L 752.4 69.12 
" style="fill:none;stroke:#bcbcbc;stroke-linecap:square;stroke-linejoin:miter;"/>
   </g>
   <g id="patch_10">
    <path d="M 439.2 255.744 
L 752.4 255.744 
" style="fill:none;stroke:#bcbcbc;stroke-linecap:square;stroke-linejoin:miter;"/>
   </g>
   <g id="patch_11">
    <path d="M 439.2 69.12 
L 752.4 69.12 
" style="fill:none;stroke:#bcbcbc;stroke-linecap:square;stroke-linejoin:miter;"/>
   </g>
   <g id="text_5">
    <!-- Military -->
    <defs>
     <path d="M 7.421875 0 
L 7.421875 71.578125 
L 21.6875 71.578125 
L 38.625 20.90625 
Q 40.96875 13.8125 42.046875 10.296875 
Q 43.265625 14.203125 45.84375 21.78125 
L 62.984375 71.578125 
L 75.734375 71.578125 
L 75.734375 0 
L 66.609375 0 
L 66.609375 59.90625 
L 45.796875 0 
L 37.25 0 
L 16.546875 60.9375 
L 16.546875 0 
z
" id="ArialMT-4d"/>
     <path d="M 25.78125 7.859375 
L 27.046875 0.09375 
Q 23.34375 -0.6875 20.40625 -0.6875 
Q 15.625 -0.6875 12.984375 0.828125 
Q 10.359375 2.34375 9.28125 4.8125 
Q 8.203125 7.28125 8.203125 15.1875 
L 8.203125 45.015625 
L 1.765625 45.015625 
L 1.765625 51.859375 
L 8.203125 51.859375 
L 8.203125 64.703125 
L 16.9375 69.96875 
L 16.9375 51.859375 
L 25.78125 51.859375 
L 25.78125 45.015625 
L 16.9375 45.015625 
L 16.9375 14.703125 
Q 16.9375 10.9375 17.40625 9.859375 
Q 17.875 8.796875 18.921875 8.15625 
Q 19.96875 7.515625 21.921875 7.515625 
Q 23.390625 7.515625 25.78125 7.859375 
z
" id="ArialMT-74"/>
     <path d="M 6.203125 -19.96875 
L 5.21875 -11.71875 
Q 8.109375 -12.5 10.25 -12.5 
Q 13.1875 -12.5 14.9375 -11.515625 
Q 16.703125 -10.546875 17.828125 -8.796875 
Q 18.65625 -7.46875 20.515625 -2.25 
Q 20.75 -1.515625 21.296875 -0.09375 
L 1.609375 51.859375 
L 11.078125 51.859375 
L 21.875 21.828125 
Q 23.96875 16.109375 25.640625 9.8125 
Q 27.15625 15.875 29.25 21.625 
L 40.328125 51.859375 
L 49.125 51.859375 
L 29.390625 -0.875 
Q 26.21875 -9.421875 24.46875 -12.640625 
Q 22.125 -17 19.09375 -19.015625 
Q 16.0625 -21.046875 11.859375 -21.046875 
Q 9.328125 -21.046875 6.203125 -19.96875 
z
" id="ArialMT-79"/>
    </defs>
    <g style="fill:#262626;" transform="translate(579.967969 63.12)scale(0.1 -0.1)">
     <use xlink:href="#ArialMT-4d"/>
     <use x="83.300781" xlink:href="#ArialMT-69"/>
     <use x="105.517578" xlink:href="#ArialMT-6c"/>
     <use x="127.734375" xlink:href="#ArialMT-69"/>
     <use x="149.951172" xlink:href="#ArialMT-74"/>
     <use x="177.734375" xlink:href="#ArialMT-61"/>
     <use x="233.349609" xlink:href="#ArialMT-72"/>
     <use x="266.650391" xlink:href="#ArialMT-79"/>
    </g>
   </g>
   <g id="legend_1"/>
  </g>
  <g id="axes_3">
   <g id="patch_12">
    <path d="M 63.36 535.68 
L 376.56 535.68 
L 376.56 349.056 
L 63.36 349.056 
z
" style="fill:#ffffff;"/>
   </g>
   <g id="matplotlib.axis_5">
    <g id="xtick_9">
     <g id="line2d_29">
      <path clip-path="url(#p001875793d)" d="M 75.312179 535.68 
L 75.312179 349.056 
" style="fill:none;stroke:#ffffff;stroke-width:1.4;"/>
     </g>
     <g id="line2d_30"/>
     <g id="text_6">
      <!-- 0 -->
      <g style="fill:#7f7f7f;" transform="translate(69.751241 555.995625)scale(0.2 -0.2)">
       <use xlink:href="#ArialMT-30"/>
      </g>
     </g>
    </g>
    <g id="xtick_10">
     <g id="line2d_31">
      <path clip-path="url(#p001875793d)" d="M 165.717067 535.68 
L 165.717067 349.056 
" style="fill:none;stroke:#ffffff;stroke-width:1.4;"/>
     </g>
     <g id="line2d_32"/>
     <g id="text_7">
      <!-- 20 -->
      <defs>
       <path d="M 50.34375 8.453125 
L 50.34375 0 
L 3.03125 0 
Q 2.9375 3.171875 4.046875 6.109375 
Q 5.859375 10.9375 9.828125 15.625 
Q 13.8125 20.3125 21.34375 26.46875 
Q 33.015625 36.03125 37.109375 41.625 
Q 41.21875 47.21875 41.21875 52.203125 
Q 41.21875 57.421875 37.46875 61 
Q 33.734375 64.59375 27.734375 64.59375 
Q 21.390625 64.59375 17.578125 60.78125 
Q 13.765625 56.984375 13.71875 50.25 
L 4.6875 51.171875 
Q 5.609375 61.28125 11.65625 66.578125 
Q 17.71875 71.875 27.9375 71.875 
Q 38.234375 71.875 44.234375 66.15625 
Q 50.25 60.453125 50.25 52 
Q 50.25 47.703125 48.484375 43.546875 
Q 46.734375 39.40625 42.65625 34.8125 
Q 38.578125 30.21875 29.109375 22.21875 
Q 21.1875 15.578125 18.9375 13.203125 
Q 16.703125 10.84375 15.234375 8.453125 
z
" id="ArialMT-32"/>
      </defs>
      <g style="fill:#7f7f7f;" transform="translate(154.595192 555.995625)scale(0.2 -0.2)">
       <use xlink:href="#ArialMT-32"/>
       <use x="55.615234" xlink:href="#ArialMT-30"/>
      </g>
     </g>
    </g>
    <g id="xtick_11">
     <g id="line2d_33">
      <path clip-path="url(#p001875793d)" d="M 256.121955 535.68 
L 256.121955 349.056 
" style="fill:none;stroke:#ffffff;stroke-width:1.4;"/>
     </g>
     <g id="line2d_34"/>
     <g id="text_8">
      <!-- 40 -->
      <defs>
       <path d="M 32.328125 0 
L 32.328125 17.140625 
L 1.265625 17.140625 
L 1.265625 25.203125 
L 33.9375 71.578125 
L 41.109375 71.578125 
L 41.109375 25.203125 
L 50.78125 25.203125 
L 50.78125 17.140625 
L 41.109375 17.140625 
L 41.109375 0 
z
M 32.328125 25.203125 
L 32.328125 57.46875 
L 9.90625 25.203125 
z
" id="ArialMT-34"/>
      </defs>
      <g style="fill:#7f7f7f;" transform="translate(245.00008 555.995625)scale(0.2 -0.2)">
       <use xlink:href="#ArialMT-34"/>
       <use x="55.615234" xlink:href="#ArialMT-30"/>
      </g>
     </g>
    </g>
    <g id="xtick_12">
     <g id="line2d_35">
      <path clip-path="url(#p001875793d)" d="M 346.526844 535.68 
L 346.526844 349.056 
" style="fill:none;stroke:#ffffff;stroke-width:1.4;"/>
     </g>
     <g id="line2d_36"/>
     <g id="text_9">
      <!-- 60 -->
      <defs>
       <path d="M 49.75 54.046875 
L 41.015625 53.375 
Q 39.84375 58.546875 37.703125 60.890625 
Q 34.125 64.65625 28.90625 64.65625 
Q 24.703125 64.65625 21.53125 62.3125 
Q 17.390625 59.28125 14.984375 53.46875 
Q 12.59375 47.65625 12.5 36.921875 
Q 15.671875 41.75 20.265625 44.09375 
Q 24.859375 46.4375 29.890625 46.4375 
Q 38.671875 46.4375 44.84375 39.96875 
Q 51.03125 33.5 51.03125 23.25 
Q 51.03125 16.5 48.125 10.71875 
Q 45.21875 4.9375 40.140625 1.859375 
Q 35.0625 -1.21875 28.609375 -1.21875 
Q 17.625 -1.21875 10.6875 6.859375 
Q 3.765625 14.9375 3.765625 33.5 
Q 3.765625 54.25 11.421875 63.671875 
Q 18.109375 71.875 29.4375 71.875 
Q 37.890625 71.875 43.28125 67.140625 
Q 48.6875 62.40625 49.75 54.046875 
z
M 13.875 23.1875 
Q 13.875 18.65625 15.796875 14.5 
Q 17.71875 10.359375 21.1875 8.171875 
Q 24.65625 6 28.46875 6 
Q 34.03125 6 38.03125 10.484375 
Q 42.046875 14.984375 42.046875 22.703125 
Q 42.046875 30.125 38.078125 34.390625 
Q 34.125 38.671875 28.125 38.671875 
Q 22.171875 38.671875 18.015625 34.390625 
Q 13.875 30.125 13.875 23.1875 
z
" id="ArialMT-36"/>
      </defs>
      <g style="fill:#7f7f7f;" transform="translate(335.404969 555.995625)scale(0.2 -0.2)">
       <use xlink:href="#ArialMT-36"/>
       <use x="55.615234" xlink:href="#ArialMT-30"/>
      </g>
     </g>
    </g>
   </g>
   <g id="matplotlib.axis_6">
    <g id="ytick_7">
     <g id="line2d_37">
      <path clip-path="url(#p001875793d)" d="M 63.36 524.963862 
L 376.56 524.963862 
" style="fill:none;stroke:#ffffff;stroke-width:1.4;"/>
     </g>
     <g id="line2d_38"/>
     <g id="text_10">
      <!-- 0.0 -->
      <g style="fill:#7f7f7f;" transform="translate(29.56 532.121674)scale(0.2 -0.2)">
       <use xlink:href="#ArialMT-30"/>
       <use x="55.615234" xlink:href="#ArialMT-2e"/>
       <use x="83.398438" xlink:href="#ArialMT-30"/>
      </g>
     </g>
    </g>
    <g id="ytick_8">
     <g id="line2d_39">
      <path clip-path="url(#p001875793d)" d="M 63.36 442.260298 
L 376.56 442.260298 
" style="fill:none;stroke:#ffffff;stroke-width:1.4;"/>
     </g>
     <g id="line2d_40"/>
     <g id="text_11">
      <!-- 0.5 -->
      <g style="fill:#7f7f7f;" transform="translate(29.56 449.41811)scale(0.2 -0.2)">
       <use xlink:href="#ArialMT-30"/>
       <use x="55.615234" xlink:href="#ArialMT-2e"/>
       <use x="83.398438" xlink:href="#ArialMT-35"/>
      </g>
     </g>
    </g>
    <g id="ytick_9">
     <g id="line2d_41">
      <path clip-path="url(#p001875793d)" d="M 63.36 359.556734 
L 376.56 359.556734 
" style="fill:none;stroke:#ffffff;stroke-width:1.4;"/>
     </g>
     <g id="line2d_42"/>
     <g id="text_12">
      <!-- 1.0 -->
      <g style="fill:#7f7f7f;" transform="translate(29.56 366.714546)scale(0.2 -0.2)">
       <use xlink:href="#ArialMT-31"/>
       <use x="55.615234" xlink:href="#ArialMT-2e"/>
       <use x="83.398438" xlink:href="#ArialMT-30"/>
      </g>
     </g>
    </g>
   </g>
   <g id="PathCollection_3">
    <defs>
     <path d="M 0 2.236068 
C 0.593012 2.236068 1.161816 2.000462 1.581139 1.581139 
C 2.000462 1.161816 2.236068 0.593012 2.236068 0 
C 2.236068 -0.593012 2.000462 -1.161816 1.581139 -1.581139 
C 1.161816 -2.000462 0.593012 -2.236068 0 -2.236068 
C -0.593012 -2.236068 -1.161816 -2.000462 -1.581139 -1.581139 
C -2.000462 -1.161816 -2.236068 -0.593012 -2.236068 0 
C -2.236068 0.593012 -2.000462 1.161816 -1.581139 1.581139 
C -1.161816 2.000462 -0.593012 2.236068 0 2.236068 
z
" id="C2_0_a8f63f15b1"/>
    </defs>
    <g clip-path="url(#p001875793d)">
     <use style="fill:#d55e00;" x="79.832423" xlink:href="#C2_0_a8f63f15b1" y="524.963862"/>
    </g>
    <g clip-path="url(#p001875793d)">
     <use style="fill:#d55e00;" x="84.352668" xlink:href="#C2_0_a8f63f15b1" y="524.963862"/>
    </g>
    <g clip-path="url(#p001875793d)">
     <use style="fill:#d55e00;" x="88.872912" xlink:href="#C2_0_a8f63f15b1" y="524.963862"/>
    </g>
    <g clip-path="url(#p001875793d)">
     <use style="fill:#d55e00;" x="93.393156" xlink:href="#C2_0_a8f63f15b1" y="524.963862"/>
    </g>
    <g clip-path="url(#p001875793d)">
     <use style="fill:#d55e00;" x="97.913401" xlink:href="#C2_0_a8f63f15b1" y="359.556734"/>
    </g>
    <g clip-path="url(#p001875793d)">
     <use style="fill:#d55e00;" x="102.433645" xlink:href="#C2_0_a8f63f15b1" y="524.963862"/>
    </g>
    <g clip-path="url(#p001875793d)">
     <use style="fill:#d55e00;" x="106.95389" xlink:href="#C2_0_a8f63f15b1" y="524.963862"/>
    </g>
    <g clip-path="url(#p001875793d)">
     <use style="fill:#d55e00;" x="111.474134" xlink:href="#C2_0_a8f63f15b1" y="359.556734"/>
    </g>
    <g clip-path="url(#p001875793d)">
     <use style="fill:#d55e00;" x="115.994379" xlink:href="#C2_0_a8f63f15b1" y="386.567718"/>
    </g>
    <g clip-path="url(#p001875793d)">
     <use style="fill:#d55e00;" x="120.514623" xlink:href="#C2_0_a8f63f15b1" y="430.119415"/>
    </g>
    <g clip-path="url(#p001875793d)">
     <use style="fill:#d55e00;" x="125.034867" xlink:href="#C2_0_a8f63f15b1" y="524.963862"/>
    </g>
    <g clip-path="url(#p001875793d)">
     <use style="fill:#d55e00;" x="129.555112" xlink:href="#C2_0_a8f63f15b1" y="524.963862"/>
    </g>
    <g clip-path="url(#p001875793d)">
     <use style="fill:#d55e00;" x="134.075356" xlink:href="#C2_0_a8f63f15b1" y="524.963862"/>
    </g>
    <g clip-path="url(#p001875793d)">
     <use style="fill:#d55e00;" x="138.595601" xlink:href="#C2_0_a8f63f15b1" y="524.963862"/>
    </g>
    <g clip-path="url(#p001875793d)">
     <use style="fill:#d55e00;" x="143.115845" xlink:href="#C2_0_a8f63f15b1" y="524.963862"/>
    </g>
    <g clip-path="url(#p001875793d)">
     <use style="fill:#d55e00;" x="147.636089" xlink:href="#C2_0_a8f63f15b1" y="524.963862"/>
    </g>
    <g clip-path="url(#p001875793d)">
     <use style="fill:#d55e00;" x="152.156334" xlink:href="#C2_0_a8f63f15b1" y="524.963862"/>
    </g>
    <g clip-path="url(#p001875793d)">
     <use style="fill:#d55e00;" x="156.676578" xlink:href="#C2_0_a8f63f15b1" y="524.963862"/>
    </g>
    <g clip-path="url(#p001875793d)">
     <use style="fill:#d55e00;" x="161.196823" xlink:href="#C2_0_a8f63f15b1" y="524.963862"/>
    </g>
    <g clip-path="url(#p001875793d)">
     <use style="fill:#d55e00;" x="165.717067" xlink:href="#C2_0_a8f63f15b1" y="524.963862"/>
    </g>
    <g clip-path="url(#p001875793d)">
     <use style="fill:#d55e00;" x="170.237311" xlink:href="#C2_0_a8f63f15b1" y="524.963862"/>
    </g>
    <g clip-path="url(#p001875793d)">
     <use style="fill:#d55e00;" x="174.757556" xlink:href="#C2_0_a8f63f15b1" y="524.963862"/>
    </g>
    <g clip-path="url(#p001875793d)">
     <use style="fill:#d55e00;" x="179.2778" xlink:href="#C2_0_a8f63f15b1" y="524.963862"/>
    </g>
    <g clip-path="url(#p001875793d)">
     <use style="fill:#d55e00;" x="183.798045" xlink:href="#C2_0_a8f63f15b1" y="524.963862"/>
    </g>
    <g clip-path="url(#p001875793d)">
     <use style="fill:#d55e00;" x="188.318289" xlink:href="#C2_0_a8f63f15b1" y="524.963862"/>
    </g>
    <g clip-path="url(#p001875793d)">
     <use style="fill:#d55e00;" x="192.838534" xlink:href="#C2_0_a8f63f15b1" y="524.963862"/>
    </g>
    <g clip-path="url(#p001875793d)">
     <use style="fill:#d55e00;" x="197.358778" xlink:href="#C2_0_a8f63f15b1" y="524.963862"/>
    </g>
    <g clip-path="url(#p001875793d)">
     <use style="fill:#d55e00;" x="201.879022" xlink:href="#C2_0_a8f63f15b1" y="524.963862"/>
    </g>
    <g clip-path="url(#p001875793d)">
     <use style="fill:#d55e00;" x="206.399267" xlink:href="#C2_0_a8f63f15b1" y="524.963862"/>
    </g>
    <g clip-path="url(#p001875793d)">
     <use style="fill:#d55e00;" x="210.919511" xlink:href="#C2_0_a8f63f15b1" y="524.963862"/>
    </g>
    <g clip-path="url(#p001875793d)">
     <use style="fill:#d55e00;" x="215.439756" xlink:href="#C2_0_a8f63f15b1" y="524.963862"/>
    </g>
    <g clip-path="url(#p001875793d)">
     <use style="fill:#d55e00;" x="219.96" xlink:href="#C2_0_a8f63f15b1" y="524.963862"/>
    </g>
    <g clip-path="url(#p001875793d)">
     <use style="fill:#d55e00;" x="224.480244" xlink:href="#C2_0_a8f63f15b1" y="524.963862"/>
    </g>
    <g clip-path="url(#p001875793d)">
     <use style="fill:#d55e00;" x="229.000489" xlink:href="#C2_0_a8f63f15b1" y="524.963862"/>
    </g>
    <g clip-path="url(#p001875793d)">
     <use style="fill:#d55e00;" x="233.520733" xlink:href="#C2_0_a8f63f15b1" y="524.963862"/>
    </g>
    <g clip-path="url(#p001875793d)">
     <use style="fill:#d55e00;" x="238.040978" xlink:href="#C2_0_a8f63f15b1" y="524.963862"/>
    </g>
    <g clip-path="url(#p001875793d)">
     <use style="fill:#d55e00;" x="242.561222" xlink:href="#C2_0_a8f63f15b1" y="524.963862"/>
    </g>
    <g clip-path="url(#p001875793d)">
     <use style="fill:#d55e00;" x="247.081466" xlink:href="#C2_0_a8f63f15b1" y="524.963862"/>
    </g>
    <g clip-path="url(#p001875793d)">
     <use style="fill:#d55e00;" x="251.601711" xlink:href="#C2_0_a8f63f15b1" y="524.963862"/>
    </g>
    <g clip-path="url(#p001875793d)">
     <use style="fill:#d55e00;" x="256.121955" xlink:href="#C2_0_a8f63f15b1" y="524.963862"/>
    </g>
    <g clip-path="url(#p001875793d)">
     <use style="fill:#d55e00;" x="260.6422" xlink:href="#C2_0_a8f63f15b1" y="524.963862"/>
    </g>
    <g clip-path="url(#p001875793d)">
     <use style="fill:#d55e00;" x="265.162444" xlink:href="#C2_0_a8f63f15b1" y="524.963862"/>
    </g>
    <g clip-path="url(#p001875793d)">
     <use style="fill:#d55e00;" x="269.682689" xlink:href="#C2_0_a8f63f15b1" y="359.556734"/>
    </g>
    <g clip-path="url(#p001875793d)">
     <use style="fill:#d55e00;" x="274.202933" xlink:href="#C2_0_a8f63f15b1" y="524.963862"/>
    </g>
    <g clip-path="url(#p001875793d)">
     <use style="fill:#d55e00;" x="278.723177" xlink:href="#C2_0_a8f63f15b1" y="524.963862"/>
    </g>
    <g clip-path="url(#p001875793d)">
     <use style="fill:#d55e00;" x="283.243422" xlink:href="#C2_0_a8f63f15b1" y="524.963862"/>
    </g>
    <g clip-path="url(#p001875793d)">
     <use style="fill:#d55e00;" x="287.763666" xlink:href="#C2_0_a8f63f15b1" y="524.963862"/>
    </g>
    <g clip-path="url(#p001875793d)">
     <use style="fill:#d55e00;" x="292.283911" xlink:href="#C2_0_a8f63f15b1" y="524.963862"/>
    </g>
    <g clip-path="url(#p001875793d)">
     <use style="fill:#d55e00;" x="296.804155" xlink:href="#C2_0_a8f63f15b1" y="359.556734"/>
    </g>
    <g clip-path="url(#p001875793d)">
     <use style="fill:#d55e00;" x="301.324399" xlink:href="#C2_0_a8f63f15b1" y="524.963862"/>
    </g>
    <g clip-path="url(#p001875793d)">
     <use style="fill:#d55e00;" x="305.844644" xlink:href="#C2_0_a8f63f15b1" y="524.963862"/>
    </g>
    <g clip-path="url(#p001875793d)">
     <use style="fill:#d55e00;" x="310.364888" xlink:href="#C2_0_a8f63f15b1" y="524.963862"/>
    </g>
    <g clip-path="url(#p001875793d)">
     <use style="fill:#d55e00;" x="314.885133" xlink:href="#C2_0_a8f63f15b1" y="524.963862"/>
    </g>
    <g clip-path="url(#p001875793d)">
     <use style="fill:#d55e00;" x="319.405377" xlink:href="#C2_0_a8f63f15b1" y="524.963862"/>
    </g>
    <g clip-path="url(#p001875793d)">
     <use style="fill:#d55e00;" x="323.925621" xlink:href="#C2_0_a8f63f15b1" y="524.963862"/>
    </g>
    <g clip-path="url(#p001875793d)">
     <use style="fill:#d55e00;" x="328.445866" xlink:href="#C2_0_a8f63f15b1" y="445.08876"/>
    </g>
    <g clip-path="url(#p001875793d)">
     <use style="fill:#d55e00;" x="332.96611" xlink:href="#C2_0_a8f63f15b1" y="524.963862"/>
    </g>
    <g clip-path="url(#p001875793d)">
     <use style="fill:#d55e00;" x="337.486355" xlink:href="#C2_0_a8f63f15b1" y="524.963862"/>
    </g>
    <g clip-path="url(#p001875793d)">
     <use style="fill:#d55e00;" x="342.006599" xlink:href="#C2_0_a8f63f15b1" y="524.963862"/>
    </g>
    <g clip-path="url(#p001875793d)">
     <use style="fill:#d55e00;" x="346.526844" xlink:href="#C2_0_a8f63f15b1" y="524.963862"/>
    </g>
    <g clip-path="url(#p001875793d)">
     <use style="fill:#d55e00;" x="351.047088" xlink:href="#C2_0_a8f63f15b1" y="524.963862"/>
    </g>
    <g clip-path="url(#p001875793d)">
     <use style="fill:#d55e00;" x="355.567332" xlink:href="#C2_0_a8f63f15b1" y="524.963862"/>
    </g>
    <g clip-path="url(#p001875793d)">
     <use style="fill:#d55e00;" x="360.087577" xlink:href="#C2_0_a8f63f15b1" y="524.963862"/>
    </g>
   </g>
   <g id="patch_13">
    <path d="M 63.36 535.68 
L 63.36 349.056 
" style="fill:none;stroke:#bcbcbc;stroke-linecap:square;stroke-linejoin:miter;"/>
   </g>
   <g id="patch_14">
    <path d="M 376.56 535.68 
L 376.56 349.056 
" style="fill:none;stroke:#bcbcbc;stroke-linecap:square;stroke-linejoin:miter;"/>
   </g>
   <g id="patch_15">
    <path d="M 63.36 535.68 
L 376.56 535.68 
" style="fill:none;stroke:#bcbcbc;stroke-linecap:square;stroke-linejoin:miter;"/>
   </g>
   <g id="patch_16">
    <path d="M 63.36 349.056 
L 376.56 349.056 
" style="fill:none;stroke:#bcbcbc;stroke-linecap:square;stroke-linejoin:miter;"/>
   </g>
   <g id="text_13">
    <!-- Roy Brown (RAF officer) -->
    <defs>
     <path d="M 7.859375 0 
L 7.859375 71.578125 
L 39.59375 71.578125 
Q 49.171875 71.578125 54.140625 69.640625 
Q 59.125 67.71875 62.109375 62.828125 
Q 65.09375 57.953125 65.09375 52.046875 
Q 65.09375 44.4375 60.15625 39.203125 
Q 55.21875 33.984375 44.921875 32.5625 
Q 48.6875 30.765625 50.640625 29 
Q 54.78125 25.203125 58.5 19.484375 
L 70.953125 0 
L 59.03125 0 
L 49.5625 14.890625 
Q 45.40625 21.34375 42.71875 24.75 
Q 40.046875 28.171875 37.921875 29.53125 
Q 35.796875 30.90625 33.59375 31.453125 
Q 31.984375 31.78125 28.328125 31.78125 
L 17.328125 31.78125 
L 17.328125 0 
z
M 17.328125 39.984375 
L 37.703125 39.984375 
Q 44.1875 39.984375 47.84375 41.328125 
Q 51.515625 42.671875 53.421875 45.625 
Q 55.328125 48.578125 55.328125 52.046875 
Q 55.328125 57.125 51.640625 60.390625 
Q 47.953125 63.671875 39.984375 63.671875 
L 17.328125 63.671875 
z
" id="ArialMT-52"/>
     <path d="M 7.328125 0 
L 7.328125 71.578125 
L 34.1875 71.578125 
Q 42.390625 71.578125 47.34375 69.40625 
Q 52.296875 67.234375 55.09375 62.71875 
Q 57.90625 58.203125 57.90625 53.265625 
Q 57.90625 48.6875 55.421875 44.625 
Q 52.9375 40.578125 47.90625 38.09375 
Q 54.390625 36.1875 57.875 31.59375 
Q 61.375 27 61.375 20.75 
Q 61.375 15.71875 59.25 11.390625 
Q 57.125 7.078125 54 4.734375 
Q 50.875 2.390625 46.15625 1.1875 
Q 41.453125 0 34.625 0 
z
M 16.796875 41.5 
L 32.28125 41.5 
Q 38.578125 41.5 41.3125 42.328125 
Q 44.921875 43.40625 46.75 45.890625 
Q 48.578125 48.390625 48.578125 52.15625 
Q 48.578125 55.71875 46.875 58.421875 
Q 45.171875 61.140625 41.984375 62.140625 
Q 38.8125 63.140625 31.109375 63.140625 
L 16.796875 63.140625 
z
M 16.796875 8.453125 
L 34.625 8.453125 
Q 39.203125 8.453125 41.0625 8.796875 
Q 44.34375 9.375 46.53125 10.734375 
Q 48.734375 12.109375 50.140625 14.71875 
Q 51.5625 17.328125 51.5625 20.75 
Q 51.5625 24.75 49.515625 27.703125 
Q 47.46875 30.671875 43.828125 31.859375 
Q 40.1875 33.0625 33.34375 33.0625 
L 16.796875 33.0625 
z
" id="ArialMT-42"/>
     <path d="M 16.15625 0 
L 0.296875 51.859375 
L 9.375 51.859375 
L 17.625 21.921875 
L 20.703125 10.796875 
Q 20.90625 11.625 23.390625 21.484375 
L 31.640625 51.859375 
L 40.671875 51.859375 
L 48.4375 21.78125 
L 51.03125 11.859375 
L 54 21.875 
L 62.890625 51.859375 
L 71.4375 51.859375 
L 55.21875 0 
L 46.09375 0 
L 37.84375 31.0625 
L 35.84375 39.890625 
L 25.34375 0 
z
" id="ArialMT-77"/>
     <path d="M 6.59375 0 
L 6.59375 51.859375 
L 14.5 51.859375 
L 14.5 44.484375 
Q 20.21875 53.03125 31 53.03125 
Q 35.6875 53.03125 39.625 51.34375 
Q 43.5625 49.65625 45.515625 46.921875 
Q 47.46875 44.1875 48.25 40.4375 
Q 48.734375 37.984375 48.734375 31.890625 
L 48.734375 0 
L 39.9375 0 
L 39.9375 31.546875 
Q 39.9375 36.921875 38.90625 39.578125 
Q 37.890625 42.234375 35.28125 43.8125 
Q 32.671875 45.40625 29.15625 45.40625 
Q 23.53125 45.40625 19.453125 41.84375 
Q 15.375 38.28125 15.375 28.328125 
L 15.375 0 
z
" id="ArialMT-6e"/>
     <path d="M 23.390625 -21.046875 
Q 16.109375 -11.859375 11.078125 0.4375 
Q 6.0625 12.75 6.0625 25.921875 
Q 6.0625 37.546875 9.8125 48.1875 
Q 14.203125 60.546875 23.390625 72.796875 
L 29.6875 72.796875 
Q 23.78125 62.640625 21.875 58.296875 
Q 18.890625 51.5625 17.1875 44.234375 
Q 15.09375 35.109375 15.09375 25.875 
Q 15.09375 2.390625 29.6875 -21.046875 
z
" id="ArialMT-28"/>
     <path d="M 8.203125 0 
L 8.203125 71.578125 
L 56.5 71.578125 
L 56.5 63.140625 
L 17.671875 63.140625 
L 17.671875 40.96875 
L 51.265625 40.96875 
L 51.265625 32.515625 
L 17.671875 32.515625 
L 17.671875 0 
z
" id="ArialMT-46"/>
     <path d="M 40.4375 19 
L 49.078125 17.875 
Q 47.65625 8.9375 41.8125 3.875 
Q 35.984375 -1.171875 27.484375 -1.171875 
Q 16.84375 -1.171875 10.375 5.78125 
Q 3.90625 12.75 3.90625 25.734375 
Q 3.90625 34.125 6.6875 40.421875 
Q 9.46875 46.734375 15.15625 49.875 
Q 20.84375 53.03125 27.546875 53.03125 
Q 35.984375 53.03125 41.359375 48.75 
Q 46.734375 44.484375 48.25 36.625 
L 39.703125 35.296875 
Q 38.484375 40.53125 35.375 43.15625 
Q 32.28125 45.796875 27.875 45.796875 
Q 21.234375 45.796875 17.078125 41.03125 
Q 12.9375 36.28125 12.9375 25.984375 
Q 12.9375 15.53125 16.9375 10.796875 
Q 20.953125 6.0625 27.390625 6.0625 
Q 32.5625 6.0625 36.03125 9.234375 
Q 39.5 12.40625 40.4375 19 
z
" id="ArialMT-63"/>
     <path d="M 12.359375 -21.046875 
L 6.0625 -21.046875 
Q 20.65625 2.390625 20.65625 25.875 
Q 20.65625 35.0625 18.5625 44.09375 
Q 16.890625 51.421875 13.921875 58.15625 
Q 12.015625 62.546875 6.0625 72.796875 
L 12.359375 72.796875 
Q 21.53125 60.546875 25.921875 48.1875 
Q 29.6875 37.546875 29.6875 25.921875 
Q 29.6875 12.75 24.625 0.4375 
Q 19.578125 -11.859375 12.359375 -21.046875 
z
" id="ArialMT-29"/>
    </defs>
    <g style="fill:#262626;" transform="translate(165.785781 343.056)scale(0.1 -0.1)">
     <use xlink:href="#ArialMT-52"/>
     <use x="72.216797" xlink:href="#ArialMT-6f"/>
     <use x="127.832031" xlink:href="#ArialMT-79"/>
     <use x="177.832031" xlink:href="#ArialMT-20"/>
     <use x="205.615234" xlink:href="#ArialMT-42"/>
     <use x="272.314453" xlink:href="#ArialMT-72"/>
     <use x="305.615234" xlink:href="#ArialMT-6f"/>
     <use x="361.230469" xlink:href="#ArialMT-77"/>
     <use x="433.447266" xlink:href="#ArialMT-6e"/>
     <use x="489.0625" xlink:href="#ArialMT-20"/>
     <use x="516.845703" xlink:href="#ArialMT-28"/>
     <use x="550.146484" xlink:href="#ArialMT-52"/>
     <use x="622.363281" xlink:href="#ArialMT-41"/>
     <use x="689.0625" xlink:href="#ArialMT-46"/>
     <use x="750.146484" xlink:href="#ArialMT-20"/>
     <use x="777.929688" xlink:href="#ArialMT-6f"/>
     <use x="833.544922" xlink:href="#ArialMT-66"/>
     <use x="861.3125" xlink:href="#ArialMT-66"/>
     <use x="889.095703" xlink:href="#ArialMT-69"/>
     <use x="911.3125" xlink:href="#ArialMT-63"/>
     <use x="961.3125" xlink:href="#ArialMT-65"/>
     <use x="1016.927734" xlink:href="#ArialMT-72"/>
     <use x="1050.228516" xlink:href="#ArialMT-29"/>
    </g>
   </g>
  </g>
  <g id="axes_4">
   <g id="patch_17">
    <path d="M 439.2 535.68 
L 752.4 535.68 
L 752.4 349.056 
L 439.2 349.056 
z
" style="fill:#ffffff;"/>
   </g>
   <g id="matplotlib.axis_7">
    <g id="xtick_13">
     <g id="line2d_43">
      <path clip-path="url(#pa9a95007f4)" d="M 451.152179 535.68 
L 451.152179 349.056 
" style="fill:none;stroke:#ffffff;stroke-width:1.4;"/>
     </g>
     <g id="line2d_44"/>
     <g id="text_14">
      <!-- 0 -->
      <g style="fill:#7f7f7f;" transform="translate(445.591241 555.995625)scale(0.2 -0.2)">
       <use xlink:href="#ArialMT-30"/>
      </g>
     </g>
    </g>
    <g id="xtick_14">
     <g id="line2d_45">
      <path clip-path="url(#pa9a95007f4)" d="M 541.557067 535.68 
L 541.557067 349.056 
" style="fill:none;stroke:#ffffff;stroke-width:1.4;"/>
     </g>
     <g id="line2d_46"/>
     <g id="text_15">
      <!-- 20 -->
      <g style="fill:#7f7f7f;" transform="translate(530.435192 555.995625)scale(0.2 -0.2)">
       <use xlink:href="#ArialMT-32"/>
       <use x="55.615234" xlink:href="#ArialMT-30"/>
      </g>
     </g>
    </g>
    <g id="xtick_15">
     <g id="line2d_47">
      <path clip-path="url(#pa9a95007f4)" d="M 631.961955 535.68 
L 631.961955 349.056 
" style="fill:none;stroke:#ffffff;stroke-width:1.4;"/>
     </g>
     <g id="line2d_48"/>
     <g id="text_16">
      <!-- 40 -->
      <g style="fill:#7f7f7f;" transform="translate(620.84008 555.995625)scale(0.2 -0.2)">
       <use xlink:href="#ArialMT-34"/>
       <use x="55.615234" xlink:href="#ArialMT-30"/>
      </g>
     </g>
    </g>
    <g id="xtick_16">
     <g id="line2d_49">
      <path clip-path="url(#pa9a95007f4)" d="M 722.366844 535.68 
L 722.366844 349.056 
" style="fill:none;stroke:#ffffff;stroke-width:1.4;"/>
     </g>
     <g id="line2d_50"/>
     <g id="text_17">
      <!-- 60 -->
      <g style="fill:#7f7f7f;" transform="translate(711.244969 555.995625)scale(0.2 -0.2)">
       <use xlink:href="#ArialMT-36"/>
       <use x="55.615234" xlink:href="#ArialMT-30"/>
      </g>
     </g>
    </g>
   </g>
   <g id="matplotlib.axis_8">
    <g id="ytick_10">
     <g id="line2d_51">
      <path clip-path="url(#pa9a95007f4)" d="M 439.2 524.963862 
L 752.4 524.963862 
" style="fill:none;stroke:#ffffff;stroke-width:1.4;"/>
     </g>
     <g id="line2d_52"/>
    </g>
    <g id="ytick_11">
     <g id="line2d_53">
      <path clip-path="url(#pa9a95007f4)" d="M 439.2 442.260298 
L 752.4 442.260298 
" style="fill:none;stroke:#ffffff;stroke-width:1.4;"/>
     </g>
     <g id="line2d_54"/>
    </g>
    <g id="ytick_12">
     <g id="line2d_55">
      <path clip-path="url(#pa9a95007f4)" d="M 439.2 359.556734 
L 752.4 359.556734 
" style="fill:none;stroke:#ffffff;stroke-width:1.4;"/>
     </g>
     <g id="line2d_56"/>
    </g>
   </g>
   <g id="PathCollection_4">
    <defs>
     <path d="M 0 2.236068 
C 0.593012 2.236068 1.161816 2.000462 1.581139 1.581139 
C 2.000462 1.161816 2.236068 0.593012 2.236068 0 
C 2.236068 -0.593012 2.000462 -1.161816 1.581139 -1.581139 
C 1.161816 -2.000462 0.593012 -2.236068 0 -2.236068 
C -0.593012 -2.236068 -1.161816 -2.000462 -1.581139 -1.581139 
C -2.000462 -1.161816 -2.236068 -0.593012 -2.236068 0 
C -2.236068 0.593012 -2.000462 1.161816 -1.581139 1.581139 
C -1.161816 2.000462 -0.593012 2.236068 0 2.236068 
z
" id="C3_0_e82b2a5b98"/>
    </defs>
    <g clip-path="url(#pa9a95007f4)">
     <use style="fill:#d55e00;" x="455.672423" xlink:href="#C3_0_e82b2a5b98" y="524.963862"/>
    </g>
    <g clip-path="url(#pa9a95007f4)">
     <use style="fill:#d55e00;" x="460.192668" xlink:href="#C3_0_e82b2a5b98" y="524.963862"/>
    </g>
    <g clip-path="url(#pa9a95007f4)">
     <use style="fill:#d55e00;" x="464.712912" xlink:href="#C3_0_e82b2a5b98" y="524.963862"/>
    </g>
    <g clip-path="url(#pa9a95007f4)">
     <use style="fill:#d55e00;" x="469.233156" xlink:href="#C3_0_e82b2a5b98" y="524.963862"/>
    </g>
    <g clip-path="url(#pa9a95007f4)">
     <use style="fill:#d55e00;" x="473.753401" xlink:href="#C3_0_e82b2a5b98" y="524.963862"/>
    </g>
    <g clip-path="url(#pa9a95007f4)">
     <use style="fill:#d55e00;" x="478.273645" xlink:href="#C3_0_e82b2a5b98" y="524.963862"/>
    </g>
    <g clip-path="url(#pa9a95007f4)">
     <use style="fill:#d55e00;" x="482.79389" xlink:href="#C3_0_e82b2a5b98" y="524.963862"/>
    </g>
    <g clip-path="url(#pa9a95007f4)">
     <use style="fill:#d55e00;" x="487.314134" xlink:href="#C3_0_e82b2a5b98" y="524.963862"/>
    </g>
    <g clip-path="url(#pa9a95007f4)">
     <use style="fill:#d55e00;" x="491.834379" xlink:href="#C3_0_e82b2a5b98" y="524.963862"/>
    </g>
    <g clip-path="url(#pa9a95007f4)">
     <use style="fill:#d55e00;" x="496.354623" xlink:href="#C3_0_e82b2a5b98" y="524.963862"/>
    </g>
    <g clip-path="url(#pa9a95007f4)">
     <use style="fill:#d55e00;" x="500.874867" xlink:href="#C3_0_e82b2a5b98" y="524.963862"/>
    </g>
    <g clip-path="url(#pa9a95007f4)">
     <use style="fill:#d55e00;" x="505.395112" xlink:href="#C3_0_e82b2a5b98" y="524.963862"/>
    </g>
    <g clip-path="url(#pa9a95007f4)">
     <use style="fill:#d55e00;" x="509.915356" xlink:href="#C3_0_e82b2a5b98" y="524.963862"/>
    </g>
    <g clip-path="url(#pa9a95007f4)">
     <use style="fill:#d55e00;" x="514.435601" xlink:href="#C3_0_e82b2a5b98" y="524.963862"/>
    </g>
    <g clip-path="url(#pa9a95007f4)">
     <use style="fill:#d55e00;" x="518.955845" xlink:href="#C3_0_e82b2a5b98" y="524.963862"/>
    </g>
    <g clip-path="url(#pa9a95007f4)">
     <use style="fill:#d55e00;" x="523.476089" xlink:href="#C3_0_e82b2a5b98" y="524.963862"/>
    </g>
    <g clip-path="url(#pa9a95007f4)">
     <use style="fill:#d55e00;" x="527.996334" xlink:href="#C3_0_e82b2a5b98" y="524.963862"/>
    </g>
    <g clip-path="url(#pa9a95007f4)">
     <use style="fill:#d55e00;" x="532.516578" xlink:href="#C3_0_e82b2a5b98" y="524.963862"/>
    </g>
    <g clip-path="url(#pa9a95007f4)">
     <use style="fill:#d55e00;" x="537.036823" xlink:href="#C3_0_e82b2a5b98" y="524.963862"/>
    </g>
    <g clip-path="url(#pa9a95007f4)">
     <use style="fill:#d55e00;" x="541.557067" xlink:href="#C3_0_e82b2a5b98" y="524.963862"/>
    </g>
    <g clip-path="url(#pa9a95007f4)">
     <use style="fill:#d55e00;" x="546.077311" xlink:href="#C3_0_e82b2a5b98" y="524.963862"/>
    </g>
    <g clip-path="url(#pa9a95007f4)">
     <use style="fill:#d55e00;" x="550.597556" xlink:href="#C3_0_e82b2a5b98" y="524.963862"/>
    </g>
    <g clip-path="url(#pa9a95007f4)">
     <use style="fill:#d55e00;" x="555.1178" xlink:href="#C3_0_e82b2a5b98" y="524.963862"/>
    </g>
    <g clip-path="url(#pa9a95007f4)">
     <use style="fill:#d55e00;" x="559.638045" xlink:href="#C3_0_e82b2a5b98" y="524.963862"/>
    </g>
    <g clip-path="url(#pa9a95007f4)">
     <use style="fill:#d55e00;" x="564.158289" xlink:href="#C3_0_e82b2a5b98" y="524.963862"/>
    </g>
    <g clip-path="url(#pa9a95007f4)">
     <use style="fill:#d55e00;" x="568.678534" xlink:href="#C3_0_e82b2a5b98" y="524.963862"/>
    </g>
    <g clip-path="url(#pa9a95007f4)">
     <use style="fill:#d55e00;" x="573.198778" xlink:href="#C3_0_e82b2a5b98" y="524.963862"/>
    </g>
    <g clip-path="url(#pa9a95007f4)">
     <use style="fill:#d55e00;" x="577.719022" xlink:href="#C3_0_e82b2a5b98" y="524.963862"/>
    </g>
    <g clip-path="url(#pa9a95007f4)">
     <use style="fill:#d55e00;" x="582.239267" xlink:href="#C3_0_e82b2a5b98" y="524.963862"/>
    </g>
    <g clip-path="url(#pa9a95007f4)">
     <use style="fill:#d55e00;" x="586.759511" xlink:href="#C3_0_e82b2a5b98" y="524.963862"/>
    </g>
    <g clip-path="url(#pa9a95007f4)">
     <use style="fill:#d55e00;" x="591.279756" xlink:href="#C3_0_e82b2a5b98" y="524.963862"/>
    </g>
    <g clip-path="url(#pa9a95007f4)">
     <use style="fill:#d55e00;" x="595.8" xlink:href="#C3_0_e82b2a5b98" y="524.963862"/>
    </g>
    <g clip-path="url(#pa9a95007f4)">
     <use style="fill:#d55e00;" x="600.320244" xlink:href="#C3_0_e82b2a5b98" y="524.963862"/>
    </g>
    <g clip-path="url(#pa9a95007f4)">
     <use style="fill:#d55e00;" x="604.840489" xlink:href="#C3_0_e82b2a5b98" y="524.963862"/>
    </g>
    <g clip-path="url(#pa9a95007f4)">
     <use style="fill:#d55e00;" x="609.360733" xlink:href="#C3_0_e82b2a5b98" y="453.855338"/>
    </g>
    <g clip-path="url(#pa9a95007f4)">
     <use style="fill:#d55e00;" x="613.880978" xlink:href="#C3_0_e82b2a5b98" y="524.963862"/>
    </g>
    <g clip-path="url(#pa9a95007f4)">
     <use style="fill:#d55e00;" x="618.401222" xlink:href="#C3_0_e82b2a5b98" y="524.963862"/>
    </g>
    <g clip-path="url(#pa9a95007f4)">
     <use style="fill:#d55e00;" x="622.921466" xlink:href="#C3_0_e82b2a5b98" y="524.963862"/>
    </g>
    <g clip-path="url(#pa9a95007f4)">
     <use style="fill:#d55e00;" x="627.441711" xlink:href="#C3_0_e82b2a5b98" y="524.963862"/>
    </g>
    <g clip-path="url(#pa9a95007f4)">
     <use style="fill:#d55e00;" x="631.961955" xlink:href="#C3_0_e82b2a5b98" y="524.963862"/>
    </g>
    <g clip-path="url(#pa9a95007f4)">
     <use style="fill:#d55e00;" x="636.4822" xlink:href="#C3_0_e82b2a5b98" y="524.963862"/>
    </g>
    <g clip-path="url(#pa9a95007f4)">
     <use style="fill:#d55e00;" x="641.002444" xlink:href="#C3_0_e82b2a5b98" y="524.963862"/>
    </g>
    <g clip-path="url(#pa9a95007f4)">
     <use style="fill:#d55e00;" x="645.522689" xlink:href="#C3_0_e82b2a5b98" y="524.963862"/>
    </g>
    <g clip-path="url(#pa9a95007f4)">
     <use style="fill:#d55e00;" x="650.042933" xlink:href="#C3_0_e82b2a5b98" y="524.963862"/>
    </g>
    <g clip-path="url(#pa9a95007f4)">
     <use style="fill:#d55e00;" x="654.563177" xlink:href="#C3_0_e82b2a5b98" y="524.963862"/>
    </g>
    <g clip-path="url(#pa9a95007f4)">
     <use style="fill:#d55e00;" x="659.083422" xlink:href="#C3_0_e82b2a5b98" y="524.963862"/>
    </g>
    <g clip-path="url(#pa9a95007f4)">
     <use style="fill:#d55e00;" x="663.603666" xlink:href="#C3_0_e82b2a5b98" y="524.963862"/>
    </g>
    <g clip-path="url(#pa9a95007f4)">
     <use style="fill:#d55e00;" x="668.123911" xlink:href="#C3_0_e82b2a5b98" y="524.963862"/>
    </g>
    <g clip-path="url(#pa9a95007f4)">
     <use style="fill:#d55e00;" x="672.644155" xlink:href="#C3_0_e82b2a5b98" y="524.963862"/>
    </g>
    <g clip-path="url(#pa9a95007f4)">
     <use style="fill:#d55e00;" x="677.164399" xlink:href="#C3_0_e82b2a5b98" y="524.963862"/>
    </g>
    <g clip-path="url(#pa9a95007f4)">
     <use style="fill:#d55e00;" x="681.684644" xlink:href="#C3_0_e82b2a5b98" y="524.963862"/>
    </g>
    <g clip-path="url(#pa9a95007f4)">
     <use style="fill:#d55e00;" x="686.204888" xlink:href="#C3_0_e82b2a5b98" y="524.963862"/>
    </g>
    <g clip-path="url(#pa9a95007f4)">
     <use style="fill:#d55e00;" x="690.725133" xlink:href="#C3_0_e82b2a5b98" y="524.963862"/>
    </g>
    <g clip-path="url(#pa9a95007f4)">
     <use style="fill:#d55e00;" x="695.245377" xlink:href="#C3_0_e82b2a5b98" y="524.963862"/>
    </g>
    <g clip-path="url(#pa9a95007f4)">
     <use style="fill:#d55e00;" x="699.765621" xlink:href="#C3_0_e82b2a5b98" y="524.963862"/>
    </g>
    <g clip-path="url(#pa9a95007f4)">
     <use style="fill:#d55e00;" x="704.285866" xlink:href="#C3_0_e82b2a5b98" y="524.963862"/>
    </g>
    <g clip-path="url(#pa9a95007f4)">
     <use style="fill:#d55e00;" x="708.80611" xlink:href="#C3_0_e82b2a5b98" y="524.963862"/>
    </g>
    <g clip-path="url(#pa9a95007f4)">
     <use style="fill:#d55e00;" x="713.326355" xlink:href="#C3_0_e82b2a5b98" y="524.963862"/>
    </g>
    <g clip-path="url(#pa9a95007f4)">
     <use style="fill:#d55e00;" x="717.846599" xlink:href="#C3_0_e82b2a5b98" y="524.963862"/>
    </g>
    <g clip-path="url(#pa9a95007f4)">
     <use style="fill:#d55e00;" x="722.366844" xlink:href="#C3_0_e82b2a5b98" y="524.963862"/>
    </g>
    <g clip-path="url(#pa9a95007f4)">
     <use style="fill:#d55e00;" x="726.887088" xlink:href="#C3_0_e82b2a5b98" y="524.963862"/>
    </g>
    <g clip-path="url(#pa9a95007f4)">
     <use style="fill:#d55e00;" x="731.407332" xlink:href="#C3_0_e82b2a5b98" y="524.963862"/>
    </g>
    <g clip-path="url(#pa9a95007f4)">
     <use style="fill:#d55e00;" x="735.927577" xlink:href="#C3_0_e82b2a5b98" y="524.963862"/>
    </g>
   </g>
   <g id="patch_18">
    <path d="M 439.2 535.68 
L 439.2 349.056 
" style="fill:none;stroke:#bcbcbc;stroke-linecap:square;stroke-linejoin:miter;"/>
   </g>
   <g id="patch_19">
    <path d="M 752.4 535.68 
L 752.4 349.056 
" style="fill:none;stroke:#bcbcbc;stroke-linecap:square;stroke-linejoin:miter;"/>
   </g>
   <g id="patch_20">
    <path d="M 439.2 535.68 
L 752.4 535.68 
" style="fill:none;stroke:#bcbcbc;stroke-linecap:square;stroke-linejoin:miter;"/>
   </g>
   <g id="patch_21">
    <path d="M 439.2 349.056 
L 752.4 349.056 
" style="fill:none;stroke:#bcbcbc;stroke-linecap:square;stroke-linejoin:miter;"/>
   </g>
   <g id="text_18">
    <!-- Royal Aircraft Factory S.E.5 -->
    <defs>
     <path d="M 4.5 23 
L 13.421875 23.78125 
Q 14.0625 18.40625 16.375 14.96875 
Q 18.703125 11.53125 23.578125 9.40625 
Q 28.46875 7.28125 34.578125 7.28125 
Q 39.984375 7.28125 44.140625 8.890625 
Q 48.296875 10.5 50.3125 13.296875 
Q 52.34375 16.109375 52.34375 19.4375 
Q 52.34375 22.796875 50.390625 25.3125 
Q 48.4375 27.828125 43.953125 29.546875 
Q 41.0625 30.671875 31.203125 33.03125 
Q 21.34375 35.40625 17.390625 37.5 
Q 12.25 40.1875 9.734375 44.15625 
Q 7.234375 48.140625 7.234375 53.078125 
Q 7.234375 58.5 10.296875 63.203125 
Q 13.375 67.921875 19.28125 70.359375 
Q 25.203125 72.796875 32.421875 72.796875 
Q 40.375 72.796875 46.453125 70.234375 
Q 52.546875 67.671875 55.8125 62.6875 
Q 59.078125 57.71875 59.328125 51.421875 
L 50.25 50.734375 
Q 49.515625 57.515625 45.28125 60.984375 
Q 41.0625 64.453125 32.8125 64.453125 
Q 24.21875 64.453125 20.28125 61.296875 
Q 16.359375 58.15625 16.359375 53.71875 
Q 16.359375 49.859375 19.140625 47.359375 
Q 21.875 44.875 33.421875 42.265625 
Q 44.96875 39.65625 49.265625 37.703125 
Q 55.515625 34.8125 58.484375 30.390625 
Q 61.46875 25.984375 61.46875 20.21875 
Q 61.46875 14.5 58.203125 9.4375 
Q 54.9375 4.390625 48.796875 1.578125 
Q 42.671875 -1.21875 35.015625 -1.21875 
Q 25.296875 -1.21875 18.71875 1.609375 
Q 12.15625 4.4375 8.421875 10.125 
Q 4.6875 15.828125 4.5 23 
z
" id="ArialMT-53"/>
     <path d="M 7.90625 0 
L 7.90625 71.578125 
L 59.671875 71.578125 
L 59.671875 63.140625 
L 17.390625 63.140625 
L 17.390625 41.21875 
L 56.984375 41.21875 
L 56.984375 32.8125 
L 17.390625 32.8125 
L 17.390625 8.453125 
L 61.328125 8.453125 
L 61.328125 0 
z
" id="ArialMT-45"/>
    </defs>
    <g style="fill:#262626;" transform="translate(534.121875 343.056)scale(0.1 -0.1)">
     <use xlink:href="#ArialMT-52"/>
     <use x="72.216797" xlink:href="#ArialMT-6f"/>
     <use x="127.832031" xlink:href="#ArialMT-79"/>
     <use x="177.832031" xlink:href="#ArialMT-61"/>
     <use x="233.447266" xlink:href="#ArialMT-6c"/>
     <use x="255.664062" xlink:href="#ArialMT-20"/>
     <use x="283.369141" xlink:href="#ArialMT-41"/>
     <use x="350.068359" xlink:href="#ArialMT-69"/>
     <use x="372.285156" xlink:href="#ArialMT-72"/>
     <use x="405.585938" xlink:href="#ArialMT-63"/>
     <use x="455.585938" xlink:href="#ArialMT-72"/>
     <use x="488.886719" xlink:href="#ArialMT-61"/>
     <use x="544.501953" xlink:href="#ArialMT-66"/>
     <use x="572.285156" xlink:href="#ArialMT-74"/>
     <use x="600.068359" xlink:href="#ArialMT-20"/>
     <use x="627.851562" xlink:href="#ArialMT-46"/>
     <use x="688.935547" xlink:href="#ArialMT-61"/>
     <use x="744.550781" xlink:href="#ArialMT-63"/>
     <use x="794.550781" xlink:href="#ArialMT-74"/>
     <use x="822.333984" xlink:href="#ArialMT-6f"/>
     <use x="877.949219" xlink:href="#ArialMT-72"/>
     <use x="911.25" xlink:href="#ArialMT-79"/>
     <use x="961.25" xlink:href="#ArialMT-20"/>
     <use x="989.033203" xlink:href="#ArialMT-53"/>
     <use x="1055.732422" xlink:href="#ArialMT-2e"/>
     <use x="1083.515625" xlink:href="#ArialMT-45"/>
     <use x="1150.214844" xlink:href="#ArialMT-2e"/>
     <use x="1177.998047" xlink:href="#ArialMT-35"/>
    </g>
   </g>
  </g>
  <g id="text_19">
   <!-- Distribution of Topics across Time  (Window size = 10) -->
   <defs>
    <path d="M 7.71875 0 
L 7.71875 71.578125 
L 32.375 71.578125 
Q 40.71875 71.578125 45.125 70.5625 
Q 51.265625 69.140625 55.609375 65.4375 
Q 61.28125 60.640625 64.078125 53.1875 
Q 66.890625 45.75 66.890625 36.1875 
Q 66.890625 28.03125 64.984375 21.734375 
Q 63.09375 15.4375 60.109375 11.296875 
Q 57.125 7.171875 53.578125 4.796875 
Q 50.046875 2.4375 45.046875 1.21875 
Q 40.046875 0 33.546875 0 
z
M 17.1875 8.453125 
L 32.46875 8.453125 
Q 39.546875 8.453125 43.578125 9.765625 
Q 47.609375 11.078125 50 13.484375 
Q 53.375 16.84375 55.25 22.53125 
Q 57.125 28.21875 57.125 36.328125 
Q 57.125 47.5625 53.4375 53.59375 
Q 49.75 59.625 44.484375 61.671875 
Q 40.671875 63.140625 32.234375 63.140625 
L 17.1875 63.140625 
z
" id="ArialMT-44"/>
    <path d="M 14.703125 0 
L 6.546875 0 
L 6.546875 71.578125 
L 15.328125 71.578125 
L 15.328125 46.046875 
Q 20.90625 53.03125 29.546875 53.03125 
Q 34.328125 53.03125 38.59375 51.09375 
Q 42.875 49.171875 45.625 45.671875 
Q 48.390625 42.1875 49.953125 37.25 
Q 51.515625 32.328125 51.515625 26.703125 
Q 51.515625 13.375 44.921875 6.09375 
Q 38.328125 -1.171875 29.109375 -1.171875 
Q 19.921875 -1.171875 14.703125 6.5 
z
M 14.59375 26.3125 
Q 14.59375 17 17.140625 12.84375 
Q 21.296875 6.0625 28.375 6.0625 
Q 34.125 6.0625 38.328125 11.0625 
Q 42.53125 16.0625 42.53125 25.984375 
Q 42.53125 36.140625 38.5 40.96875 
Q 34.46875 45.796875 28.765625 45.796875 
Q 23 45.796875 18.796875 40.796875 
Q 14.59375 35.796875 14.59375 26.3125 
z
" id="ArialMT-62"/>
    <path d="M 40.578125 0 
L 40.578125 7.625 
Q 34.515625 -1.171875 24.125 -1.171875 
Q 19.53125 -1.171875 15.546875 0.578125 
Q 11.578125 2.34375 9.640625 5 
Q 7.71875 7.671875 6.9375 11.53125 
Q 6.390625 14.109375 6.390625 19.734375 
L 6.390625 51.859375 
L 15.1875 51.859375 
L 15.1875 23.09375 
Q 15.1875 16.21875 15.71875 13.8125 
Q 16.546875 10.359375 19.234375 8.375 
Q 21.921875 6.390625 25.875 6.390625 
Q 29.828125 6.390625 33.296875 8.421875 
Q 36.765625 10.453125 38.203125 13.9375 
Q 39.65625 17.4375 39.65625 24.078125 
L 39.65625 51.859375 
L 48.4375 51.859375 
L 48.4375 0 
z
" id="ArialMT-75"/>
    <path d="M 25.921875 0 
L 25.921875 63.140625 
L 2.34375 63.140625 
L 2.34375 71.578125 
L 59.078125 71.578125 
L 59.078125 63.140625 
L 35.40625 63.140625 
L 35.40625 0 
z
" id="ArialMT-54"/>
    <path d="M 6.59375 -19.875 
L 6.59375 51.859375 
L 14.59375 51.859375 
L 14.59375 45.125 
Q 17.4375 49.078125 21 51.046875 
Q 24.5625 53.03125 29.640625 53.03125 
Q 36.28125 53.03125 41.359375 49.609375 
Q 46.4375 46.1875 49.015625 39.953125 
Q 51.609375 33.734375 51.609375 26.3125 
Q 51.609375 18.359375 48.75 11.984375 
Q 45.90625 5.609375 40.453125 2.21875 
Q 35.015625 -1.171875 29 -1.171875 
Q 24.609375 -1.171875 21.109375 0.6875 
Q 17.625 2.546875 15.375 5.375 
L 15.375 -19.875 
z
M 14.546875 25.640625 
Q 14.546875 15.625 18.59375 10.84375 
Q 22.65625 6.0625 28.421875 6.0625 
Q 34.28125 6.0625 38.453125 11.015625 
Q 42.625 15.96875 42.625 26.375 
Q 42.625 36.28125 38.546875 41.203125 
Q 34.46875 46.140625 28.8125 46.140625 
Q 23.1875 46.140625 18.859375 40.890625 
Q 14.546875 35.640625 14.546875 25.640625 
z
" id="ArialMT-70"/>
    <path d="M 6.59375 0 
L 6.59375 51.859375 
L 14.453125 51.859375 
L 14.453125 44.578125 
Q 16.890625 48.390625 20.9375 50.703125 
Q 25 53.03125 30.171875 53.03125 
Q 35.9375 53.03125 39.625 50.640625 
Q 43.3125 48.25 44.828125 43.953125 
Q 50.984375 53.03125 60.84375 53.03125 
Q 68.5625 53.03125 72.703125 48.75 
Q 76.859375 44.484375 76.859375 35.59375 
L 76.859375 0 
L 68.109375 0 
L 68.109375 32.671875 
Q 68.109375 37.9375 67.25 40.25 
Q 66.40625 42.578125 64.15625 43.984375 
Q 61.921875 45.40625 58.890625 45.40625 
Q 53.421875 45.40625 49.796875 41.765625 
Q 46.1875 38.140625 46.1875 30.125 
L 46.1875 0 
L 37.40625 0 
L 37.40625 33.6875 
Q 37.40625 39.546875 35.25 42.46875 
Q 33.109375 45.40625 28.21875 45.40625 
Q 24.515625 45.40625 21.359375 43.453125 
Q 18.21875 41.5 16.796875 37.734375 
Q 15.375 33.984375 15.375 26.90625 
L 15.375 0 
z
" id="ArialMT-6d"/>
    <path d="M 1.953125 0 
L 1.953125 7.125 
L 34.96875 45.015625 
Q 29.34375 44.734375 25.046875 44.734375 
L 3.90625 44.734375 
L 3.90625 51.859375 
L 46.296875 51.859375 
L 46.296875 46.046875 
L 18.21875 13.140625 
L 12.796875 7.125 
Q 18.703125 7.5625 23.875 7.5625 
L 47.859375 7.5625 
L 47.859375 0 
z
" id="ArialMT-7a"/>
    <path d="M 52.828125 42.09375 
L 5.5625 42.09375 
L 5.5625 50.296875 
L 52.828125 50.296875 
z
M 52.828125 20.359375 
L 5.5625 20.359375 
L 5.5625 28.5625 
L 52.828125 28.5625 
z
" id="ArialMT-3d"/>
   </defs>
   <g style="fill:#262626;" transform="translate(251.143125 28.8)scale(0.12 -0.12)">
    <use xlink:href="#ArialMT-44"/>
    <use x="72.216797" xlink:href="#ArialMT-69"/>
    <use x="94.433594" xlink:href="#ArialMT-73"/>
    <use x="144.433594" xlink:href="#ArialMT-74"/>
    <use x="172.216797" xlink:href="#ArialMT-72"/>
    <use x="205.517578" xlink:href="#ArialMT-69"/>
    <use x="227.734375" xlink:href="#ArialMT-62"/>
    <use x="283.349609" xlink:href="#ArialMT-75"/>
    <use x="338.964844" xlink:href="#ArialMT-74"/>
    <use x="366.748047" xlink:href="#ArialMT-69"/>
    <use x="388.964844" xlink:href="#ArialMT-6f"/>
    <use x="444.580078" xlink:href="#ArialMT-6e"/>
    <use x="500.195312" xlink:href="#ArialMT-20"/>
    <use x="527.978516" xlink:href="#ArialMT-6f"/>
    <use x="583.59375" xlink:href="#ArialMT-66"/>
    <use x="611.376953" xlink:href="#ArialMT-20"/>
    <use x="639.144531" xlink:href="#ArialMT-54"/>
    <use x="700.056641" xlink:href="#ArialMT-6f"/>
    <use x="755.671875" xlink:href="#ArialMT-70"/>
    <use x="811.287109" xlink:href="#ArialMT-69"/>
    <use x="833.503906" xlink:href="#ArialMT-63"/>
    <use x="883.503906" xlink:href="#ArialMT-73"/>
    <use x="933.503906" xlink:href="#ArialMT-20"/>
    <use x="961.287109" xlink:href="#ArialMT-61"/>
    <use x="1016.902344" xlink:href="#ArialMT-63"/>
    <use x="1066.902344" xlink:href="#ArialMT-72"/>
    <use x="1100.203125" xlink:href="#ArialMT-6f"/>
    <use x="1155.818359" xlink:href="#ArialMT-73"/>
    <use x="1205.818359" xlink:href="#ArialMT-73"/>
    <use x="1255.818359" xlink:href="#ArialMT-20"/>
    <use x="1283.585938" xlink:href="#ArialMT-54"/>
    <use x="1344.623047" xlink:href="#ArialMT-69"/>
    <use x="1366.839844" xlink:href="#ArialMT-6d"/>
    <use x="1450.140625" xlink:href="#ArialMT-65"/>
    <use x="1505.755859" xlink:href="#ArialMT-20"/>
    <use x="1533.539062" xlink:href="#ArialMT-20"/>
    <use x="1561.322266" xlink:href="#ArialMT-28"/>
    <use x="1594.623047" xlink:href="#ArialMT-57"/>
    <use x="1689.007812" xlink:href="#ArialMT-69"/>
    <use x="1711.224609" xlink:href="#ArialMT-6e"/>
    <use x="1766.839844" xlink:href="#ArialMT-64"/>
    <use x="1822.455078" xlink:href="#ArialMT-6f"/>
    <use x="1878.070312" xlink:href="#ArialMT-77"/>
    <use x="1950.287109" xlink:href="#ArialMT-20"/>
    <use x="1978.070312" xlink:href="#ArialMT-73"/>
    <use x="2028.070312" xlink:href="#ArialMT-69"/>
    <use x="2050.287109" xlink:href="#ArialMT-7a"/>
    <use x="2100.287109" xlink:href="#ArialMT-65"/>
    <use x="2155.902344" xlink:href="#ArialMT-20"/>
    <use x="2183.685547" xlink:href="#ArialMT-3d"/>
    <use x="2242.083984" xlink:href="#ArialMT-20"/>
    <use x="2269.867188" xlink:href="#ArialMT-31"/>
    <use x="2325.482422" xlink:href="#ArialMT-30"/>
    <use x="2381.097656" xlink:href="#ArialMT-29"/>
   </g>
  </g>
  <g id="text_20">
   <!-- Time -->
   <g style="fill:#262626;" transform="translate(382.670625 558.72)scale(0.12 -0.12)">
    <use xlink:href="#ArialMT-54"/>
    <use x="61.037109" xlink:href="#ArialMT-69"/>
    <use x="83.253906" xlink:href="#ArialMT-6d"/>
    <use x="166.554688" xlink:href="#ArialMT-65"/>
   </g>
  </g>
  <g id="text_21">
   <!-- Average Score -->
   <defs>
    <path d="M 21 0 
L 1.265625 51.859375 
L 10.546875 51.859375 
L 21.6875 20.796875 
Q 23.484375 15.765625 25 10.359375 
Q 26.171875 14.453125 28.265625 20.21875 
L 39.796875 51.859375 
L 48.828125 51.859375 
L 29.203125 0 
z
" id="ArialMT-76"/>
    <path d="M 4.984375 -4.296875 
L 13.53125 -5.5625 
Q 14.0625 -9.515625 16.5 -11.328125 
Q 19.78125 -13.765625 25.4375 -13.765625 
Q 31.546875 -13.765625 34.859375 -11.328125 
Q 38.1875 -8.890625 39.359375 -4.5 
Q 40.046875 -1.8125 39.984375 6.78125 
Q 34.234375 0 25.640625 0 
Q 14.9375 0 9.078125 7.71875 
Q 3.21875 15.4375 3.21875 26.21875 
Q 3.21875 33.640625 5.90625 39.90625 
Q 8.59375 46.1875 13.6875 49.609375 
Q 18.796875 53.03125 25.6875 53.03125 
Q 34.859375 53.03125 40.828125 45.609375 
L 40.828125 51.859375 
L 48.921875 51.859375 
L 48.921875 7.03125 
Q 48.921875 -5.078125 46.453125 -10.125 
Q 44 -15.1875 38.640625 -18.109375 
Q 33.296875 -21.046875 25.484375 -21.046875 
Q 16.21875 -21.046875 10.5 -16.875 
Q 4.78125 -12.703125 4.984375 -4.296875 
z
M 12.25 26.859375 
Q 12.25 16.65625 16.296875 11.96875 
Q 20.359375 7.28125 26.46875 7.28125 
Q 32.515625 7.28125 36.609375 11.9375 
Q 40.71875 16.609375 40.71875 26.5625 
Q 40.71875 36.078125 36.5 40.90625 
Q 32.28125 45.75 26.3125 45.75 
Q 20.453125 45.75 16.34375 40.984375 
Q 12.25 36.234375 12.25 26.859375 
z
" id="ArialMT-67"/>
   </defs>
   <g style="fill:#262626;" transform="translate(26.865 358.635)rotate(-90)scale(0.12 -0.12)">
    <use xlink:href="#ArialMT-41"/>
    <use x="66.683594" xlink:href="#ArialMT-76"/>
    <use x="116.683594" xlink:href="#ArialMT-65"/>
    <use x="172.298828" xlink:href="#ArialMT-72"/>
    <use x="205.599609" xlink:href="#ArialMT-61"/>
    <use x="261.214844" xlink:href="#ArialMT-67"/>
    <use x="316.830078" xlink:href="#ArialMT-65"/>
    <use x="372.445312" xlink:href="#ArialMT-20"/>
    <use x="400.228516" xlink:href="#ArialMT-53"/>
    <use x="466.927734" xlink:href="#ArialMT-63"/>
    <use x="516.927734" xlink:href="#ArialMT-6f"/>
    <use x="572.542969" xlink:href="#ArialMT-72"/>
    <use x="605.84375" xlink:href="#ArialMT-65"/>
   </g>
  </g>
 </g>
 <defs>
  <clipPath id="pba9491c925">
   <rect height="186.624" width="313.2" x="63.36" y="69.12"/>
  </clipPath>
  <clipPath id="p85ffe88986">
   <rect height="186.624" width="313.2" x="439.2" y="69.12"/>
  </clipPath>
  <clipPath id="p001875793d">
   <rect height="186.624" width="313.2" x="63.36" y="349.056"/>
  </clipPath>
  <clipPath id="pa9a95007f4">
   <rect height="186.624" width="313.2" x="439.2" y="349.056"/>
  </clipPath>
 </defs>
</svg>
